<svg width="853" height="853" viewBox="0 0 853 853" fill="none" xmlns="http://www.w3.org/2000/svg">
<g clip-path="url(#clip0_1779_1466)">
<path d="M230.292 747.25C318.726 747.25 390.417 675.56 390.417 587.125C390.417 498.69 318.726 427 230.292 427C141.857 427 70.1667 498.69 70.1667 587.125C70.1667 675.56 141.857 747.25 230.292 747.25Z" stroke="#040504" stroke-width="45.3451" stroke-linecap="round" stroke-linejoin="round"/>
<path d="M675.083 747.249C734.04 747.249 781.833 699.455 781.833 640.499C781.833 581.543 734.04 533.749 675.083 533.749C616.127 533.749 568.333 581.543 568.333 640.499C568.333 699.455 616.127 747.249 675.083 747.249Z" stroke="#040504" stroke-width="45.3451" stroke-linecap="round" stroke-linejoin="round"/>
<path d="M70.1667 373.622C110.51 343.359 158.604 325.147 208.874 321.096C259.144 317.045 309.533 327.321 354.202 350.734C398.871 374.147 435.992 409.737 461.263 453.382C486.534 497.027 498.921 546.939 496.989 597.335C496.17 618.827 495.779 629.609 501.01 635.053C506.24 640.497 515.955 640.497 535.348 640.497H568.333M461.583 320.247L572.105 340.957C655.37 356.613 697.038 364.406 721.626 394.047C746.25 423.688 746.25 466.281 746.25 551.539M710.667 426.997H675.083" stroke="#040504" stroke-width="45.3451" stroke-linecap="round" stroke-linejoin="round"/>
<path d="M461.583 444.791V341.136C461.583 327.211 459.579 313.571 455.57 300.216L408.208 106.749M141.333 320.249V106.749M105.75 106.749H461.583M639.5 338.041V284.666C639.5 265.791 646.998 247.69 660.344 234.343C673.691 220.997 691.792 213.499 710.667 213.499M248.083 320.249V106.749" stroke="#040504" stroke-width="45.3451" stroke-linecap="round" stroke-linejoin="round"/>
</g>
<defs>
<clipPath id="clip0_1779_1466">
<rect width="853" height="853" fill="white"/>
</clipPath>
</defs>
</svg>
