<svg width="853" height="853" viewBox="0 0 853 853" fill="none" xmlns="http://www.w3.org/2000/svg">
<mask id="path-1-outside-1_1779_1452" maskUnits="userSpaceOnUse" x="-17.6777" y="-18.3846" width="864.792" height="864.792" fill="black">
<rect fill="white" x="-17.6777" y="-18.3846" width="864.792" height="864.792"/>
<path d="M414.755 111.11C433.325 108.38 450.747 110.735 466.922 120.64C469.986 123.079 472.775 125.733 475.563 128.48C476.279 129.136 476.995 129.791 477.733 130.467C482.876 135.517 486.057 141.082 489.172 147.534C489.588 148.383 490.005 149.232 490.434 150.106C491.454 152.185 492.464 154.268 493.473 156.351C494.926 154.88 494.926 154.88 496.408 153.379C505.544 144.132 514.695 134.899 523.86 125.68C528.571 120.94 533.277 116.196 537.971 111.439C542.503 106.848 547.047 102.27 551.602 97.7016C553.336 95.9574 555.065 94.2084 556.789 92.4545C559.208 89.9961 561.643 87.5555 564.083 85.1183C564.79 84.3915 565.497 83.6648 566.225 82.916C570.633 78.5573 574.267 76.177 580.493 74.8255C585.281 75.7823 586.076 76.2844 589.353 79.5453C590.191 80.3707 591.03 81.1961 591.894 82.0466C592.807 82.964 593.72 83.8814 594.66 84.8265C595.636 85.793 596.612 86.7595 597.618 87.7552C600.902 91.0121 604.174 94.2822 607.445 97.5523C609.79 99.8837 612.137 102.214 614.483 104.544C620.867 110.888 627.239 117.244 633.608 123.603C637.584 127.573 641.562 131.54 645.541 135.506C656.556 146.484 667.567 157.466 678.566 168.459C679.27 169.163 679.974 169.867 680.7 170.592C682.127 172.018 683.554 173.445 684.982 174.872C685.69 175.58 686.399 176.288 687.129 177.018C688.193 178.081 688.193 178.081 689.278 179.166C700.777 190.658 712.296 202.128 723.826 213.589C735.659 225.353 747.475 237.133 759.274 248.932C765.9 255.557 772.534 262.175 779.186 268.774C785.441 274.98 791.672 281.208 797.888 287.453C800.176 289.745 802.472 292.028 804.776 294.303C807.915 297.405 811.024 300.533 814.127 303.67C815.051 304.569 815.974 305.468 816.925 306.394C820.979 310.549 822.941 312.783 824.042 318.601C822.944 323.865 821.404 325.821 817.603 329.592C817.008 330.194 816.413 330.797 815.801 331.418C813.809 333.424 811.786 335.397 809.762 337.37C808.325 338.805 806.891 340.241 805.458 341.679C801.566 345.573 797.647 349.439 793.722 353.3C789.624 357.341 785.551 361.408 781.476 365.472C773.757 373.163 766.015 380.83 758.264 388.488C749.441 397.21 740.643 405.957 731.848 414.706C713.756 432.702 695.632 450.665 677.487 468.606C677.789 469.513 678.091 470.419 678.402 471.354C677.798 470.749 677.194 470.145 676.571 469.522C675.568 470.532 674.566 471.541 673.533 472.581C649.151 497.126 624.748 521.649 600.322 546.151C588.511 558 576.707 569.856 564.918 581.728C554.645 592.074 544.359 602.407 534.058 612.724C528.602 618.19 523.154 623.661 517.72 629.148C512.607 634.31 507.478 639.455 502.335 644.587C500.449 646.475 498.569 648.37 496.695 650.271C494.14 652.863 491.562 655.432 488.978 657.996C488.24 658.756 487.501 659.516 486.74 660.299C483.228 663.738 480.916 665.466 476.069 666.536C471.306 666.447 470.066 665.953 466.293 662.975C463.167 659.167 462.755 658.411 462.231 653.875C461.137 644.454 455.275 637.893 448.499 631.67C449.103 630.461 449.708 629.252 450.331 628.006C438.633 618.31 425.574 611.344 410.039 611.53C396.181 612.89 385.155 618.746 375.67 628.902C368.298 637.948 364.893 646.763 363.322 658.246C363.057 659.682 362.793 661.117 362.52 662.596C362.37 667.662 363.447 671.856 365.15 676.562C365.533 677.633 365.917 678.703 366.312 679.807C371.984 693.67 381.933 702.902 395.447 709.099C399.726 710.702 403.966 711.612 408.436 712.499C412.388 713.585 414.182 715.311 416.427 718.679C417.25 722.8 417.761 725.662 416.425 729.669C415.275 731.005 414.066 732.29 412.829 733.546C412.055 734.336 411.281 735.126 410.483 735.94C409.627 736.804 408.771 737.667 407.889 738.557C406.992 739.469 406.096 740.381 405.172 741.32C402.193 744.344 399.207 747.361 396.219 750.375C395.2 751.404 394.182 752.432 393.132 753.491C387.741 758.932 382.342 764.365 376.94 769.795C371.355 775.41 365.796 781.051 360.243 786.697C355.973 791.029 351.683 795.34 347.387 799.646C345.329 801.717 343.278 803.796 341.235 805.882C338.376 808.799 335.489 811.686 332.594 814.568C331.754 815.437 330.915 816.307 330.05 817.202C329.253 817.985 328.456 818.767 327.634 819.573C326.955 820.258 326.275 820.944 325.575 821.65C321.307 824.048 318.653 823.87 313.834 823.103C309.963 820.576 306.876 817.382 303.654 814.087C302.669 813.117 301.685 812.147 300.671 811.147C297.372 807.885 294.108 804.592 290.842 801.297C288.486 798.954 286.129 796.613 283.77 794.274C278.03 788.571 272.312 782.847 266.604 777.113C261.965 772.453 257.317 767.803 252.663 763.159C252.001 762.498 251.338 761.837 250.656 761.156C249.311 759.814 247.965 758.471 246.62 757.129C234.004 744.539 221.417 731.922 208.839 719.295C198.043 708.458 187.223 697.645 176.386 686.85C163.802 674.316 151.234 661.767 138.69 649.194C137.352 647.854 136.015 646.514 134.678 645.173C134.02 644.514 133.362 643.855 132.684 643.175C128.043 638.527 123.392 633.889 118.736 629.255C112.473 623.02 106.234 616.761 100.012 610.485C97.7205 608.182 95.4213 605.886 93.1139 603.599C89.973 600.483 86.8615 597.34 83.7561 594.189C82.8298 593.283 81.9035 592.377 80.9491 591.444C74.8922 585.212 74.8922 585.212 74.7007 579.547C76.3295 573.982 77.8455 571.751 81.9808 567.618C83.1377 566.458 84.2946 565.297 85.4866 564.102C86.7871 562.806 88.0876 561.511 89.3883 560.216C90.7572 558.846 92.1258 557.476 93.4939 556.106C97.2684 552.327 101.049 548.554 104.83 544.782C108.901 540.719 112.967 536.65 117.034 532.582C124.085 525.53 131.14 518.481 138.196 511.435C148.399 501.247 158.597 491.053 168.794 480.859C185.336 464.321 201.882 447.787 218.431 431.255C234.51 415.193 250.588 399.129 266.662 383.062C267.652 382.072 268.643 381.082 269.663 380.063C274.63 375.098 279.598 370.132 284.565 365.167C325.799 323.952 367.04 282.744 408.284 241.54C407.405 241.173 406.526 240.805 405.621 240.426C403.89 239.695 403.89 239.695 402.124 238.949C400.981 238.468 399.837 237.987 398.659 237.492C392.321 234.628 387.106 230.324 381.729 225.977C380.638 225.12 380.638 225.12 379.526 224.246C367.877 213.985 362.709 196.447 361.158 181.532C360.033 148.358 381.714 117.817 414.755 111.11ZM377.754 176.767C378.463 193.249 386.403 206.075 398.14 217.32C404.782 222.597 412.304 225.859 420.708 226.942C425.688 227.799 425.688 227.799 429.122 230.203C431.656 234.004 431.696 236.132 431.18 240.62C429.62 245.296 425.581 248.381 422.171 251.836C421.322 252.703 420.474 253.57 419.599 254.463C416.783 257.337 413.961 260.204 411.138 263.072C409.188 265.06 407.238 267.048 405.289 269.037C400.15 274.276 395.006 279.511 389.861 284.744C383.692 291.021 377.531 297.304 371.368 303.586C361.998 313.136 352.619 322.677 343.243 332.22C366.206 355.184 389.17 378.147 412.83 401.807C414.947 396.669 417.063 391.531 419.244 386.237C429.936 370.201 443.561 359.324 462.408 354.632C481.91 350.921 500.891 354.802 517.412 365.897C533.615 379.442 542.764 395.373 546.372 416.182C547.824 432.879 543.692 448.781 533.705 462.226C532.052 464.132 530.365 466.011 528.649 467.861C527.245 469.38 527.245 469.38 525.813 470.929C524.847 471.968 523.88 473.006 522.885 474.076C521.9 475.14 520.916 476.203 519.902 477.298C517.483 479.91 515.062 482.519 512.637 485.126C511.503 484.559 511.503 484.559 510.347 483.981C505.865 483.022 503.665 484.702 499.815 486.96C515.797 504.209 532.017 521.189 548.629 537.835C549.419 538.63 550.209 539.425 551.024 540.244C553.269 542.499 555.52 544.748 557.774 546.994C558.448 547.672 559.122 548.35 559.816 549.048C563.247 552.56 563.247 552.56 567.571 554.716C645.56 476.727 723.549 398.738 803.901 318.386C730.175 244.66 656.449 170.934 580.489 94.9735C552.376 122.481 524.264 149.989 495.3 178.331C489.805 180.163 489.805 180.163 487 179.763C483.075 177.676 481.88 175.88 479.733 171.923C479.157 169.644 478.628 167.353 478.131 165.055C474.827 151.092 467.938 142.379 456.301 134.101C444.409 126.828 431.255 124.558 417.581 127.29C394.847 133.621 379.675 153.518 377.754 176.767ZM95.0042 580.458C168.73 654.184 242.456 727.91 318.417 803.87C343.808 778.479 369.2 753.087 395.361 726.926C389.922 724.509 384.482 722.092 378.878 719.603C365.141 710.446 353.346 697.339 346.832 682.061C346.601 677.435 346.601 677.435 346.834 672.903C346.572 670.231 346.305 667.56 346.035 664.889C345.217 649.997 349.722 632.912 359.541 621.456C373.13 606.36 387.695 597.099 408.4 594.577C426.684 594.044 442.424 600.06 456.534 611.595C466.581 621.081 472.133 632.007 477.802 644.485C503.194 619.093 528.586 593.701 554.747 567.54C545.89 558.381 537.033 549.222 527.908 539.785C525.15 536.932 522.393 534.079 519.552 531.139C517.305 528.817 515.058 526.495 512.811 524.173C512.218 523.559 511.625 522.946 511.014 522.314C505.164 516.262 499.306 510.222 493.295 504.328C492.48 503.528 491.665 502.727 490.825 501.903C489.374 500.487 487.916 499.08 486.447 497.684C481.851 493.21 478.808 489.346 478.695 482.786C479.985 478.613 481.849 476.971 485.164 474.141C488.889 472.692 488.889 472.692 493.007 471.564C508.438 466.659 517.803 457.352 526.382 443.911C528.278 439.66 529.353 435.679 530.048 431.089C530.332 429.483 530.616 427.877 530.908 426.223C531.8 411.157 526.553 398.861 517.293 387.418C506.832 375.841 494.225 369.431 478.568 368.624C463.921 368.948 450.861 374.033 440.648 384.59C433.403 393.124 429.376 402.146 426.898 412.998C425.396 417.156 423.562 419.177 420.152 421.954C415.5 422.518 413.375 422.23 409.163 420.124C383.782 394.743 358.401 369.362 332.25 343.212C253.959 421.503 175.668 499.794 95.0042 580.458Z"/>
</mask>
<path d="M414.755 111.11C433.325 108.38 450.747 110.735 466.922 120.64C469.986 123.079 472.775 125.733 475.563 128.48C476.279 129.136 476.995 129.791 477.733 130.467C482.876 135.517 486.057 141.082 489.172 147.534C489.588 148.383 490.005 149.232 490.434 150.106C491.454 152.185 492.464 154.268 493.473 156.351C494.926 154.88 494.926 154.88 496.408 153.379C505.544 144.132 514.695 134.899 523.86 125.68C528.571 120.94 533.277 116.196 537.971 111.439C542.503 106.848 547.047 102.27 551.602 97.7016C553.336 95.9574 555.065 94.2084 556.789 92.4545C559.208 89.9961 561.643 87.5555 564.083 85.1183C564.79 84.3915 565.497 83.6648 566.225 82.916C570.633 78.5573 574.267 76.177 580.493 74.8255C585.281 75.7823 586.076 76.2844 589.353 79.5453C590.191 80.3707 591.03 81.1961 591.894 82.0466C592.807 82.964 593.72 83.8814 594.66 84.8265C595.636 85.793 596.612 86.7595 597.618 87.7552C600.902 91.0121 604.174 94.2822 607.445 97.5523C609.79 99.8837 612.137 102.214 614.483 104.544C620.867 110.888 627.239 117.244 633.608 123.603C637.584 127.573 641.562 131.54 645.541 135.506C656.556 146.484 667.567 157.466 678.566 168.459C679.27 169.163 679.974 169.867 680.7 170.592C682.127 172.018 683.554 173.445 684.982 174.872C685.69 175.58 686.399 176.288 687.129 177.018C688.193 178.081 688.193 178.081 689.278 179.166C700.777 190.658 712.296 202.128 723.826 213.589C735.659 225.353 747.475 237.133 759.274 248.932C765.9 255.557 772.534 262.175 779.186 268.774C785.441 274.98 791.672 281.208 797.888 287.453C800.176 289.745 802.472 292.028 804.776 294.303C807.915 297.405 811.024 300.533 814.127 303.67C815.051 304.569 815.974 305.468 816.925 306.394C820.979 310.549 822.941 312.783 824.042 318.601C822.944 323.865 821.404 325.821 817.603 329.592C817.008 330.194 816.413 330.797 815.801 331.418C813.809 333.424 811.786 335.397 809.762 337.37C808.325 338.805 806.891 340.241 805.458 341.679C801.566 345.573 797.647 349.439 793.722 353.3C789.624 357.341 785.551 361.408 781.476 365.472C773.757 373.163 766.015 380.83 758.264 388.488C749.441 397.21 740.643 405.957 731.848 414.706C713.756 432.702 695.632 450.665 677.487 468.606C677.789 469.513 678.091 470.419 678.402 471.354C677.798 470.749 677.194 470.145 676.571 469.522C675.568 470.532 674.566 471.541 673.533 472.581C649.151 497.126 624.748 521.649 600.322 546.151C588.511 558 576.707 569.856 564.918 581.728C554.645 592.074 544.359 602.407 534.058 612.724C528.602 618.19 523.154 623.661 517.72 629.148C512.607 634.31 507.478 639.455 502.335 644.587C500.449 646.475 498.569 648.37 496.695 650.271C494.14 652.863 491.562 655.432 488.978 657.996C488.24 658.756 487.501 659.516 486.74 660.299C483.228 663.738 480.916 665.466 476.069 666.536C471.306 666.447 470.066 665.953 466.293 662.975C463.167 659.167 462.755 658.411 462.231 653.875C461.137 644.454 455.275 637.893 448.499 631.67C449.103 630.461 449.708 629.252 450.331 628.006C438.633 618.31 425.574 611.344 410.039 611.53C396.181 612.89 385.155 618.746 375.67 628.902C368.298 637.948 364.893 646.763 363.322 658.246C363.057 659.682 362.793 661.117 362.52 662.596C362.37 667.662 363.447 671.856 365.15 676.562C365.533 677.633 365.917 678.703 366.312 679.807C371.984 693.67 381.933 702.902 395.447 709.099C399.726 710.702 403.966 711.612 408.436 712.499C412.388 713.585 414.182 715.311 416.427 718.679C417.25 722.8 417.761 725.662 416.425 729.669C415.275 731.005 414.066 732.29 412.829 733.546C412.055 734.336 411.281 735.126 410.483 735.94C409.627 736.804 408.771 737.667 407.889 738.557C406.992 739.469 406.096 740.381 405.172 741.32C402.193 744.344 399.207 747.361 396.219 750.375C395.2 751.404 394.182 752.432 393.132 753.491C387.741 758.932 382.342 764.365 376.94 769.795C371.355 775.41 365.796 781.051 360.243 786.697C355.973 791.029 351.683 795.34 347.387 799.646C345.329 801.717 343.278 803.796 341.235 805.882C338.376 808.799 335.489 811.686 332.594 814.568C331.754 815.437 330.915 816.307 330.05 817.202C329.253 817.985 328.456 818.767 327.634 819.573C326.955 820.258 326.275 820.944 325.575 821.65C321.307 824.048 318.653 823.87 313.834 823.103C309.963 820.576 306.876 817.382 303.654 814.087C302.669 813.117 301.685 812.147 300.671 811.147C297.372 807.885 294.108 804.592 290.842 801.297C288.486 798.954 286.129 796.613 283.77 794.274C278.03 788.571 272.312 782.847 266.604 777.113C261.965 772.453 257.317 767.803 252.663 763.159C252.001 762.498 251.338 761.837 250.656 761.156C249.311 759.814 247.965 758.471 246.62 757.129C234.004 744.539 221.417 731.922 208.839 719.295C198.043 708.458 187.223 697.645 176.386 686.85C163.802 674.316 151.234 661.767 138.69 649.194C137.352 647.854 136.015 646.514 134.678 645.173C134.02 644.514 133.362 643.855 132.684 643.175C128.043 638.527 123.392 633.889 118.736 629.255C112.473 623.02 106.234 616.761 100.012 610.485C97.7205 608.182 95.4213 605.886 93.1139 603.599C89.973 600.483 86.8615 597.34 83.7561 594.189C82.8298 593.283 81.9035 592.377 80.9491 591.444C74.8922 585.212 74.8922 585.212 74.7007 579.547C76.3295 573.982 77.8455 571.751 81.9808 567.618C83.1377 566.458 84.2946 565.297 85.4866 564.102C86.7871 562.806 88.0876 561.511 89.3883 560.216C90.7572 558.846 92.1258 557.476 93.4939 556.106C97.2684 552.327 101.049 548.554 104.83 544.782C108.901 540.719 112.967 536.65 117.034 532.582C124.085 525.53 131.14 518.481 138.196 511.435C148.399 501.247 158.597 491.053 168.794 480.859C185.336 464.321 201.882 447.787 218.431 431.255C234.51 415.193 250.588 399.129 266.662 383.062C267.652 382.072 268.643 381.082 269.663 380.063C274.63 375.098 279.598 370.132 284.565 365.167C325.799 323.952 367.04 282.744 408.284 241.54C407.405 241.173 406.526 240.805 405.621 240.426C403.89 239.695 403.89 239.695 402.124 238.949C400.981 238.468 399.837 237.987 398.659 237.492C392.321 234.628 387.106 230.324 381.729 225.977C380.638 225.12 380.638 225.12 379.526 224.246C367.877 213.985 362.709 196.447 361.158 181.532C360.033 148.358 381.714 117.817 414.755 111.11ZM377.754 176.767C378.463 193.249 386.403 206.075 398.14 217.32C404.782 222.597 412.304 225.859 420.708 226.942C425.688 227.799 425.688 227.799 429.122 230.203C431.656 234.004 431.696 236.132 431.18 240.62C429.62 245.296 425.581 248.381 422.171 251.836C421.322 252.703 420.474 253.57 419.599 254.463C416.783 257.337 413.961 260.204 411.138 263.072C409.188 265.06 407.238 267.048 405.289 269.037C400.15 274.276 395.006 279.511 389.861 284.744C383.692 291.021 377.531 297.304 371.368 303.586C361.998 313.136 352.619 322.677 343.243 332.22C366.206 355.184 389.17 378.147 412.83 401.807C414.947 396.669 417.063 391.531 419.244 386.237C429.936 370.201 443.561 359.324 462.408 354.632C481.91 350.921 500.891 354.802 517.412 365.897C533.615 379.442 542.764 395.373 546.372 416.182C547.824 432.879 543.692 448.781 533.705 462.226C532.052 464.132 530.365 466.011 528.649 467.861C527.245 469.38 527.245 469.38 525.813 470.929C524.847 471.968 523.88 473.006 522.885 474.076C521.9 475.14 520.916 476.203 519.902 477.298C517.483 479.91 515.062 482.519 512.637 485.126C511.503 484.559 511.503 484.559 510.347 483.981C505.865 483.022 503.665 484.702 499.815 486.96C515.797 504.209 532.017 521.189 548.629 537.835C549.419 538.63 550.209 539.425 551.024 540.244C553.269 542.499 555.52 544.748 557.774 546.994C558.448 547.672 559.122 548.35 559.816 549.048C563.247 552.56 563.247 552.56 567.571 554.716C645.56 476.727 723.549 398.738 803.901 318.386C730.175 244.66 656.449 170.934 580.489 94.9735C552.376 122.481 524.264 149.989 495.3 178.331C489.805 180.163 489.805 180.163 487 179.763C483.075 177.676 481.88 175.88 479.733 171.923C479.157 169.644 478.628 167.353 478.131 165.055C474.827 151.092 467.938 142.379 456.301 134.101C444.409 126.828 431.255 124.558 417.581 127.29C394.847 133.621 379.675 153.518 377.754 176.767ZM95.0042 580.458C168.73 654.184 242.456 727.91 318.417 803.87C343.808 778.479 369.2 753.087 395.361 726.926C389.922 724.509 384.482 722.092 378.878 719.603C365.141 710.446 353.346 697.339 346.832 682.061C346.601 677.435 346.601 677.435 346.834 672.903C346.572 670.231 346.305 667.56 346.035 664.889C345.217 649.997 349.722 632.912 359.541 621.456C373.13 606.36 387.695 597.099 408.4 594.577C426.684 594.044 442.424 600.06 456.534 611.595C466.581 621.081 472.133 632.007 477.802 644.485C503.194 619.093 528.586 593.701 554.747 567.54C545.89 558.381 537.033 549.222 527.908 539.785C525.15 536.932 522.393 534.079 519.552 531.139C517.305 528.817 515.058 526.495 512.811 524.173C512.218 523.559 511.625 522.946 511.014 522.314C505.164 516.262 499.306 510.222 493.295 504.328C492.48 503.528 491.665 502.727 490.825 501.903C489.374 500.487 487.916 499.08 486.447 497.684C481.851 493.21 478.808 489.346 478.695 482.786C479.985 478.613 481.849 476.971 485.164 474.141C488.889 472.692 488.889 472.692 493.007 471.564C508.438 466.659 517.803 457.352 526.382 443.911C528.278 439.66 529.353 435.679 530.048 431.089C530.332 429.483 530.616 427.877 530.908 426.223C531.8 411.157 526.553 398.861 517.293 387.418C506.832 375.841 494.225 369.431 478.568 368.624C463.921 368.948 450.861 374.033 440.648 384.59C433.403 393.124 429.376 402.146 426.898 412.998C425.396 417.156 423.562 419.177 420.152 421.954C415.5 422.518 413.375 422.23 409.163 420.124C383.782 394.743 358.401 369.362 332.25 343.212C253.959 421.503 175.668 499.794 95.0042 580.458Z" fill="#040504"/>
<path d="M414.755 111.11C433.325 108.38 450.747 110.735 466.922 120.64C469.986 123.079 472.775 125.733 475.563 128.48C476.279 129.136 476.995 129.791 477.733 130.467C482.876 135.517 486.057 141.082 489.172 147.534C489.588 148.383 490.005 149.232 490.434 150.106C491.454 152.185 492.464 154.268 493.473 156.351C494.926 154.88 494.926 154.88 496.408 153.379C505.544 144.132 514.695 134.899 523.86 125.68C528.571 120.94 533.277 116.196 537.971 111.439C542.503 106.848 547.047 102.27 551.602 97.7016C553.336 95.9574 555.065 94.2084 556.789 92.4545C559.208 89.9961 561.643 87.5555 564.083 85.1183C564.79 84.3915 565.497 83.6648 566.225 82.916C570.633 78.5573 574.267 76.177 580.493 74.8255C585.281 75.7823 586.076 76.2844 589.353 79.5453C590.191 80.3707 591.03 81.1961 591.894 82.0466C592.807 82.964 593.72 83.8814 594.66 84.8265C595.636 85.793 596.612 86.7595 597.618 87.7552C600.902 91.0121 604.174 94.2822 607.445 97.5523C609.79 99.8837 612.137 102.214 614.483 104.544C620.867 110.888 627.239 117.244 633.608 123.603C637.584 127.573 641.562 131.54 645.541 135.506C656.556 146.484 667.567 157.466 678.566 168.459C679.27 169.163 679.974 169.867 680.7 170.592C682.127 172.018 683.554 173.445 684.982 174.872C685.69 175.58 686.399 176.288 687.129 177.018C688.193 178.081 688.193 178.081 689.278 179.166C700.777 190.658 712.296 202.128 723.826 213.589C735.659 225.353 747.475 237.133 759.274 248.932C765.9 255.557 772.534 262.175 779.186 268.774C785.441 274.98 791.672 281.208 797.888 287.453C800.176 289.745 802.472 292.028 804.776 294.303C807.915 297.405 811.024 300.533 814.127 303.67C815.051 304.569 815.974 305.468 816.925 306.394C820.979 310.549 822.941 312.783 824.042 318.601C822.944 323.865 821.404 325.821 817.603 329.592C817.008 330.194 816.413 330.797 815.801 331.418C813.809 333.424 811.786 335.397 809.762 337.37C808.325 338.805 806.891 340.241 805.458 341.679C801.566 345.573 797.647 349.439 793.722 353.3C789.624 357.341 785.551 361.408 781.476 365.472C773.757 373.163 766.015 380.83 758.264 388.488C749.441 397.21 740.643 405.957 731.848 414.706C713.756 432.702 695.632 450.665 677.487 468.606C677.789 469.513 678.091 470.419 678.402 471.354C677.798 470.749 677.194 470.145 676.571 469.522C675.568 470.532 674.566 471.541 673.533 472.581C649.151 497.126 624.748 521.649 600.322 546.151C588.511 558 576.707 569.856 564.918 581.728C554.645 592.074 544.359 602.407 534.058 612.724C528.602 618.19 523.154 623.661 517.72 629.148C512.607 634.31 507.478 639.455 502.335 644.587C500.449 646.475 498.569 648.37 496.695 650.271C494.14 652.863 491.562 655.432 488.978 657.996C488.24 658.756 487.501 659.516 486.74 660.299C483.228 663.738 480.916 665.466 476.069 666.536C471.306 666.447 470.066 665.953 466.293 662.975C463.167 659.167 462.755 658.411 462.231 653.875C461.137 644.454 455.275 637.893 448.499 631.67C449.103 630.461 449.708 629.252 450.331 628.006C438.633 618.31 425.574 611.344 410.039 611.53C396.181 612.89 385.155 618.746 375.67 628.902C368.298 637.948 364.893 646.763 363.322 658.246C363.057 659.682 362.793 661.117 362.52 662.596C362.37 667.662 363.447 671.856 365.15 676.562C365.533 677.633 365.917 678.703 366.312 679.807C371.984 693.67 381.933 702.902 395.447 709.099C399.726 710.702 403.966 711.612 408.436 712.499C412.388 713.585 414.182 715.311 416.427 718.679C417.25 722.8 417.761 725.662 416.425 729.669C415.275 731.005 414.066 732.29 412.829 733.546C412.055 734.336 411.281 735.126 410.483 735.94C409.627 736.804 408.771 737.667 407.889 738.557C406.992 739.469 406.096 740.381 405.172 741.32C402.193 744.344 399.207 747.361 396.219 750.375C395.2 751.404 394.182 752.432 393.132 753.491C387.741 758.932 382.342 764.365 376.94 769.795C371.355 775.41 365.796 781.051 360.243 786.697C355.973 791.029 351.683 795.34 347.387 799.646C345.329 801.717 343.278 803.796 341.235 805.882C338.376 808.799 335.489 811.686 332.594 814.568C331.754 815.437 330.915 816.307 330.05 817.202C329.253 817.985 328.456 818.767 327.634 819.573C326.955 820.258 326.275 820.944 325.575 821.65C321.307 824.048 318.653 823.87 313.834 823.103C309.963 820.576 306.876 817.382 303.654 814.087C302.669 813.117 301.685 812.147 300.671 811.147C297.372 807.885 294.108 804.592 290.842 801.297C288.486 798.954 286.129 796.613 283.77 794.274C278.03 788.571 272.312 782.847 266.604 777.113C261.965 772.453 257.317 767.803 252.663 763.159C252.001 762.498 251.338 761.837 250.656 761.156C249.311 759.814 247.965 758.471 246.62 757.129C234.004 744.539 221.417 731.922 208.839 719.295C198.043 708.458 187.223 697.645 176.386 686.85C163.802 674.316 151.234 661.767 138.69 649.194C137.352 647.854 136.015 646.514 134.678 645.173C134.02 644.514 133.362 643.855 132.684 643.175C128.043 638.527 123.392 633.889 118.736 629.255C112.473 623.02 106.234 616.761 100.012 610.485C97.7205 608.182 95.4213 605.886 93.1139 603.599C89.973 600.483 86.8615 597.34 83.7561 594.189C82.8298 593.283 81.9035 592.377 80.9491 591.444C74.8922 585.212 74.8922 585.212 74.7007 579.547C76.3295 573.982 77.8455 571.751 81.9808 567.618C83.1377 566.458 84.2946 565.297 85.4866 564.102C86.7871 562.806 88.0876 561.511 89.3883 560.216C90.7572 558.846 92.1258 557.476 93.4939 556.106C97.2684 552.327 101.049 548.554 104.83 544.782C108.901 540.719 112.967 536.65 117.034 532.582C124.085 525.53 131.14 518.481 138.196 511.435C148.399 501.247 158.597 491.053 168.794 480.859C185.336 464.321 201.882 447.787 218.431 431.255C234.51 415.193 250.588 399.129 266.662 383.062C267.652 382.072 268.643 381.082 269.663 380.063C274.63 375.098 279.598 370.132 284.565 365.167C325.799 323.952 367.04 282.744 408.284 241.54C407.405 241.173 406.526 240.805 405.621 240.426C403.89 239.695 403.89 239.695 402.124 238.949C400.981 238.468 399.837 237.987 398.659 237.492C392.321 234.628 387.106 230.324 381.729 225.977C380.638 225.12 380.638 225.12 379.526 224.246C367.877 213.985 362.709 196.447 361.158 181.532C360.033 148.358 381.714 117.817 414.755 111.11ZM377.754 176.767C378.463 193.249 386.403 206.075 398.14 217.32C404.782 222.597 412.304 225.859 420.708 226.942C425.688 227.799 425.688 227.799 429.122 230.203C431.656 234.004 431.696 236.132 431.18 240.62C429.62 245.296 425.581 248.381 422.171 251.836C421.322 252.703 420.474 253.57 419.599 254.463C416.783 257.337 413.961 260.204 411.138 263.072C409.188 265.06 407.238 267.048 405.289 269.037C400.15 274.276 395.006 279.511 389.861 284.744C383.692 291.021 377.531 297.304 371.368 303.586C361.998 313.136 352.619 322.677 343.243 332.22C366.206 355.184 389.17 378.147 412.83 401.807C414.947 396.669 417.063 391.531 419.244 386.237C429.936 370.201 443.561 359.324 462.408 354.632C481.91 350.921 500.891 354.802 517.412 365.897C533.615 379.442 542.764 395.373 546.372 416.182C547.824 432.879 543.692 448.781 533.705 462.226C532.052 464.132 530.365 466.011 528.649 467.861C527.245 469.38 527.245 469.38 525.813 470.929C524.847 471.968 523.88 473.006 522.885 474.076C521.9 475.14 520.916 476.203 519.902 477.298C517.483 479.91 515.062 482.519 512.637 485.126C511.503 484.559 511.503 484.559 510.347 483.981C505.865 483.022 503.665 484.702 499.815 486.96C515.797 504.209 532.017 521.189 548.629 537.835C549.419 538.63 550.209 539.425 551.024 540.244C553.269 542.499 555.52 544.748 557.774 546.994C558.448 547.672 559.122 548.35 559.816 549.048C563.247 552.56 563.247 552.56 567.571 554.716C645.56 476.727 723.549 398.738 803.901 318.386C730.175 244.66 656.449 170.934 580.489 94.9735C552.376 122.481 524.264 149.989 495.3 178.331C489.805 180.163 489.805 180.163 487 179.763C483.075 177.676 481.88 175.88 479.733 171.923C479.157 169.644 478.628 167.353 478.131 165.055C474.827 151.092 467.938 142.379 456.301 134.101C444.409 126.828 431.255 124.558 417.581 127.29C394.847 133.621 379.675 153.518 377.754 176.767ZM95.0042 580.458C168.73 654.184 242.456 727.91 318.417 803.87C343.808 778.479 369.2 753.087 395.361 726.926C389.922 724.509 384.482 722.092 378.878 719.603C365.141 710.446 353.346 697.339 346.832 682.061C346.601 677.435 346.601 677.435 346.834 672.903C346.572 670.231 346.305 667.56 346.035 664.889C345.217 649.997 349.722 632.912 359.541 621.456C373.13 606.36 387.695 597.099 408.4 594.577C426.684 594.044 442.424 600.06 456.534 611.595C466.581 621.081 472.133 632.007 477.802 644.485C503.194 619.093 528.586 593.701 554.747 567.54C545.89 558.381 537.033 549.222 527.908 539.785C525.15 536.932 522.393 534.079 519.552 531.139C517.305 528.817 515.058 526.495 512.811 524.173C512.218 523.559 511.625 522.946 511.014 522.314C505.164 516.262 499.306 510.222 493.295 504.328C492.48 503.528 491.665 502.727 490.825 501.903C489.374 500.487 487.916 499.08 486.447 497.684C481.851 493.21 478.808 489.346 478.695 482.786C479.985 478.613 481.849 476.971 485.164 474.141C488.889 472.692 488.889 472.692 493.007 471.564C508.438 466.659 517.803 457.352 526.382 443.911C528.278 439.66 529.353 435.679 530.048 431.089C530.332 429.483 530.616 427.877 530.908 426.223C531.8 411.157 526.553 398.861 517.293 387.418C506.832 375.841 494.225 369.431 478.568 368.624C463.921 368.948 450.861 374.033 440.648 384.59C433.403 393.124 429.376 402.146 426.898 412.998C425.396 417.156 423.562 419.177 420.152 421.954C415.5 422.518 413.375 422.23 409.163 420.124C383.782 394.743 358.401 369.362 332.25 343.212C253.959 421.503 175.668 499.794 95.0042 580.458Z" stroke="black" stroke-width="24" mask="url(#path-1-outside-1_1779_1452)"/>
</svg>
