<svg width="853" height="853" viewBox="0 0 853 853" fill="none" xmlns="http://www.w3.org/2000/svg">
<path d="M350.003 6.98763C383.32 22.9242 404.725 48.3372 426.974 73.7357C428.983 71.0771 428.983 71.0771 431.032 68.3648C452.469 40.6792 477.159 11.1117 516.95 1.61677C537.383 -2.01548 553.569 0.597303 571.361 9.9499C604.203 31.7066 612.386 73.2232 617.654 105.896C618.074 110.944 618.074 110.944 616.659 118.622C610.996 123.642 610.996 123.642 602.503 125.709C578.607 123.171 551.645 113.167 531.725 102.085C525.888 102.022 525.888 102.022 520.401 104.447C515.853 109.051 515.853 109.051 511.907 115.078C503.065 127.29 493.542 138.911 483.596 150.515C479.246 155.652 474.904 160.793 470.563 165.935C467.079 170.042 463.552 174.123 460.018 178.2C448.436 192.185 444.447 200.795 446.791 217.844C449.463 215.277 449.463 215.277 452.188 212.658C494.429 172.845 494.429 172.845 524.404 169.931C543.739 169.346 558.104 172.251 573.13 182.998C599.994 208.955 611.91 237.968 613.828 272.18C613.053 277.711 612.156 283.234 610.996 288.717C601.282 292.219 595.836 293.804 585.395 291.735C582.457 290.69 579.519 289.646 576.492 288.57C573.317 287.461 570.142 286.353 566.871 285.211C563.681 284.029 560.491 282.847 557.205 281.63C554.132 280.497 551.059 279.364 547.893 278.197C540.586 275.455 533.311 272.666 526.063 269.818C505.685 289.802 488.265 311.399 470.795 333.177C467.228 337.567 463.577 341.882 459.841 346.173C447.918 360.368 443.949 370.582 446.791 387.94C449.802 385.087 452.81 382.232 455.816 379.376C457.648 377.643 459.48 375.91 461.367 374.125C465.474 370.141 469.361 365.999 473.156 361.805C493.675 343.091 517.546 332.954 547.65 330.355C569.152 332.349 587.05 339.841 602.503 352.503C635.856 387.668 655.697 444.721 650.632 489.525C647.447 494.249 647.447 494.249 642.139 496.612C630.232 498.193 623.638 496.399 613.96 490.909C609.878 488.411 605.824 485.881 601.795 483.323C597.528 480.709 593.256 478.1 588.978 475.498C586.927 474.243 584.877 472.988 582.764 471.696C568.428 463.123 553.211 455.832 537.387 449.363C536.727 450.673 536.066 451.982 535.386 453.331C530.783 460.223 524.972 465.207 518.454 470.92C507.001 481.222 497.251 491.756 487.865 503.395C482.494 509.722 476.007 514.757 469.44 520.236C452.667 536.157 452.667 536.157 446.791 555.673C449.594 554.893 452.397 554.114 455.285 553.31C456.048 552.016 456.81 550.722 457.596 549.388C469.377 529.955 496.682 510.545 520.71 502.924C542.078 498.78 566.751 497.484 586.091 507.381C629.392 536.366 642.482 583.437 650.455 627.136C650.854 629.247 651.252 631.357 651.663 633.531C653.44 644.351 654.494 652.081 647.801 661.982C638.777 663.754 638.777 663.754 627.983 664.345C620.551 660.211 620.551 660.211 613.828 654.895C609.141 652.489 604.418 650.132 599.672 647.808C594.771 645.157 589.876 642.499 584.985 639.835C570.539 632.12 555.727 625.55 540.218 619.459C515.33 643.415 515.33 643.415 491.68 668.221C483.441 676.963 474.763 685.392 466.094 693.839C462.469 697.379 458.876 700.942 455.285 704.506C453.764 705.942 452.242 707.377 450.675 708.856C445.795 715.264 445.705 719.285 445.657 726.844C445.619 729.422 445.582 731.999 445.543 734.655C445.542 737.426 445.542 740.198 445.542 743.053C445.504 745.907 445.467 748.76 445.428 751.701C445.313 760.824 445.251 769.947 445.199 779.071C445.132 788.203 445.052 797.334 444.939 806.466C444.87 812.15 444.828 817.834 444.816 823.519C444.787 826.089 444.758 828.66 444.728 831.308C444.716 833.572 444.704 835.836 444.692 838.169C443.96 843.89 443.96 843.89 438.298 850.977C430.284 853.265 425.853 853.815 417.772 851.568C412.818 848.615 412.818 848.615 409.987 841.528C409.758 837.544 409.691 833.554 409.72 829.567C409.731 825.91 409.731 825.91 409.743 822.18C409.758 819.544 409.773 816.909 409.788 814.193C409.764 808.607 409.734 803.021 409.699 797.435C409.652 788.632 409.633 779.831 409.705 771.028C409.764 762.528 409.698 754.035 409.611 745.535C409.66 742.928 409.709 740.321 409.76 737.636C409.405 718.484 402.884 708.834 387.338 695.056C384.75 692.337 382.191 689.597 379.685 686.825C366.588 672.786 353.306 658.901 339.563 645.298C338.317 644.06 337.072 642.823 335.789 641.549C327.888 633.792 319.616 626.564 310.898 619.459C267.322 637.758 267.322 637.758 228.795 661.982C212.258 662.858 212.258 662.858 206.146 661.982C195.554 648.724 201.129 631.224 204.635 616.143C215.359 574.95 228.065 531.85 271.262 506.062C288.665 498.47 311.664 498.893 330.317 503.21C342.004 506.975 352.318 510.981 361.858 517.874C361.858 519.433 361.858 520.992 361.858 522.599C364.31 523.476 364.31 523.476 366.812 524.37C374.115 527.756 379.018 531.539 384.507 536.773C384.507 538.332 384.507 539.892 384.507 541.498C386.375 541.498 388.244 541.498 390.169 541.498C394.438 545.632 394.438 545.632 399.016 550.948C400.542 552.702 402.067 554.456 403.639 556.263C404.8 557.628 405.96 558.992 407.156 560.398C408.533 549.566 406.511 543.931 398.387 535.38C396.509 533.511 396.509 533.511 394.593 531.605C393.306 530.272 392.019 528.938 390.694 527.563C386.78 523.52 382.815 519.516 378.845 515.511C376.713 513.303 374.582 511.096 372.386 508.821C360.691 496.745 348.721 484.86 336.732 472.987C334.759 471.03 334.759 471.03 332.746 469.033C326.656 463.031 320.553 457.156 313.729 451.726C291.297 461.299 270.495 472.365 249.697 484.163C224.609 498.298 224.609 498.298 211.808 496.612C206.089 492.943 203.633 490.744 202.088 484.809C202.007 442.948 215.154 386.05 249.542 354.054C251.885 352.117 251.885 352.117 254.275 350.141C255.604 348.947 256.932 347.753 258.301 346.523C272.282 335.25 290.924 332.001 309.659 330.355C347.442 333.795 374.732 355.011 398.662 378.49C402.301 385.116 402.301 385.116 404.325 390.302C406.193 390.302 408.062 390.302 409.987 390.302C409.198 375.41 405.804 364.673 395.654 352.208C394.448 350.663 393.242 349.119 391.999 347.527C387.682 342.058 383.273 336.648 378.845 331.241C376.984 328.959 375.124 326.677 373.207 324.326C363.312 312.224 353.35 300.161 343.29 288.154C341.617 286.156 339.944 284.157 338.22 282.098C334.143 277.568 330 273.681 325.053 269.818C321.875 271.127 318.696 272.437 315.421 273.786C311.142 275.516 306.862 277.245 302.581 278.972C299.458 280.265 299.458 280.265 296.272 281.584C281.974 287.315 267.464 292.61 251.444 293.442C244.278 290.96 244.278 290.96 240.12 286.355C232.589 258.492 247.844 222.338 263.609 197.92C273.009 186.101 284.189 178.134 299.396 171.924C324.026 168.15 340.646 170.924 361.858 182.408C379.981 193.793 393.95 207.262 407.156 222.569C410.311 203.305 404.344 192.556 390.927 177.14C386.716 172.234 382.668 167.246 378.623 162.244C362.163 141.913 345.435 121.774 327.884 102.085C317.089 104.914 307.254 108.134 297.273 112.568C259.412 128.579 259.412 128.579 240.12 123.347C227.711 102.639 241.428 73.0462 249.472 52.5118C258.419 30.909 270.891 14.5465 294.973 3.01024C315.244 -1.9477 331.059 -0.888824 350.003 6.98763ZM293.911 38.2991C282.764 53.8567 274.947 69.7374 274.093 87.9103C283.436 84.7919 292.779 81.6735 302.404 78.4606C302.404 72.5537 302.303 66.6454 302.05 60.7423C302.379 53.0546 303.201 49.3677 308.067 43.024C309.935 43.024 311.804 43.024 313.729 43.024C314.663 44.5832 315.597 46.1424 316.56 47.7489C319.785 49.2218 319.785 49.2218 323.075 50.7244C332.383 55.7334 336.526 60.9156 342.549 68.6509C343.613 70.0006 344.677 71.3504 345.773 72.741C349.158 77.0443 352.501 81.3687 355.842 85.6955C359.16 89.9445 362.488 94.1888 365.815 98.4331C367.99 101.208 370.163 103.983 372.334 106.761C389.218 129.333 389.218 129.333 409.987 149.334C410.218 143.377 410.386 137.426 410.518 131.468C410.589 129.803 410.66 128.139 410.733 126.424C411.216 97.301 384.654 68.5716 361.858 47.7489C348.161 37.581 337.062 29.5585 318.329 28.1111C305.98 28.9995 302.752 31.236 293.911 38.2991ZM468.868 70.7526C450.872 90.9127 450.872 90.9127 443.684 114.211C443.693 116.114 443.702 118.018 443.711 119.979C443.735 121.967 443.759 123.956 443.783 126.005C443.796 128.011 443.809 130.018 443.822 132.086C443.855 137.048 443.906 142.01 443.96 146.971C452.162 138.552 459.927 129.955 467.494 121.132C468.676 119.764 469.857 118.396 471.074 116.987C479.096 107.619 486.763 98.0951 494.29 88.4455C496.148 86.0913 498.007 83.7371 499.921 81.3115C503.626 76.6062 507.288 71.8773 510.904 67.1242C512.622 64.9542 514.34 62.7842 516.11 60.5485C517.62 58.594 519.13 56.6394 520.685 54.6257C527.815 48.6405 533.112 48.2095 543.05 47.7489C544.918 48.5285 546.787 49.3081 548.712 50.1113C550.915 59.1355 552.233 64.92 548.712 73.7357C550.58 73.7357 552.449 73.7357 554.374 73.7357C555.775 77.2439 555.775 77.2439 557.205 80.823C560.942 80.823 564.679 80.823 568.53 80.823C568.53 82.3822 568.53 83.9414 568.53 85.5479C572.267 86.3275 576.004 87.1071 579.854 87.9103C576.146 70.7534 569.21 56.2936 560.036 40.6616C558.168 40.6616 556.299 40.6616 554.374 40.6616C553.498 39.1511 552.622 37.6406 551.72 36.0844C549.18 31.3628 549.18 31.3628 545.881 28.8494C511.835 24.7171 486.791 49.1394 468.868 70.7526ZM293.911 210.757C282.982 225.629 277.934 238.231 276.924 255.643C287.468 252.779 297.812 249.717 308.067 246.194C307.074 244.537 306.081 242.88 305.058 241.173C301.921 233.144 302.805 228.319 305.235 220.207C306.17 219.427 307.104 218.648 308.067 217.844C325.792 218.366 325.792 218.366 333.779 225.393C335.396 227.677 337.012 229.961 338.678 232.314C340.568 234.881 342.459 237.449 344.407 240.094C345.395 241.471 346.383 242.849 347.401 244.268C352.833 251.704 358.692 258.9 364.512 266.127C366.282 268.341 366.282 268.341 368.088 270.601C387.257 296.239 387.257 296.239 409.987 319.429C414.038 284.873 408.118 263.703 381.676 236.744C358.855 211.962 358.855 211.962 327.088 197.837C310.969 197.648 303.793 199.304 293.911 210.757ZM468.416 238.509C450.317 257.509 450.317 257.509 443.684 280.098C443.693 282.108 443.702 284.118 443.711 286.189C443.735 288.29 443.759 290.391 443.783 292.556C443.796 294.676 443.809 296.795 443.822 298.979C443.856 304.221 443.902 309.463 443.96 314.704C453.487 307.148 461.011 299.847 467.848 290.489C469.549 288.202 471.249 285.915 473.001 283.559C474.629 281.363 476.257 279.167 477.934 276.905C485.731 266.79 493.821 256.876 502.275 247.135C503.569 245.641 504.864 244.146 506.197 242.607C508.795 239.618 511.405 236.636 514.028 233.663C520.953 226.493 520.953 226.493 523.232 217.844C531.64 217.844 540.049 217.844 548.712 217.844C551.616 228.264 551.647 234.207 545.881 243.831C561.24 251.249 561.24 251.249 577.023 258.006C575.26 238.145 568.891 218.146 551.543 203.67C549.674 203.67 547.806 203.67 545.881 203.67C545.881 202.11 545.881 200.551 545.881 198.945C541.993 198.685 538.098 198.504 534.202 198.354C532.034 198.245 529.867 198.135 527.633 198.022C504.043 201.032 482.67 223.25 468.416 238.509ZM270.112 375.565C255.53 393.854 248.183 414.037 242.066 435.188C241.546 436.971 241.026 438.754 240.489 440.591C237.374 449.872 237.374 449.872 240.12 458.813C242.342 457.388 244.565 455.962 246.855 454.494C293.758 424.605 293.758 424.605 319.391 425.739C331.421 428.6 337.476 433.121 345.579 440.947C348.88 444.117 348.88 444.117 352.248 447.351C361.017 456.066 369.65 464.867 378.236 473.707C387.533 483.148 396.967 492.553 407.156 501.337C408.09 501.337 409.024 501.337 409.987 501.337C410.569 491.2 410.917 481.066 411.226 470.92C411.392 468.076 411.558 465.232 411.729 462.301C412.213 441.074 406.814 429.79 390.169 413.927C387.547 411.143 384.929 408.356 382.317 405.566C379.88 403.123 377.425 400.692 374.952 398.275C373.632 396.985 372.312 395.694 370.952 394.364C351.742 375.896 335.544 361.351 305.412 358.557C289.728 358.982 279.673 365.57 270.112 375.565ZM469.971 404.772C467.909 407.187 465.847 409.602 463.723 412.09C458.116 418.651 458.116 418.651 453.482 423.219C432.914 443.726 441.694 476.521 443.96 501.337C454.43 492.837 463.989 483.974 473.333 474.612C476.075 471.888 478.817 469.166 481.561 466.445C482.879 465.136 484.196 463.828 485.553 462.48C521.909 426.494 521.909 426.494 538.449 424.705C562.848 424.964 585.66 438.995 603.852 451.486C608.043 454.549 608.043 454.549 613.828 454.088C608.459 421.621 597.61 393.62 574.192 366.678C532.68 343.06 493.616 378.618 469.971 404.772ZM528.363 531.458C525.929 532.225 523.495 532.993 520.987 533.783C513.622 537.307 512.648 539.992 509.076 546.223C505.311 547.814 501.534 549.386 497.752 550.948C492.558 555.141 487.708 559.322 482.888 563.794C479.1 567.224 479.1 567.224 475.235 570.724C472.352 573.576 469.478 576.435 466.609 579.297C463.631 582.042 463.631 582.042 460.593 584.843C442.588 602.879 441.061 617.013 442.545 639.982C442.647 643.02 442.749 646.058 442.854 649.187C443.119 656.61 443.489 664.017 443.96 671.432C454.079 663.185 463.525 654.633 472.625 645.593C473.963 644.27 475.3 642.947 476.677 641.584C487.762 630.546 498.458 619.27 509.073 607.916C552.944 560.99 552.944 560.99 564.637 559.364C566.856 559.705 569.075 560.046 571.361 560.398C577.023 567.485 577.023 567.485 576.492 573.243C574.192 579.297 574.192 579.297 569.591 584.17C565.042 588.45 565.042 588.45 566.285 593.382C569.019 599.247 571.603 600.835 577.897 604.204C580.719 605.741 580.719 605.741 583.598 607.309C585.574 608.346 587.55 609.383 589.586 610.452C591.551 611.516 593.517 612.58 595.541 613.677C605.874 619.257 605.874 619.257 616.659 624.183C614.829 605.408 608.568 588.912 600.38 571.472C599.466 569.47 598.551 567.468 597.609 565.406C590.373 550.498 581.37 536.734 564.106 528.652C550.894 526.108 540.913 527.339 528.363 531.458ZM275.476 537.152C252.364 559.162 242.624 591.078 237.289 619.459C238.223 621.018 239.157 622.577 240.12 624.183C242.375 622.929 244.63 621.674 246.954 620.381C261.663 612.199 276.371 604.017 291.08 595.834C290.058 594.805 289.036 593.776 287.983 592.715C281.144 585.391 277.171 580.854 275.686 571.472C276.924 565.122 276.924 565.122 282.586 560.398C290.018 559.955 290.018 559.955 299.573 562.76C308.048 569.218 315.075 576.547 322.222 584.022C323.934 585.782 325.645 587.542 327.409 589.356C331.052 593.132 334.675 596.923 338.28 600.725C351.121 614.209 364.2 627.532 377.234 640.885C381.37 645.132 385.491 649.388 389.605 653.649C393.037 657.189 393.037 657.189 396.539 660.801C398.539 662.872 400.539 664.943 402.599 667.076C404.103 668.514 405.607 669.951 407.156 671.432C408.09 671.432 409.024 671.432 409.987 671.432C410.569 661.295 410.917 651.161 411.226 641.016C411.392 638.171 411.558 635.327 411.729 632.397C412.213 611.161 406.842 599.875 390.169 584.022C387.966 581.719 387.966 581.719 385.718 579.369C352.685 544.641 352.685 544.641 305.235 527.324C293.659 527.324 284.018 531.021 275.476 537.152Z" fill="#040504"/>
</svg>
