<svg width="853" height="853" viewBox="0 0 853 853" fill="none" xmlns="http://www.w3.org/2000/svg">
<g clip-path="url(#clip0_1779_1486)">
<mask id="path-1-outside-1_1779_1486" maskUnits="userSpaceOnUse" x="-7.99976" y="70.0005" width="869" height="713" fill="black">
<rect fill="white" x="-7.99976" y="70.0005" width="869" height="713"/>
<path fill-rule="evenodd" clip-rule="evenodd" d="M20.1334 96.2281C34.3184 82.7776 53.4977 73.0366 72.5561 83.244C78.2206 87.4174 81.5586 89.9233 82.6819 97.1508C82.7015 99.2333 82.6843 101.317 82.6368 103.399C82.6378 104.54 82.6384 105.681 82.6394 106.857C82.6347 110.617 82.5813 114.375 82.528 118.134C82.5153 120.745 82.5069 123.357 82.5001 125.968C82.4742 132.832 82.4068 139.695 82.3316 146.558C82.262 153.566 82.2305 160.575 82.1963 167.583C82.1235 181.326 82.0076 195.068 81.8646 208.811C83.4323 208.809 85.0005 208.806 86.6157 208.804C155.709 208.713 224.804 208.629 293.897 208.58C294.943 208.579 295.989 208.578 297.067 208.577C319.798 208.561 342.529 208.546 365.261 208.532C376.408 208.525 387.556 208.519 398.703 208.512C400.366 208.511 400.366 208.51 402.063 208.509C438.022 208.486 473.982 208.445 509.941 208.395C546.891 208.344 583.842 208.311 620.792 208.3C626.011 208.298 631.229 208.296 636.448 208.294C637.475 208.294 638.502 208.293 639.56 208.293C656.097 208.286 672.633 208.261 689.169 208.229C705.792 208.197 722.414 208.185 739.037 208.193C748.044 208.197 757.051 208.191 766.059 208.161C774.303 208.135 782.547 208.134 790.791 208.152C793.775 208.154 796.759 208.148 799.743 208.131C803.798 208.109 807.852 208.122 811.907 208.142C813.647 208.12 813.648 208.12 815.423 208.098C826.358 208.22 836.115 211.986 844.037 219.687C853.476 231.56 852.583 244.682 852.543 259.144C852.547 261.23 852.553 263.317 852.559 265.403C852.573 271.121 852.57 276.84 852.564 282.558C852.561 288.731 852.574 294.904 852.584 301.077C852.601 313.163 852.603 325.25 852.6 337.337C852.598 347.161 852.6 356.986 852.605 366.81C852.606 368.208 852.607 369.607 852.608 371.048C852.61 373.889 852.612 376.731 852.613 379.572C852.628 406.213 852.626 432.853 852.617 459.493C852.61 483.862 852.625 508.231 852.65 532.6C852.677 557.627 852.689 582.654 852.684 607.681C852.681 621.73 852.684 635.779 852.704 649.828C852.72 661.786 852.721 673.745 852.705 685.704C852.697 691.804 852.695 697.905 852.711 704.005C852.726 709.593 852.723 715.181 852.704 720.768C852.7 722.786 852.703 724.804 852.714 726.822C852.768 737.662 852.293 746.619 848.113 756.684H845.396L844.462 758.978C840.934 765.198 834.73 771.805 827.669 773.772C822.137 774.578 816.701 774.545 811.118 774.531C809.845 774.534 808.571 774.537 807.26 774.539C802.969 774.546 798.678 774.543 794.387 774.539C791.29 774.542 788.191 774.545 785.093 774.549C776.561 774.557 768.028 774.556 759.496 774.554C751.246 774.554 742.995 774.56 734.744 774.566C715.778 774.579 696.811 774.584 677.844 774.585C663.194 774.585 648.544 774.587 633.894 774.591C629.678 774.592 625.463 774.594 621.247 774.595C620.199 774.595 619.151 774.596 618.071 774.596C588.584 774.605 559.098 774.61 529.611 774.61C528.499 774.61 527.387 774.61 526.241 774.61C520.605 774.61 514.968 774.609 509.332 774.608H499.147C463.941 774.608 428.734 774.618 393.527 774.636C353.976 774.657 314.424 774.669 274.873 774.668H259.067C242.359 774.668 225.652 774.676 208.944 774.688C192.144 774.7 175.344 774.701 158.544 774.692C149.446 774.687 140.346 774.687 131.248 774.699C122.914 774.709 114.58 774.708 106.246 774.696C103.236 774.694 100.226 774.696 97.2151 774.704C57.106 774.798 57.1049 774.799 42.2955 766.88C41.386 766.405 40.4768 765.929 39.5398 765.44C22.6806 756.229 11.446 742.884 4.67934 724.906C0.208773 708.975 -0.0435191 692.753 0.0131473 676.348C0.0109851 674.056 0.00828499 671.764 0.00385998 669.471C-0.00478916 663.222 0.00340611 656.971 0.014474 650.721C0.0234588 643.962 0.0165791 637.202 0.0118205 630.443C0.00499077 617.222 0.012495 604.001 0.025088 590.78C0.0392341 575.372 0.0390154 559.963 0.0383556 544.555C0.0376763 517.058 0.050445 489.561 0.0701977 462.064C0.0893402 435.403 0.0989599 408.742 0.0980595 382.08C0.0980052 380.438 0.0981154 378.795 0.0980595 377.103C0.0979773 374.643 0.0968167 374.643 0.0967328 372.134C0.0957948 341.748 0.104475 311.362 0.116634 280.976C0.120726 270.244 0.122652 259.512 0.123268 248.78C0.124196 235.698 0.129386 222.615 0.141842 209.533C0.1481 202.862 0.152845 196.191 0.15113 189.52C0.149635 183.407 0.154628 177.295 0.164397 171.182C0.166846 168.977 0.166736 166.772 0.164397 164.568C0.139805 138.481 0.919983 115.914 20.1334 96.2281ZM831.295 221.269C826.331 217.702 821.777 218.138 815.882 218.156C814.781 218.154 813.679 218.151 812.544 218.149C808.812 218.144 805.081 218.15 801.349 218.155C798.661 218.153 795.974 218.151 793.286 218.148C785.867 218.142 778.449 218.145 771.03 218.149C763.037 218.152 755.044 218.148 747.051 218.144C732.268 218.138 717.484 218.139 702.701 218.143C688.999 218.146 675.297 218.147 661.595 218.145C660.686 218.145 659.776 218.144 658.839 218.144C655.146 218.143 651.453 218.143 647.76 218.143C613.042 218.138 578.323 218.143 543.606 218.151C512.923 218.157 482.241 218.156 451.558 218.149C417.016 218.142 382.473 218.14 347.931 218.144C344.221 218.144 340.511 218.145 336.802 218.145C335.889 218.145 334.975 218.145 334.034 218.145C320.41 218.147 306.786 218.145 293.162 218.141C188.865 218.109 188.864 218.11 84.5818 219.687V287.661L108.214 287.863C113.148 287.911 118.083 287.96 123.018 288.011C130.854 288.094 138.691 288.173 146.527 288.235C152.843 288.285 159.158 288.347 165.474 288.419C167.886 288.444 170.298 288.464 172.71 288.48C176.084 288.503 179.457 288.543 182.831 288.586C183.832 288.589 184.834 288.593 185.866 288.596C190.882 288.678 193.058 288.879 197.345 291.739C197.748 295.613 197.888 299.191 197.852 303.068C197.857 304.24 197.862 305.412 197.867 306.619C197.878 310.507 197.859 314.394 197.839 318.281C197.838 320.977 197.839 323.672 197.841 326.368C197.841 332.025 197.828 337.683 197.803 343.34C197.772 350.594 197.771 357.847 197.78 365.1C197.785 370.67 197.775 376.241 197.762 381.811C197.757 384.485 197.756 387.159 197.758 389.834C197.758 393.573 197.741 397.313 197.719 401.052C197.723 402.16 197.725 403.267 197.729 404.408C197.675 410.072 197.223 412.978 194.628 418.172L83.2232 419.531V517.414L107.497 517.664C112.562 517.719 117.627 517.774 122.691 517.831C130.736 517.921 138.782 518.01 146.826 518.09C153.31 518.155 159.793 518.226 166.277 518.301C168.754 518.329 171.232 518.355 173.709 518.378C177.171 518.411 180.632 518.451 184.094 518.494C185.126 518.502 186.158 518.51 187.221 518.518C194.319 518.618 194.318 518.619 197.345 520.133C197.44 536.193 197.513 552.252 197.558 568.311C197.579 575.768 197.607 583.225 197.653 590.682C197.697 597.875 197.722 605.068 197.733 612.261C197.74 615.009 197.755 617.756 197.776 620.503C197.806 624.344 197.81 628.186 197.808 632.027C197.823 633.169 197.838 634.311 197.853 635.488C197.812 643.208 197.812 643.208 195.643 646.178C192.678 648.36 191.084 648.431 187.425 648.424C185.636 648.436 185.636 648.435 183.811 648.447C182.507 648.434 181.202 648.423 179.859 648.41C177.794 648.414 177.794 648.413 175.687 648.418C171.129 648.422 166.57 648.397 162.011 648.371C158.853 648.367 155.694 648.364 152.535 648.363C145.914 648.357 139.292 648.338 132.67 648.308C124.161 648.269 115.652 648.254 107.143 648.248C100.622 648.242 94.0993 648.228 87.5776 648.212C84.4392 648.204 81.3001 648.198 78.1616 648.193C73.7864 648.184 69.4113 648.166 65.036 648.144C63.7261 648.143 62.416 648.14 61.0664 648.139C59.8816 648.131 58.6969 648.123 57.4762 648.115C55.9231 648.109 55.9229 648.109 54.3384 648.103C51.9761 647.924 51.9755 647.925 50.6169 646.566C50.3018 644.507 50.0569 642.436 49.8527 640.363L49.5077 636.959L49.2583 634.33C34.9335 638.81 24.5047 651.433 17.1349 663.958C8.43377 680.945 8.29884 703.916 13.887 722.07C16.3353 727.894 19.5151 732.727 23.445 737.651L25.865 740.79C37.4469 754.873 51.2279 761.736 69.1782 763.921C83.9046 765.158 98.6257 765.038 113.394 765.031C116.456 765.034 119.519 765.04 122.581 765.044C130.965 765.055 139.349 765.056 147.733 765.057C155.855 765.06 163.978 765.069 172.101 765.077C193.836 765.099 215.571 765.107 237.306 765.113C247.59 765.116 257.874 765.121 268.158 765.127C303.373 765.144 338.588 765.159 373.804 765.164C376.011 765.164 378.219 765.165 380.427 765.165C382.639 765.165 384.852 765.165 387.064 765.165C391.503 765.166 395.942 765.167 400.381 765.168C401.482 765.168 402.583 765.168 403.717 765.168C439.445 765.173 475.173 765.194 510.901 765.226C548.694 765.26 586.488 765.278 624.282 765.279C628.428 765.279 632.574 765.28 636.72 765.281C638.251 765.281 638.252 765.28 639.814 765.281C656.25 765.282 672.685 765.297 689.121 765.316C705.627 765.336 722.134 765.341 738.64 765.33C747.584 765.324 756.528 765.327 765.472 765.346C773.654 765.363 781.835 765.361 790.017 765.344C792.982 765.342 795.947 765.346 798.912 765.358C802.933 765.373 806.953 765.362 810.974 765.346C812.132 765.356 813.291 765.367 814.484 765.377C821.711 765.314 826.706 764.037 833.168 760.763V758.044L837.244 756.684C844.053 746.831 843.441 736.874 843.361 725.261C843.366 723.161 843.373 721.061 843.383 718.961C843.403 713.207 843.389 707.453 843.37 701.699C843.355 695.487 843.371 689.275 843.383 683.063C843.402 670.901 843.392 658.74 843.371 646.578C843.348 632.414 843.353 618.25 843.358 604.087C843.366 578.817 843.346 553.547 843.313 528.277C843.28 503.755 843.271 479.234 843.285 454.712C843.3 428.009 843.303 401.305 843.284 374.602C843.281 371.755 843.279 368.907 843.277 366.06C843.276 364.659 843.275 363.259 843.274 361.815C843.268 351.942 843.27 342.069 843.276 332.196C843.282 320.166 843.275 308.135 843.248 296.105C843.234 289.966 843.228 283.828 843.238 277.689C843.248 272.07 843.239 266.45 843.215 260.831C843.209 258.798 843.21 256.766 843.219 254.733C843.608 238.758 843.608 238.758 836.22 225.178L833.763 223.255L831.295 221.269ZM65.5614 90.5353C52.0607 89.2098 40.966 91.5508 30.2379 100.052V102.771C26.1628 104.13 26.162 104.13 23.5776 106.865L20.8127 110.503C10.3941 123.741 9.0538 140.791 9.18102 157.045C9.1982 159.111 9.20453 161.178 9.20225 163.244C9.18378 168.984 9.18492 174.723 9.21153 180.463C9.24077 186.721 9.24685 192.979 9.24338 199.237C9.23633 210.092 9.24379 220.947 9.27256 231.801C9.31676 247.62 9.34074 263.438 9.34819 279.257C9.35921 304.903 9.38888 330.55 9.43974 356.196C9.4897 381.18 9.53286 406.165 9.55649 431.149C9.55796 432.74 9.55904 434.285 9.56047 435.829C9.56765 443.585 9.5749 451.341 9.5817 459.097C9.63903 524.759 9.73454 590.421 9.85899 656.082H12.5762C20.3168 640.591 34.7108 628.636 50.6169 622.095L73.713 616.657V95.9732H69.6372V93.2543L65.5614 90.5353ZM82.6288 575.023C82.5459 582.126 82.4645 589.229 82.3714 596.332C82.3452 598.246 82.3195 600.16 82.2945 602.074C82.2612 605.178 82.2284 608.282 82.1857 611.385C82.1716 612.371 82.1582 613.328 82.1445 614.284C82.0899 618.705 82.4834 622.216 80.506 626.173L76.3082 626.688C70.5227 626.965 64.0151 626.267 58.7685 628.892V638.409H189.194V526.931H83.2232L82.6288 575.023ZM84.5818 298.537V410.015H189.194V298.537H84.5818Z"/>
<path d="M274.786 516.054C278.5 515.54 278.5 515.54 283.328 515.536C284.214 515.529 285.101 515.523 286.014 515.516C288.997 515.5 291.979 515.513 294.962 515.526C297.096 515.52 299.229 515.513 301.362 515.504C307.167 515.486 312.972 515.493 318.777 515.506C324.845 515.516 330.913 515.506 336.981 515.5C347.176 515.493 357.37 515.502 367.565 515.522C379.356 515.544 391.146 515.537 402.936 515.514C413.051 515.496 423.165 515.493 433.279 515.504C439.324 515.51 445.368 515.511 451.413 515.498C457.098 515.486 462.782 515.494 468.467 515.518C470.555 515.523 472.643 515.521 474.73 515.512C477.579 515.501 480.425 515.515 483.274 515.536C485.665 515.538 485.665 515.538 488.105 515.54C492.59 516.108 494.503 516.858 497.596 520.132C498.12 524.257 498.297 527.887 498.234 532.012C498.237 533.226 498.24 534.44 498.243 535.69C498.246 539.71 498.211 543.728 498.174 547.747C498.167 550.535 498.163 553.324 498.16 556.112C498.15 561.959 498.122 567.806 498.08 573.653C498.026 581.155 498.002 588.656 497.989 596.159C497.975 603.303 497.948 610.446 497.919 617.59C497.915 618.958 497.91 620.326 497.905 621.735C497.89 625.599 497.864 629.462 497.836 633.325C497.832 634.474 497.829 635.622 497.825 636.805C497.783 641.303 497.668 644.987 496.237 649.283C467.41 649.379 438.584 649.45 409.757 649.495C396.373 649.516 382.989 649.544 369.605 649.591C357.943 649.632 346.281 649.658 334.619 649.667C328.441 649.672 322.263 649.685 316.085 649.715C310.275 649.742 304.466 649.751 298.656 649.745C296.519 649.746 294.382 649.754 292.245 649.77C289.336 649.79 286.428 649.785 283.52 649.774C281.889 649.778 280.259 649.781 278.579 649.785C277.327 649.62 276.075 649.454 274.786 649.283C271.245 643.968 271.687 639.491 271.717 633.325C271.712 632.111 271.707 630.897 271.703 629.647C271.691 625.628 271.698 621.609 271.708 617.59C271.706 614.802 271.703 612.013 271.7 609.225C271.696 603.378 271.702 597.531 271.714 591.684C271.73 584.182 271.721 576.68 271.705 569.178C271.695 563.419 271.698 557.66 271.705 551.901C271.707 549.135 271.705 546.368 271.698 543.602C271.691 539.738 271.702 535.875 271.717 532.012C271.711 530.863 271.706 529.715 271.7 528.531C271.739 523.218 271.773 520.575 274.786 516.054ZM281.579 526.929C281.579 564.166 281.579 601.402 281.579 639.767C349.726 639.767 417.873 639.767 488.085 639.767C488.085 602.531 488.085 565.294 488.085 526.929C419.938 526.929 351.791 526.929 281.579 526.929Z"/>
<path d="M284.887 287.17C285.778 287.166 286.669 287.163 287.587 287.159C290.579 287.152 293.57 287.175 296.561 287.197C298.704 287.198 300.846 287.198 302.988 287.195C308.809 287.194 314.631 287.218 320.452 287.247C326.533 287.272 332.615 287.274 338.697 287.279C350.215 287.292 361.734 287.325 373.253 287.366C386.366 287.412 399.478 287.434 412.591 287.455C439.567 287.497 466.544 287.569 493.52 287.66C493.52 288.557 493.52 289.455 493.52 290.379C494.416 290.379 495.313 290.379 496.237 290.379C498.467 294.842 497.808 299.792 497.814 304.698C497.821 305.899 497.828 307.099 497.835 308.336C497.855 312.318 497.864 316.3 497.871 320.282C497.879 323.043 497.887 325.803 497.895 328.563C497.909 334.353 497.917 340.144 497.922 345.935C497.929 353.366 497.962 360.796 498.001 368.227C498.026 373.928 498.033 379.63 498.035 385.332C498.039 388.072 498.05 390.812 498.068 393.552C498.091 397.38 498.089 401.207 498.08 405.035C498.092 406.173 498.105 407.311 498.118 408.483C498.062 416.095 498.062 416.095 496.076 419.143C492.291 421.73 489.281 421.391 484.726 421.38C483.829 421.384 482.932 421.387 482.008 421.391C478.998 421.398 475.988 421.375 472.978 421.353C470.822 421.352 468.667 421.352 466.511 421.355C460.653 421.356 454.796 421.332 448.938 421.303C442.818 421.278 436.699 421.276 430.579 421.271C418.988 421.258 407.397 421.225 395.806 421.184C382.611 421.138 369.416 421.116 356.221 421.095C329.076 421.052 301.931 420.981 274.786 420.89C271.586 415.176 271.676 409.958 271.695 403.543C271.688 402.342 271.681 401.141 271.674 399.904C271.655 395.936 271.657 391.969 271.66 388.002C271.655 385.246 271.649 382.49 271.642 379.734C271.632 373.959 271.632 368.184 271.64 362.41C271.647 355 271.624 347.592 271.593 340.182C271.573 334.492 271.572 328.802 271.576 323.112C271.575 320.38 271.568 317.647 271.554 314.915C271.538 311.1 271.547 307.286 271.563 303.472C271.552 302.338 271.542 301.205 271.531 300.037C271.601 292.454 271.601 292.454 273.592 289.408C277.362 286.826 280.345 287.159 284.887 287.17ZM281.579 297.176C281.579 334.861 281.579 372.547 281.579 411.373C349.726 411.373 417.873 411.373 488.085 411.373C488.113 392.783 488.141 374.193 488.17 355.04C488.183 349.161 488.195 343.283 488.208 337.226C488.212 331.975 488.212 331.975 488.215 326.724C488.217 324.377 488.222 322.031 488.229 319.685C488.239 316.139 488.24 312.594 488.24 309.048C488.244 307.996 488.249 306.944 488.254 305.86C488.679 301.123 488.679 301.123 486.727 297.176C484.079 297.045 481.426 297.011 478.775 297.013C477.047 297.011 475.319 297.009 473.539 297.007C471.606 297.012 469.673 297.017 467.741 297.022C465.719 297.023 463.698 297.022 461.677 297.022C456.172 297.021 450.668 297.029 445.164 297.039C439.418 297.047 433.671 297.048 427.925 297.05C417.037 297.054 406.148 297.065 395.259 297.079C380.551 297.097 365.843 297.104 351.134 297.112C327.949 297.125 304.764 297.152 281.579 297.176Z"/>
<path d="M582.228 515.536C584.021 515.524 585.813 515.513 587.66 515.501C589.651 515.509 591.642 515.517 593.634 515.526C595.727 515.52 597.82 515.513 599.913 515.504C605.603 515.486 611.293 515.493 616.983 515.506C622.933 515.516 628.883 515.506 634.833 515.5C644.828 515.493 654.823 515.502 664.817 515.522C676.376 515.544 687.934 515.537 699.492 515.514C709.41 515.496 719.328 515.493 729.246 515.504C735.172 515.51 741.098 515.511 747.024 515.498C752.597 515.486 758.169 515.494 763.741 515.518C765.787 515.523 767.833 515.521 769.879 515.512C772.671 515.501 775.461 515.515 778.253 515.536C779.815 515.537 781.378 515.539 782.988 515.54C787.431 516.112 789.336 516.897 792.411 520.132C792.943 524.216 793.126 527.802 793.071 531.887C793.076 533.088 793.081 534.288 793.087 535.525C793.097 539.5 793.068 543.474 793.037 547.449C793.034 550.207 793.033 552.965 793.033 555.723C793.029 561.506 793.007 567.289 792.97 573.072C792.924 580.492 792.914 587.911 792.916 595.331C792.915 601.027 792.9 606.723 792.88 612.419C792.872 615.155 792.866 617.891 792.864 620.628C792.858 624.449 792.835 628.27 792.806 632.091C792.807 633.226 792.808 634.362 792.809 635.532C792.751 640.814 792.689 643.428 789.694 647.924C785.972 648.433 785.972 648.433 781.133 648.433C779.801 648.441 779.801 648.441 778.442 648.449C775.452 648.462 772.464 648.446 769.474 648.43C767.336 648.433 765.199 648.438 763.061 648.445C757.245 648.458 751.429 648.445 745.613 648.427C739.537 648.412 733.46 648.417 727.383 648.42C717.177 648.421 706.971 648.406 696.765 648.381C684.953 648.352 673.141 648.347 661.329 648.356C649.982 648.364 638.635 648.356 627.288 648.341C622.452 648.334 617.616 648.333 612.78 648.336C607.088 648.339 601.397 648.328 595.705 648.306C593.612 648.3 591.518 648.299 589.425 648.303C586.576 648.307 583.728 648.295 580.879 648.278C579.282 648.275 577.685 648.273 576.04 648.27C572.318 647.924 572.318 647.924 569.601 645.205C569.324 641.254 569.216 637.432 569.228 633.48C569.221 632.266 569.214 631.052 569.207 629.802C569.188 625.775 569.189 621.749 569.192 617.723C569.187 614.933 569.181 612.142 569.175 609.352C569.165 603.497 569.165 597.642 569.172 591.787C569.18 584.274 569.157 576.761 569.126 569.249C569.106 563.484 569.104 557.719 569.109 551.954C569.108 549.184 569.101 546.413 569.087 543.643C569.07 539.773 569.079 535.903 569.095 532.033C569.085 530.883 569.074 529.732 569.064 528.547C569.133 520.843 569.133 520.843 571.136 517.799C574.852 515.246 577.746 515.54 582.228 515.536ZM577.753 526.929C577.725 545.295 577.697 563.661 577.668 582.583C577.655 588.391 577.643 594.199 577.63 600.182C577.626 605.37 577.626 605.37 577.623 610.558C577.621 612.876 577.616 615.194 577.609 617.511C577.599 621.014 577.598 624.517 577.598 628.02C577.594 629.059 577.589 630.099 577.584 631.17C577.167 635.862 577.167 635.862 579.111 639.767C581.742 639.898 584.377 639.933 587.011 639.93C588.728 639.932 590.444 639.934 592.213 639.936C594.133 639.931 596.053 639.926 597.973 639.921C599.981 639.921 601.989 639.921 603.997 639.922C609.464 639.922 614.932 639.914 620.4 639.905C626.108 639.896 631.816 639.895 637.524 639.894C648.341 639.89 659.157 639.878 669.973 639.865C684.584 639.847 699.195 639.839 713.806 639.832C736.838 639.819 759.869 639.792 782.901 639.767C782.901 602.531 782.901 565.294 782.901 526.929C715.202 526.929 647.503 526.929 577.753 526.929Z"/>
<path d="M582.228 287.142C584.021 287.131 585.813 287.119 587.66 287.108C589.651 287.116 591.642 287.124 593.634 287.133C595.727 287.127 597.82 287.12 599.913 287.111C605.603 287.092 611.293 287.1 616.983 287.113C622.933 287.123 628.883 287.113 634.833 287.107C644.828 287.099 654.823 287.109 664.817 287.129C676.376 287.151 687.934 287.144 699.492 287.121C709.41 287.103 719.328 287.1 729.246 287.111C735.172 287.117 741.098 287.118 747.024 287.104C752.597 287.093 758.169 287.101 763.741 287.124C765.787 287.13 767.833 287.128 769.879 287.119C772.671 287.108 775.461 287.122 778.253 287.142C779.815 287.144 781.378 287.146 782.988 287.147C787.429 287.719 789.332 288.511 792.411 291.739C792.95 295.728 793.14 299.209 793.093 303.201C793.104 304.956 793.104 304.956 793.115 306.746C793.132 310.619 793.109 314.492 793.085 318.366C793.085 321.056 793.087 323.747 793.091 326.437C793.093 332.081 793.076 337.724 793.045 343.367C793.006 350.598 793.01 357.828 793.027 365.059C793.037 370.618 793.026 376.176 793.009 381.734C793.003 384.4 793.003 387.066 793.008 389.731C793.012 393.461 792.989 397.19 792.96 400.919C792.966 402.02 792.972 403.12 792.978 404.254C792.895 410.553 792.352 414.617 788.335 419.531C784.468 420.378 784.468 420.378 779.662 420.375C778.779 420.384 777.895 420.393 776.985 420.402C774.017 420.423 771.053 420.395 768.086 420.367C765.961 420.372 763.837 420.379 761.713 420.39C755.939 420.409 750.165 420.386 744.391 420.354C738.356 420.327 732.321 420.335 726.286 420.338C716.152 420.338 706.019 420.311 695.885 420.267C684.156 420.217 672.429 420.205 660.7 420.215C649.431 420.223 638.162 420.209 626.893 420.182C622.091 420.171 617.289 420.167 612.486 420.17C606.836 420.171 601.186 420.152 595.536 420.116C593.458 420.107 591.38 420.104 589.302 420.108C586.473 420.113 583.647 420.093 580.818 420.067C578.441 420.059 578.441 420.059 576.015 420.051C574.795 419.88 573.575 419.708 572.318 419.531C568.797 414.246 569.21 409.827 569.228 403.697C569.221 402.497 569.214 401.296 569.207 400.059C569.188 396.084 569.189 392.11 569.192 388.135C569.187 385.377 569.181 382.619 569.175 379.861C569.165 374.078 569.165 368.295 569.172 362.512C569.18 355.093 569.157 347.673 569.126 340.253C569.106 334.557 569.104 328.861 569.109 323.165C569.108 320.429 569.101 317.693 569.087 314.957C569.07 311.135 569.079 307.315 569.095 303.494C569.085 302.358 569.074 301.222 569.064 300.052C569.133 292.448 569.133 292.448 571.136 289.409C574.851 286.852 577.743 287.147 582.228 287.142ZM577.753 298.536C577.616 302.004 577.568 305.434 577.577 308.902C577.574 309.988 577.572 311.073 577.57 312.191C577.564 315.796 577.568 319.402 577.572 323.007C577.571 325.501 577.57 327.995 577.568 330.49C577.566 335.724 577.569 340.958 577.576 346.193C577.583 352.918 577.579 359.643 577.571 366.368C577.566 371.521 577.567 376.673 577.571 381.825C577.572 384.306 577.571 386.786 577.567 389.267C577.564 392.727 577.569 396.188 577.577 399.648C577.574 400.683 577.571 401.719 577.569 402.786C577.164 407.473 577.164 407.473 579.111 411.374C581.742 411.505 584.377 411.539 587.011 411.537C588.728 411.539 590.444 411.541 592.213 411.543C594.133 411.538 596.053 411.533 597.973 411.528C599.981 411.528 601.989 411.528 603.997 411.529C609.464 411.529 614.932 411.521 620.4 411.512C626.108 411.503 631.816 411.502 637.524 411.501C648.341 411.496 659.157 411.485 669.973 411.472C684.584 411.454 699.195 411.446 713.806 411.438C736.838 411.425 759.869 411.398 782.901 411.374C782.901 373.689 782.901 336.004 782.901 297.177C746.714 297.137 746.714 297.137 710.526 297.11C695.778 297.102 681.03 297.093 666.282 297.074C655.543 297.061 644.804 297.052 634.065 297.049C628.375 297.047 622.686 297.043 616.996 297.033C611.647 297.024 606.298 297.021 600.948 297.023C598.979 297.023 597.01 297.02 595.042 297.015C592.365 297.008 589.688 297.01 587.011 297.013C585.51 297.012 584.008 297.011 582.461 297.009C579.187 296.797 579.187 296.797 577.753 298.536Z"/>
</mask>
<path fill-rule="evenodd" clip-rule="evenodd" d="M20.1334 96.2281C34.3184 82.7776 53.4977 73.0366 72.5561 83.244C78.2206 87.4174 81.5586 89.9233 82.6819 97.1508C82.7015 99.2333 82.6843 101.317 82.6368 103.399C82.6378 104.54 82.6384 105.681 82.6394 106.857C82.6347 110.617 82.5813 114.375 82.528 118.134C82.5153 120.745 82.5069 123.357 82.5001 125.968C82.4742 132.832 82.4068 139.695 82.3316 146.558C82.262 153.566 82.2305 160.575 82.1963 167.583C82.1235 181.326 82.0076 195.068 81.8646 208.811C83.4323 208.809 85.0005 208.806 86.6157 208.804C155.709 208.713 224.804 208.629 293.897 208.58C294.943 208.579 295.989 208.578 297.067 208.577C319.798 208.561 342.529 208.546 365.261 208.532C376.408 208.525 387.556 208.519 398.703 208.512C400.366 208.511 400.366 208.51 402.063 208.509C438.022 208.486 473.982 208.445 509.941 208.395C546.891 208.344 583.842 208.311 620.792 208.3C626.011 208.298 631.229 208.296 636.448 208.294C637.475 208.294 638.502 208.293 639.56 208.293C656.097 208.286 672.633 208.261 689.169 208.229C705.792 208.197 722.414 208.185 739.037 208.193C748.044 208.197 757.051 208.191 766.059 208.161C774.303 208.135 782.547 208.134 790.791 208.152C793.775 208.154 796.759 208.148 799.743 208.131C803.798 208.109 807.852 208.122 811.907 208.142C813.647 208.12 813.648 208.12 815.423 208.098C826.358 208.22 836.115 211.986 844.037 219.687C853.476 231.56 852.583 244.682 852.543 259.144C852.547 261.23 852.553 263.317 852.559 265.403C852.573 271.121 852.57 276.84 852.564 282.558C852.561 288.731 852.574 294.904 852.584 301.077C852.601 313.163 852.603 325.25 852.6 337.337C852.598 347.161 852.6 356.986 852.605 366.81C852.606 368.208 852.607 369.607 852.608 371.048C852.61 373.889 852.612 376.731 852.613 379.572C852.628 406.213 852.626 432.853 852.617 459.493C852.61 483.862 852.625 508.231 852.65 532.6C852.677 557.627 852.689 582.654 852.684 607.681C852.681 621.73 852.684 635.779 852.704 649.828C852.72 661.786 852.721 673.745 852.705 685.704C852.697 691.804 852.695 697.905 852.711 704.005C852.726 709.593 852.723 715.181 852.704 720.768C852.7 722.786 852.703 724.804 852.714 726.822C852.768 737.662 852.293 746.619 848.113 756.684H845.396L844.462 758.978C840.934 765.198 834.73 771.805 827.669 773.772C822.137 774.578 816.701 774.545 811.118 774.531C809.845 774.534 808.571 774.537 807.26 774.539C802.969 774.546 798.678 774.543 794.387 774.539C791.29 774.542 788.191 774.545 785.093 774.549C776.561 774.557 768.028 774.556 759.496 774.554C751.246 774.554 742.995 774.56 734.744 774.566C715.778 774.579 696.811 774.584 677.844 774.585C663.194 774.585 648.544 774.587 633.894 774.591C629.678 774.592 625.463 774.594 621.247 774.595C620.199 774.595 619.151 774.596 618.071 774.596C588.584 774.605 559.098 774.61 529.611 774.61C528.499 774.61 527.387 774.61 526.241 774.61C520.605 774.61 514.968 774.609 509.332 774.608H499.147C463.941 774.608 428.734 774.618 393.527 774.636C353.976 774.657 314.424 774.669 274.873 774.668H259.067C242.359 774.668 225.652 774.676 208.944 774.688C192.144 774.7 175.344 774.701 158.544 774.692C149.446 774.687 140.346 774.687 131.248 774.699C122.914 774.709 114.58 774.708 106.246 774.696C103.236 774.694 100.226 774.696 97.2151 774.704C57.106 774.798 57.1049 774.799 42.2955 766.88C41.386 766.405 40.4768 765.929 39.5398 765.44C22.6806 756.229 11.446 742.884 4.67934 724.906C0.208773 708.975 -0.0435191 692.753 0.0131473 676.348C0.0109851 674.056 0.00828499 671.764 0.00385998 669.471C-0.00478916 663.222 0.00340611 656.971 0.014474 650.721C0.0234588 643.962 0.0165791 637.202 0.0118205 630.443C0.00499077 617.222 0.012495 604.001 0.025088 590.78C0.0392341 575.372 0.0390154 559.963 0.0383556 544.555C0.0376763 517.058 0.050445 489.561 0.0701977 462.064C0.0893402 435.403 0.0989599 408.742 0.0980595 382.08C0.0980052 380.438 0.0981154 378.795 0.0980595 377.103C0.0979773 374.643 0.0968167 374.643 0.0967328 372.134C0.0957948 341.748 0.104475 311.362 0.116634 280.976C0.120726 270.244 0.122652 259.512 0.123268 248.78C0.124196 235.698 0.129386 222.615 0.141842 209.533C0.1481 202.862 0.152845 196.191 0.15113 189.52C0.149635 183.407 0.154628 177.295 0.164397 171.182C0.166846 168.977 0.166736 166.772 0.164397 164.568C0.139805 138.481 0.919983 115.914 20.1334 96.2281ZM831.295 221.269C826.331 217.702 821.777 218.138 815.882 218.156C814.781 218.154 813.679 218.151 812.544 218.149C808.812 218.144 805.081 218.15 801.349 218.155C798.661 218.153 795.974 218.151 793.286 218.148C785.867 218.142 778.449 218.145 771.03 218.149C763.037 218.152 755.044 218.148 747.051 218.144C732.268 218.138 717.484 218.139 702.701 218.143C688.999 218.146 675.297 218.147 661.595 218.145C660.686 218.145 659.776 218.144 658.839 218.144C655.146 218.143 651.453 218.143 647.76 218.143C613.042 218.138 578.323 218.143 543.606 218.151C512.923 218.157 482.241 218.156 451.558 218.149C417.016 218.142 382.473 218.14 347.931 218.144C344.221 218.144 340.511 218.145 336.802 218.145C335.889 218.145 334.975 218.145 334.034 218.145C320.41 218.147 306.786 218.145 293.162 218.141C188.865 218.109 188.864 218.11 84.5818 219.687V287.661L108.214 287.863C113.148 287.911 118.083 287.96 123.018 288.011C130.854 288.094 138.691 288.173 146.527 288.235C152.843 288.285 159.158 288.347 165.474 288.419C167.886 288.444 170.298 288.464 172.71 288.48C176.084 288.503 179.457 288.543 182.831 288.586C183.832 288.589 184.834 288.593 185.866 288.596C190.882 288.678 193.058 288.879 197.345 291.739C197.748 295.613 197.888 299.191 197.852 303.068C197.857 304.24 197.862 305.412 197.867 306.619C197.878 310.507 197.859 314.394 197.839 318.281C197.838 320.977 197.839 323.672 197.841 326.368C197.841 332.025 197.828 337.683 197.803 343.34C197.772 350.594 197.771 357.847 197.78 365.1C197.785 370.67 197.775 376.241 197.762 381.811C197.757 384.485 197.756 387.159 197.758 389.834C197.758 393.573 197.741 397.313 197.719 401.052C197.723 402.16 197.725 403.267 197.729 404.408C197.675 410.072 197.223 412.978 194.628 418.172L83.2232 419.531V517.414L107.497 517.664C112.562 517.719 117.627 517.774 122.691 517.831C130.736 517.921 138.782 518.01 146.826 518.09C153.31 518.155 159.793 518.226 166.277 518.301C168.754 518.329 171.232 518.355 173.709 518.378C177.171 518.411 180.632 518.451 184.094 518.494C185.126 518.502 186.158 518.51 187.221 518.518C194.319 518.618 194.318 518.619 197.345 520.133C197.44 536.193 197.513 552.252 197.558 568.311C197.579 575.768 197.607 583.225 197.653 590.682C197.697 597.875 197.722 605.068 197.733 612.261C197.74 615.009 197.755 617.756 197.776 620.503C197.806 624.344 197.81 628.186 197.808 632.027C197.823 633.169 197.838 634.311 197.853 635.488C197.812 643.208 197.812 643.208 195.643 646.178C192.678 648.36 191.084 648.431 187.425 648.424C185.636 648.436 185.636 648.435 183.811 648.447C182.507 648.434 181.202 648.423 179.859 648.41C177.794 648.414 177.794 648.413 175.687 648.418C171.129 648.422 166.57 648.397 162.011 648.371C158.853 648.367 155.694 648.364 152.535 648.363C145.914 648.357 139.292 648.338 132.67 648.308C124.161 648.269 115.652 648.254 107.143 648.248C100.622 648.242 94.0993 648.228 87.5776 648.212C84.4392 648.204 81.3001 648.198 78.1616 648.193C73.7864 648.184 69.4113 648.166 65.036 648.144C63.7261 648.143 62.416 648.14 61.0664 648.139C59.8816 648.131 58.6969 648.123 57.4762 648.115C55.9231 648.109 55.9229 648.109 54.3384 648.103C51.9761 647.924 51.9755 647.925 50.6169 646.566C50.3018 644.507 50.0569 642.436 49.8527 640.363L49.5077 636.959L49.2583 634.33C34.9335 638.81 24.5047 651.433 17.1349 663.958C8.43377 680.945 8.29884 703.916 13.887 722.07C16.3353 727.894 19.5151 732.727 23.445 737.651L25.865 740.79C37.4469 754.873 51.2279 761.736 69.1782 763.921C83.9046 765.158 98.6257 765.038 113.394 765.031C116.456 765.034 119.519 765.04 122.581 765.044C130.965 765.055 139.349 765.056 147.733 765.057C155.855 765.06 163.978 765.069 172.101 765.077C193.836 765.099 215.571 765.107 237.306 765.113C247.59 765.116 257.874 765.121 268.158 765.127C303.373 765.144 338.588 765.159 373.804 765.164C376.011 765.164 378.219 765.165 380.427 765.165C382.639 765.165 384.852 765.165 387.064 765.165C391.503 765.166 395.942 765.167 400.381 765.168C401.482 765.168 402.583 765.168 403.717 765.168C439.445 765.173 475.173 765.194 510.901 765.226C548.694 765.26 586.488 765.278 624.282 765.279C628.428 765.279 632.574 765.28 636.72 765.281C638.251 765.281 638.252 765.28 639.814 765.281C656.25 765.282 672.685 765.297 689.121 765.316C705.627 765.336 722.134 765.341 738.64 765.33C747.584 765.324 756.528 765.327 765.472 765.346C773.654 765.363 781.835 765.361 790.017 765.344C792.982 765.342 795.947 765.346 798.912 765.358C802.933 765.373 806.953 765.362 810.974 765.346C812.132 765.356 813.291 765.367 814.484 765.377C821.711 765.314 826.706 764.037 833.168 760.763V758.044L837.244 756.684C844.053 746.831 843.441 736.874 843.361 725.261C843.366 723.161 843.373 721.061 843.383 718.961C843.403 713.207 843.389 707.453 843.37 701.699C843.355 695.487 843.371 689.275 843.383 683.063C843.402 670.901 843.392 658.74 843.371 646.578C843.348 632.414 843.353 618.25 843.358 604.087C843.366 578.817 843.346 553.547 843.313 528.277C843.28 503.755 843.271 479.234 843.285 454.712C843.3 428.009 843.303 401.305 843.284 374.602C843.281 371.755 843.279 368.907 843.277 366.06C843.276 364.659 843.275 363.259 843.274 361.815C843.268 351.942 843.27 342.069 843.276 332.196C843.282 320.166 843.275 308.135 843.248 296.105C843.234 289.966 843.228 283.828 843.238 277.689C843.248 272.07 843.239 266.45 843.215 260.831C843.209 258.798 843.21 256.766 843.219 254.733C843.608 238.758 843.608 238.758 836.22 225.178L833.763 223.255L831.295 221.269ZM65.5614 90.5353C52.0607 89.2098 40.966 91.5508 30.2379 100.052V102.771C26.1628 104.13 26.162 104.13 23.5776 106.865L20.8127 110.503C10.3941 123.741 9.0538 140.791 9.18102 157.045C9.1982 159.111 9.20453 161.178 9.20225 163.244C9.18378 168.984 9.18492 174.723 9.21153 180.463C9.24077 186.721 9.24685 192.979 9.24338 199.237C9.23633 210.092 9.24379 220.947 9.27256 231.801C9.31676 247.62 9.34074 263.438 9.34819 279.257C9.35921 304.903 9.38888 330.55 9.43974 356.196C9.4897 381.18 9.53286 406.165 9.55649 431.149C9.55796 432.74 9.55904 434.285 9.56047 435.829C9.56765 443.585 9.5749 451.341 9.5817 459.097C9.63903 524.759 9.73454 590.421 9.85899 656.082H12.5762C20.3168 640.591 34.7108 628.636 50.6169 622.095L73.713 616.657V95.9732H69.6372V93.2543L65.5614 90.5353ZM82.6288 575.023C82.5459 582.126 82.4645 589.229 82.3714 596.332C82.3452 598.246 82.3195 600.16 82.2945 602.074C82.2612 605.178 82.2284 608.282 82.1857 611.385C82.1716 612.371 82.1582 613.328 82.1445 614.284C82.0899 618.705 82.4834 622.216 80.506 626.173L76.3082 626.688C70.5227 626.965 64.0151 626.267 58.7685 628.892V638.409H189.194V526.931H83.2232L82.6288 575.023ZM84.5818 298.537V410.015H189.194V298.537H84.5818Z" fill="#040504"/>
<path d="M274.786 516.054C278.5 515.54 278.5 515.54 283.328 515.536C284.214 515.529 285.101 515.523 286.014 515.516C288.997 515.5 291.979 515.513 294.962 515.526C297.096 515.52 299.229 515.513 301.362 515.504C307.167 515.486 312.972 515.493 318.777 515.506C324.845 515.516 330.913 515.506 336.981 515.5C347.176 515.493 357.37 515.502 367.565 515.522C379.356 515.544 391.146 515.537 402.936 515.514C413.051 515.496 423.165 515.493 433.279 515.504C439.324 515.51 445.368 515.511 451.413 515.498C457.098 515.486 462.782 515.494 468.467 515.518C470.555 515.523 472.643 515.521 474.73 515.512C477.579 515.501 480.425 515.515 483.274 515.536C485.665 515.538 485.665 515.538 488.105 515.54C492.59 516.108 494.503 516.858 497.596 520.132C498.12 524.257 498.297 527.887 498.234 532.012C498.237 533.226 498.24 534.44 498.243 535.69C498.246 539.71 498.211 543.728 498.174 547.747C498.167 550.535 498.163 553.324 498.16 556.112C498.15 561.959 498.122 567.806 498.08 573.653C498.026 581.155 498.002 588.656 497.989 596.159C497.975 603.303 497.948 610.446 497.919 617.59C497.915 618.958 497.91 620.326 497.905 621.735C497.89 625.599 497.864 629.462 497.836 633.325C497.832 634.474 497.829 635.622 497.825 636.805C497.783 641.303 497.668 644.987 496.237 649.283C467.41 649.379 438.584 649.45 409.757 649.495C396.373 649.516 382.989 649.544 369.605 649.591C357.943 649.632 346.281 649.658 334.619 649.667C328.441 649.672 322.263 649.685 316.085 649.715C310.275 649.742 304.466 649.751 298.656 649.745C296.519 649.746 294.382 649.754 292.245 649.77C289.336 649.79 286.428 649.785 283.52 649.774C281.889 649.778 280.259 649.781 278.579 649.785C277.327 649.62 276.075 649.454 274.786 649.283C271.245 643.968 271.687 639.491 271.717 633.325C271.712 632.111 271.707 630.897 271.703 629.647C271.691 625.628 271.698 621.609 271.708 617.59C271.706 614.802 271.703 612.013 271.7 609.225C271.696 603.378 271.702 597.531 271.714 591.684C271.73 584.182 271.721 576.68 271.705 569.178C271.695 563.419 271.698 557.66 271.705 551.901C271.707 549.135 271.705 546.368 271.698 543.602C271.691 539.738 271.702 535.875 271.717 532.012C271.711 530.863 271.706 529.715 271.7 528.531C271.739 523.218 271.773 520.575 274.786 516.054ZM281.579 526.929C281.579 564.166 281.579 601.402 281.579 639.767C349.726 639.767 417.873 639.767 488.085 639.767C488.085 602.531 488.085 565.294 488.085 526.929C419.938 526.929 351.791 526.929 281.579 526.929Z" fill="#040504"/>
<path d="M284.887 287.17C285.778 287.166 286.669 287.163 287.587 287.159C290.579 287.152 293.57 287.175 296.561 287.197C298.704 287.198 300.846 287.198 302.988 287.195C308.809 287.194 314.631 287.218 320.452 287.247C326.533 287.272 332.615 287.274 338.697 287.279C350.215 287.292 361.734 287.325 373.253 287.366C386.366 287.412 399.478 287.434 412.591 287.455C439.567 287.497 466.544 287.569 493.52 287.66C493.52 288.557 493.52 289.455 493.52 290.379C494.416 290.379 495.313 290.379 496.237 290.379C498.467 294.842 497.808 299.792 497.814 304.698C497.821 305.899 497.828 307.099 497.835 308.336C497.855 312.318 497.864 316.3 497.871 320.282C497.879 323.043 497.887 325.803 497.895 328.563C497.909 334.353 497.917 340.144 497.922 345.935C497.929 353.366 497.962 360.796 498.001 368.227C498.026 373.928 498.033 379.63 498.035 385.332C498.039 388.072 498.05 390.812 498.068 393.552C498.091 397.38 498.089 401.207 498.08 405.035C498.092 406.173 498.105 407.311 498.118 408.483C498.062 416.095 498.062 416.095 496.076 419.143C492.291 421.73 489.281 421.391 484.726 421.38C483.829 421.384 482.932 421.387 482.008 421.391C478.998 421.398 475.988 421.375 472.978 421.353C470.822 421.352 468.667 421.352 466.511 421.355C460.653 421.356 454.796 421.332 448.938 421.303C442.818 421.278 436.699 421.276 430.579 421.271C418.988 421.258 407.397 421.225 395.806 421.184C382.611 421.138 369.416 421.116 356.221 421.095C329.076 421.052 301.931 420.981 274.786 420.89C271.586 415.176 271.676 409.958 271.695 403.543C271.688 402.342 271.681 401.141 271.674 399.904C271.655 395.936 271.657 391.969 271.66 388.002C271.655 385.246 271.649 382.49 271.642 379.734C271.632 373.959 271.632 368.184 271.64 362.41C271.647 355 271.624 347.592 271.593 340.182C271.573 334.492 271.572 328.802 271.576 323.112C271.575 320.38 271.568 317.647 271.554 314.915C271.538 311.1 271.547 307.286 271.563 303.472C271.552 302.338 271.542 301.205 271.531 300.037C271.601 292.454 271.601 292.454 273.592 289.408C277.362 286.826 280.345 287.159 284.887 287.17ZM281.579 297.176C281.579 334.861 281.579 372.547 281.579 411.373C349.726 411.373 417.873 411.373 488.085 411.373C488.113 392.783 488.141 374.193 488.17 355.04C488.183 349.161 488.195 343.283 488.208 337.226C488.212 331.975 488.212 331.975 488.215 326.724C488.217 324.377 488.222 322.031 488.229 319.685C488.239 316.139 488.24 312.594 488.24 309.048C488.244 307.996 488.249 306.944 488.254 305.86C488.679 301.123 488.679 301.123 486.727 297.176C484.079 297.045 481.426 297.011 478.775 297.013C477.047 297.011 475.319 297.009 473.539 297.007C471.606 297.012 469.673 297.017 467.741 297.022C465.719 297.023 463.698 297.022 461.677 297.022C456.172 297.021 450.668 297.029 445.164 297.039C439.418 297.047 433.671 297.048 427.925 297.05C417.037 297.054 406.148 297.065 395.259 297.079C380.551 297.097 365.843 297.104 351.134 297.112C327.949 297.125 304.764 297.152 281.579 297.176Z" fill="#040504"/>
<path d="M582.228 515.536C584.021 515.524 585.813 515.513 587.66 515.501C589.651 515.509 591.642 515.517 593.634 515.526C595.727 515.52 597.82 515.513 599.913 515.504C605.603 515.486 611.293 515.493 616.983 515.506C622.933 515.516 628.883 515.506 634.833 515.5C644.828 515.493 654.823 515.502 664.817 515.522C676.376 515.544 687.934 515.537 699.492 515.514C709.41 515.496 719.328 515.493 729.246 515.504C735.172 515.51 741.098 515.511 747.024 515.498C752.597 515.486 758.169 515.494 763.741 515.518C765.787 515.523 767.833 515.521 769.879 515.512C772.671 515.501 775.461 515.515 778.253 515.536C779.815 515.537 781.378 515.539 782.988 515.54C787.431 516.112 789.336 516.897 792.411 520.132C792.943 524.216 793.126 527.802 793.071 531.887C793.076 533.088 793.081 534.288 793.087 535.525C793.097 539.5 793.068 543.474 793.037 547.449C793.034 550.207 793.033 552.965 793.033 555.723C793.029 561.506 793.007 567.289 792.97 573.072C792.924 580.492 792.914 587.911 792.916 595.331C792.915 601.027 792.9 606.723 792.88 612.419C792.872 615.155 792.866 617.891 792.864 620.628C792.858 624.449 792.835 628.27 792.806 632.091C792.807 633.226 792.808 634.362 792.809 635.532C792.751 640.814 792.689 643.428 789.694 647.924C785.972 648.433 785.972 648.433 781.133 648.433C779.801 648.441 779.801 648.441 778.442 648.449C775.452 648.462 772.464 648.446 769.474 648.43C767.336 648.433 765.199 648.438 763.061 648.445C757.245 648.458 751.429 648.445 745.613 648.427C739.537 648.412 733.46 648.417 727.383 648.42C717.177 648.421 706.971 648.406 696.765 648.381C684.953 648.352 673.141 648.347 661.329 648.356C649.982 648.364 638.635 648.356 627.288 648.341C622.452 648.334 617.616 648.333 612.78 648.336C607.088 648.339 601.397 648.328 595.705 648.306C593.612 648.3 591.518 648.299 589.425 648.303C586.576 648.307 583.728 648.295 580.879 648.278C579.282 648.275 577.685 648.273 576.04 648.27C572.318 647.924 572.318 647.924 569.601 645.205C569.324 641.254 569.216 637.432 569.228 633.48C569.221 632.266 569.214 631.052 569.207 629.802C569.188 625.775 569.189 621.749 569.192 617.723C569.187 614.933 569.181 612.142 569.175 609.352C569.165 603.497 569.165 597.642 569.172 591.787C569.18 584.274 569.157 576.761 569.126 569.249C569.106 563.484 569.104 557.719 569.109 551.954C569.108 549.184 569.101 546.413 569.087 543.643C569.07 539.773 569.079 535.903 569.095 532.033C569.085 530.883 569.074 529.732 569.064 528.547C569.133 520.843 569.133 520.843 571.136 517.799C574.852 515.246 577.746 515.54 582.228 515.536ZM577.753 526.929C577.725 545.295 577.697 563.661 577.668 582.583C577.655 588.391 577.643 594.199 577.63 600.182C577.626 605.37 577.626 605.37 577.623 610.558C577.621 612.876 577.616 615.194 577.609 617.511C577.599 621.014 577.598 624.517 577.598 628.02C577.594 629.059 577.589 630.099 577.584 631.17C577.167 635.862 577.167 635.862 579.111 639.767C581.742 639.898 584.377 639.933 587.011 639.93C588.728 639.932 590.444 639.934 592.213 639.936C594.133 639.931 596.053 639.926 597.973 639.921C599.981 639.921 601.989 639.921 603.997 639.922C609.464 639.922 614.932 639.914 620.4 639.905C626.108 639.896 631.816 639.895 637.524 639.894C648.341 639.89 659.157 639.878 669.973 639.865C684.584 639.847 699.195 639.839 713.806 639.832C736.838 639.819 759.869 639.792 782.901 639.767C782.901 602.531 782.901 565.294 782.901 526.929C715.202 526.929 647.503 526.929 577.753 526.929Z" fill="#040504"/>
<path d="M582.228 287.142C584.021 287.131 585.813 287.119 587.66 287.108C589.651 287.116 591.642 287.124 593.634 287.133C595.727 287.127 597.82 287.12 599.913 287.111C605.603 287.092 611.293 287.1 616.983 287.113C622.933 287.123 628.883 287.113 634.833 287.107C644.828 287.099 654.823 287.109 664.817 287.129C676.376 287.151 687.934 287.144 699.492 287.121C709.41 287.103 719.328 287.1 729.246 287.111C735.172 287.117 741.098 287.118 747.024 287.104C752.597 287.093 758.169 287.101 763.741 287.124C765.787 287.13 767.833 287.128 769.879 287.119C772.671 287.108 775.461 287.122 778.253 287.142C779.815 287.144 781.378 287.146 782.988 287.147C787.429 287.719 789.332 288.511 792.411 291.739C792.95 295.728 793.14 299.209 793.093 303.201C793.104 304.956 793.104 304.956 793.115 306.746C793.132 310.619 793.109 314.492 793.085 318.366C793.085 321.056 793.087 323.747 793.091 326.437C793.093 332.081 793.076 337.724 793.045 343.367C793.006 350.598 793.01 357.828 793.027 365.059C793.037 370.618 793.026 376.176 793.009 381.734C793.003 384.4 793.003 387.066 793.008 389.731C793.012 393.461 792.989 397.19 792.96 400.919C792.966 402.02 792.972 403.12 792.978 404.254C792.895 410.553 792.352 414.617 788.335 419.531C784.468 420.378 784.468 420.378 779.662 420.375C778.779 420.384 777.895 420.393 776.985 420.402C774.017 420.423 771.053 420.395 768.086 420.367C765.961 420.372 763.837 420.379 761.713 420.39C755.939 420.409 750.165 420.386 744.391 420.354C738.356 420.327 732.321 420.335 726.286 420.338C716.152 420.338 706.019 420.311 695.885 420.267C684.156 420.217 672.429 420.205 660.7 420.215C649.431 420.223 638.162 420.209 626.893 420.182C622.091 420.171 617.289 420.167 612.486 420.17C606.836 420.171 601.186 420.152 595.536 420.116C593.458 420.107 591.38 420.104 589.302 420.108C586.473 420.113 583.647 420.093 580.818 420.067C578.441 420.059 578.441 420.059 576.015 420.051C574.795 419.88 573.575 419.708 572.318 419.531C568.797 414.246 569.21 409.827 569.228 403.697C569.221 402.497 569.214 401.296 569.207 400.059C569.188 396.084 569.189 392.11 569.192 388.135C569.187 385.377 569.181 382.619 569.175 379.861C569.165 374.078 569.165 368.295 569.172 362.512C569.18 355.093 569.157 347.673 569.126 340.253C569.106 334.557 569.104 328.861 569.109 323.165C569.108 320.429 569.101 317.693 569.087 314.957C569.07 311.135 569.079 307.315 569.095 303.494C569.085 302.358 569.074 301.222 569.064 300.052C569.133 292.448 569.133 292.448 571.136 289.409C574.851 286.852 577.743 287.147 582.228 287.142ZM577.753 298.536C577.616 302.004 577.568 305.434 577.577 308.902C577.574 309.988 577.572 311.073 577.57 312.191C577.564 315.796 577.568 319.402 577.572 323.007C577.571 325.501 577.57 327.995 577.568 330.49C577.566 335.724 577.569 340.958 577.576 346.193C577.583 352.918 577.579 359.643 577.571 366.368C577.566 371.521 577.567 376.673 577.571 381.825C577.572 384.306 577.571 386.786 577.567 389.267C577.564 392.727 577.569 396.188 577.577 399.648C577.574 400.683 577.571 401.719 577.569 402.786C577.164 407.473 577.164 407.473 579.111 411.374C581.742 411.505 584.377 411.539 587.011 411.537C588.728 411.539 590.444 411.541 592.213 411.543C594.133 411.538 596.053 411.533 597.973 411.528C599.981 411.528 601.989 411.528 603.997 411.529C609.464 411.529 614.932 411.521 620.4 411.512C626.108 411.503 631.816 411.502 637.524 411.501C648.341 411.496 659.157 411.485 669.973 411.472C684.584 411.454 699.195 411.446 713.806 411.438C736.838 411.425 759.869 411.398 782.901 411.374C782.901 373.689 782.901 336.004 782.901 297.177C746.714 297.137 746.714 297.137 710.526 297.11C695.778 297.102 681.03 297.093 666.282 297.074C655.543 297.061 644.804 297.052 634.065 297.049C628.375 297.047 622.686 297.043 616.996 297.033C611.647 297.024 606.298 297.021 600.948 297.023C598.979 297.023 597.01 297.02 595.042 297.015C592.365 297.008 589.688 297.01 587.011 297.013C585.51 297.012 584.008 297.011 582.461 297.009C579.187 296.797 579.187 296.797 577.753 298.536Z" fill="#040504"/>
<path fill-rule="evenodd" clip-rule="evenodd" d="M20.1334 96.2281C34.3184 82.7776 53.4977 73.0366 72.5561 83.244C78.2206 87.4174 81.5586 89.9233 82.6819 97.1508C82.7015 99.2333 82.6843 101.317 82.6368 103.399C82.6378 104.54 82.6384 105.681 82.6394 106.857C82.6347 110.617 82.5813 114.375 82.528 118.134C82.5153 120.745 82.5069 123.357 82.5001 125.968C82.4742 132.832 82.4068 139.695 82.3316 146.558C82.262 153.566 82.2305 160.575 82.1963 167.583C82.1235 181.326 82.0076 195.068 81.8646 208.811C83.4323 208.809 85.0005 208.806 86.6157 208.804C155.709 208.713 224.804 208.629 293.897 208.58C294.943 208.579 295.989 208.578 297.067 208.577C319.798 208.561 342.529 208.546 365.261 208.532C376.408 208.525 387.556 208.519 398.703 208.512C400.366 208.511 400.366 208.51 402.063 208.509C438.022 208.486 473.982 208.445 509.941 208.395C546.891 208.344 583.842 208.311 620.792 208.3C626.011 208.298 631.229 208.296 636.448 208.294C637.475 208.294 638.502 208.293 639.56 208.293C656.097 208.286 672.633 208.261 689.169 208.229C705.792 208.197 722.414 208.185 739.037 208.193C748.044 208.197 757.051 208.191 766.059 208.161C774.303 208.135 782.547 208.134 790.791 208.152C793.775 208.154 796.759 208.148 799.743 208.131C803.798 208.109 807.852 208.122 811.907 208.142C813.647 208.12 813.648 208.12 815.423 208.098C826.358 208.22 836.115 211.986 844.037 219.687C853.476 231.56 852.583 244.682 852.543 259.144C852.547 261.23 852.553 263.317 852.559 265.403C852.573 271.121 852.57 276.84 852.564 282.558C852.561 288.731 852.574 294.904 852.584 301.077C852.601 313.163 852.603 325.25 852.6 337.337C852.598 347.161 852.6 356.986 852.605 366.81C852.606 368.208 852.607 369.607 852.608 371.048C852.61 373.889 852.612 376.731 852.613 379.572C852.628 406.213 852.626 432.853 852.617 459.493C852.61 483.862 852.625 508.231 852.65 532.6C852.677 557.627 852.689 582.654 852.684 607.681C852.681 621.73 852.684 635.779 852.704 649.828C852.72 661.786 852.721 673.745 852.705 685.704C852.697 691.804 852.695 697.905 852.711 704.005C852.726 709.593 852.723 715.181 852.704 720.768C852.7 722.786 852.703 724.804 852.714 726.822C852.768 737.662 852.293 746.619 848.113 756.684H845.396L844.462 758.978C840.934 765.198 834.73 771.805 827.669 773.772C822.137 774.578 816.701 774.545 811.118 774.531C809.845 774.534 808.571 774.537 807.26 774.539C802.969 774.546 798.678 774.543 794.387 774.539C791.29 774.542 788.191 774.545 785.093 774.549C776.561 774.557 768.028 774.556 759.496 774.554C751.246 774.554 742.995 774.56 734.744 774.566C715.778 774.579 696.811 774.584 677.844 774.585C663.194 774.585 648.544 774.587 633.894 774.591C629.678 774.592 625.463 774.594 621.247 774.595C620.199 774.595 619.151 774.596 618.071 774.596C588.584 774.605 559.098 774.61 529.611 774.61C528.499 774.61 527.387 774.61 526.241 774.61C520.605 774.61 514.968 774.609 509.332 774.608H499.147C463.941 774.608 428.734 774.618 393.527 774.636C353.976 774.657 314.424 774.669 274.873 774.668H259.067C242.359 774.668 225.652 774.676 208.944 774.688C192.144 774.7 175.344 774.701 158.544 774.692C149.446 774.687 140.346 774.687 131.248 774.699C122.914 774.709 114.58 774.708 106.246 774.696C103.236 774.694 100.226 774.696 97.2151 774.704C57.106 774.798 57.1049 774.799 42.2955 766.88C41.386 766.405 40.4768 765.929 39.5398 765.44C22.6806 756.229 11.446 742.884 4.67934 724.906C0.208773 708.975 -0.0435191 692.753 0.0131473 676.348C0.0109851 674.056 0.00828499 671.764 0.00385998 669.471C-0.00478916 663.222 0.00340611 656.971 0.014474 650.721C0.0234588 643.962 0.0165791 637.202 0.0118205 630.443C0.00499077 617.222 0.012495 604.001 0.025088 590.78C0.0392341 575.372 0.0390154 559.963 0.0383556 544.555C0.0376763 517.058 0.050445 489.561 0.0701977 462.064C0.0893402 435.403 0.0989599 408.742 0.0980595 382.08C0.0980052 380.438 0.0981154 378.795 0.0980595 377.103C0.0979773 374.643 0.0968167 374.643 0.0967328 372.134C0.0957948 341.748 0.104475 311.362 0.116634 280.976C0.120726 270.244 0.122652 259.512 0.123268 248.78C0.124196 235.698 0.129386 222.615 0.141842 209.533C0.1481 202.862 0.152845 196.191 0.15113 189.52C0.149635 183.407 0.154628 177.295 0.164397 171.182C0.166846 168.977 0.166736 166.772 0.164397 164.568C0.139805 138.481 0.919983 115.914 20.1334 96.2281ZM831.295 221.269C826.331 217.702 821.777 218.138 815.882 218.156C814.781 218.154 813.679 218.151 812.544 218.149C808.812 218.144 805.081 218.15 801.349 218.155C798.661 218.153 795.974 218.151 793.286 218.148C785.867 218.142 778.449 218.145 771.03 218.149C763.037 218.152 755.044 218.148 747.051 218.144C732.268 218.138 717.484 218.139 702.701 218.143C688.999 218.146 675.297 218.147 661.595 218.145C660.686 218.145 659.776 218.144 658.839 218.144C655.146 218.143 651.453 218.143 647.76 218.143C613.042 218.138 578.323 218.143 543.606 218.151C512.923 218.157 482.241 218.156 451.558 218.149C417.016 218.142 382.473 218.14 347.931 218.144C344.221 218.144 340.511 218.145 336.802 218.145C335.889 218.145 334.975 218.145 334.034 218.145C320.41 218.147 306.786 218.145 293.162 218.141C188.865 218.109 188.864 218.11 84.5818 219.687V287.661L108.214 287.863C113.148 287.911 118.083 287.96 123.018 288.011C130.854 288.094 138.691 288.173 146.527 288.235C152.843 288.285 159.158 288.347 165.474 288.419C167.886 288.444 170.298 288.464 172.71 288.48C176.084 288.503 179.457 288.543 182.831 288.586C183.832 288.589 184.834 288.593 185.866 288.596C190.882 288.678 193.058 288.879 197.345 291.739C197.748 295.613 197.888 299.191 197.852 303.068C197.857 304.24 197.862 305.412 197.867 306.619C197.878 310.507 197.859 314.394 197.839 318.281C197.838 320.977 197.839 323.672 197.841 326.368C197.841 332.025 197.828 337.683 197.803 343.34C197.772 350.594 197.771 357.847 197.78 365.1C197.785 370.67 197.775 376.241 197.762 381.811C197.757 384.485 197.756 387.159 197.758 389.834C197.758 393.573 197.741 397.313 197.719 401.052C197.723 402.16 197.725 403.267 197.729 404.408C197.675 410.072 197.223 412.978 194.628 418.172L83.2232 419.531V517.414L107.497 517.664C112.562 517.719 117.627 517.774 122.691 517.831C130.736 517.921 138.782 518.01 146.826 518.09C153.31 518.155 159.793 518.226 166.277 518.301C168.754 518.329 171.232 518.355 173.709 518.378C177.171 518.411 180.632 518.451 184.094 518.494C185.126 518.502 186.158 518.51 187.221 518.518C194.319 518.618 194.318 518.619 197.345 520.133C197.44 536.193 197.513 552.252 197.558 568.311C197.579 575.768 197.607 583.225 197.653 590.682C197.697 597.875 197.722 605.068 197.733 612.261C197.74 615.009 197.755 617.756 197.776 620.503C197.806 624.344 197.81 628.186 197.808 632.027C197.823 633.169 197.838 634.311 197.853 635.488C197.812 643.208 197.812 643.208 195.643 646.178C192.678 648.36 191.084 648.431 187.425 648.424C185.636 648.436 185.636 648.435 183.811 648.447C182.507 648.434 181.202 648.423 179.859 648.41C177.794 648.414 177.794 648.413 175.687 648.418C171.129 648.422 166.57 648.397 162.011 648.371C158.853 648.367 155.694 648.364 152.535 648.363C145.914 648.357 139.292 648.338 132.67 648.308C124.161 648.269 115.652 648.254 107.143 648.248C100.622 648.242 94.0993 648.228 87.5776 648.212C84.4392 648.204 81.3001 648.198 78.1616 648.193C73.7864 648.184 69.4113 648.166 65.036 648.144C63.7261 648.143 62.416 648.14 61.0664 648.139C59.8816 648.131 58.6969 648.123 57.4762 648.115C55.9231 648.109 55.9229 648.109 54.3384 648.103C51.9761 647.924 51.9755 647.925 50.6169 646.566C50.3018 644.507 50.0569 642.436 49.8527 640.363L49.5077 636.959L49.2583 634.33C34.9335 638.81 24.5047 651.433 17.1349 663.958C8.43377 680.945 8.29884 703.916 13.887 722.07C16.3353 727.894 19.5151 732.727 23.445 737.651L25.865 740.79C37.4469 754.873 51.2279 761.736 69.1782 763.921C83.9046 765.158 98.6257 765.038 113.394 765.031C116.456 765.034 119.519 765.04 122.581 765.044C130.965 765.055 139.349 765.056 147.733 765.057C155.855 765.06 163.978 765.069 172.101 765.077C193.836 765.099 215.571 765.107 237.306 765.113C247.59 765.116 257.874 765.121 268.158 765.127C303.373 765.144 338.588 765.159 373.804 765.164C376.011 765.164 378.219 765.165 380.427 765.165C382.639 765.165 384.852 765.165 387.064 765.165C391.503 765.166 395.942 765.167 400.381 765.168C401.482 765.168 402.583 765.168 403.717 765.168C439.445 765.173 475.173 765.194 510.901 765.226C548.694 765.26 586.488 765.278 624.282 765.279C628.428 765.279 632.574 765.28 636.72 765.281C638.251 765.281 638.252 765.28 639.814 765.281C656.25 765.282 672.685 765.297 689.121 765.316C705.627 765.336 722.134 765.341 738.64 765.33C747.584 765.324 756.528 765.327 765.472 765.346C773.654 765.363 781.835 765.361 790.017 765.344C792.982 765.342 795.947 765.346 798.912 765.358C802.933 765.373 806.953 765.362 810.974 765.346C812.132 765.356 813.291 765.367 814.484 765.377C821.711 765.314 826.706 764.037 833.168 760.763V758.044L837.244 756.684C844.053 746.831 843.441 736.874 843.361 725.261C843.366 723.161 843.373 721.061 843.383 718.961C843.403 713.207 843.389 707.453 843.37 701.699C843.355 695.487 843.371 689.275 843.383 683.063C843.402 670.901 843.392 658.74 843.371 646.578C843.348 632.414 843.353 618.25 843.358 604.087C843.366 578.817 843.346 553.547 843.313 528.277C843.28 503.755 843.271 479.234 843.285 454.712C843.3 428.009 843.303 401.305 843.284 374.602C843.281 371.755 843.279 368.907 843.277 366.06C843.276 364.659 843.275 363.259 843.274 361.815C843.268 351.942 843.27 342.069 843.276 332.196C843.282 320.166 843.275 308.135 843.248 296.105C843.234 289.966 843.228 283.828 843.238 277.689C843.248 272.07 843.239 266.45 843.215 260.831C843.209 258.798 843.21 256.766 843.219 254.733C843.608 238.758 843.608 238.758 836.22 225.178L833.763 223.255L831.295 221.269ZM65.5614 90.5353C52.0607 89.2098 40.966 91.5508 30.2379 100.052V102.771C26.1628 104.13 26.162 104.13 23.5776 106.865L20.8127 110.503C10.3941 123.741 9.0538 140.791 9.18102 157.045C9.1982 159.111 9.20453 161.178 9.20225 163.244C9.18378 168.984 9.18492 174.723 9.21153 180.463C9.24077 186.721 9.24685 192.979 9.24338 199.237C9.23633 210.092 9.24379 220.947 9.27256 231.801C9.31676 247.62 9.34074 263.438 9.34819 279.257C9.35921 304.903 9.38888 330.55 9.43974 356.196C9.4897 381.18 9.53286 406.165 9.55649 431.149C9.55796 432.74 9.55904 434.285 9.56047 435.829C9.56765 443.585 9.5749 451.341 9.5817 459.097C9.63903 524.759 9.73454 590.421 9.85899 656.082H12.5762C20.3168 640.591 34.7108 628.636 50.6169 622.095L73.713 616.657V95.9732H69.6372V93.2543L65.5614 90.5353ZM82.6288 575.023C82.5459 582.126 82.4645 589.229 82.3714 596.332C82.3452 598.246 82.3195 600.16 82.2945 602.074C82.2612 605.178 82.2284 608.282 82.1857 611.385C82.1716 612.371 82.1582 613.328 82.1445 614.284C82.0899 618.705 82.4834 622.216 80.506 626.173L76.3082 626.688C70.5227 626.965 64.0151 626.267 58.7685 628.892V638.409H189.194V526.931H83.2232L82.6288 575.023ZM84.5818 298.537V410.015H189.194V298.537H84.5818Z" stroke="black" stroke-width="16" mask="url(#path-1-outside-1_1779_1486)"/>
<path d="M274.786 516.054C278.5 515.54 278.5 515.54 283.328 515.536C284.214 515.529 285.101 515.523 286.014 515.516C288.997 515.5 291.979 515.513 294.962 515.526C297.096 515.52 299.229 515.513 301.362 515.504C307.167 515.486 312.972 515.493 318.777 515.506C324.845 515.516 330.913 515.506 336.981 515.5C347.176 515.493 357.37 515.502 367.565 515.522C379.356 515.544 391.146 515.537 402.936 515.514C413.051 515.496 423.165 515.493 433.279 515.504C439.324 515.51 445.368 515.511 451.413 515.498C457.098 515.486 462.782 515.494 468.467 515.518C470.555 515.523 472.643 515.521 474.73 515.512C477.579 515.501 480.425 515.515 483.274 515.536C485.665 515.538 485.665 515.538 488.105 515.54C492.59 516.108 494.503 516.858 497.596 520.132C498.12 524.257 498.297 527.887 498.234 532.012C498.237 533.226 498.24 534.44 498.243 535.69C498.246 539.71 498.211 543.728 498.174 547.747C498.167 550.535 498.163 553.324 498.16 556.112C498.15 561.959 498.122 567.806 498.08 573.653C498.026 581.155 498.002 588.656 497.989 596.159C497.975 603.303 497.948 610.446 497.919 617.59C497.915 618.958 497.91 620.326 497.905 621.735C497.89 625.599 497.864 629.462 497.836 633.325C497.832 634.474 497.829 635.622 497.825 636.805C497.783 641.303 497.668 644.987 496.237 649.283C467.41 649.379 438.584 649.45 409.757 649.495C396.373 649.516 382.989 649.544 369.605 649.591C357.943 649.632 346.281 649.658 334.619 649.667C328.441 649.672 322.263 649.685 316.085 649.715C310.275 649.742 304.466 649.751 298.656 649.745C296.519 649.746 294.382 649.754 292.245 649.77C289.336 649.79 286.428 649.785 283.52 649.774C281.889 649.778 280.259 649.781 278.579 649.785C277.327 649.62 276.075 649.454 274.786 649.283C271.245 643.968 271.687 639.491 271.717 633.325C271.712 632.111 271.707 630.897 271.703 629.647C271.691 625.628 271.698 621.609 271.708 617.59C271.706 614.802 271.703 612.013 271.7 609.225C271.696 603.378 271.702 597.531 271.714 591.684C271.73 584.182 271.721 576.68 271.705 569.178C271.695 563.419 271.698 557.66 271.705 551.901C271.707 549.135 271.705 546.368 271.698 543.602C271.691 539.738 271.702 535.875 271.717 532.012C271.711 530.863 271.706 529.715 271.7 528.531C271.739 523.218 271.773 520.575 274.786 516.054ZM281.579 526.929C281.579 564.166 281.579 601.402 281.579 639.767C349.726 639.767 417.873 639.767 488.085 639.767C488.085 602.531 488.085 565.294 488.085 526.929C419.938 526.929 351.791 526.929 281.579 526.929Z" stroke="black" stroke-width="16" mask="url(#path-1-outside-1_1779_1486)"/>
<path d="M284.887 287.17C285.778 287.166 286.669 287.163 287.587 287.159C290.579 287.152 293.57 287.175 296.561 287.197C298.704 287.198 300.846 287.198 302.988 287.195C308.809 287.194 314.631 287.218 320.452 287.247C326.533 287.272 332.615 287.274 338.697 287.279C350.215 287.292 361.734 287.325 373.253 287.366C386.366 287.412 399.478 287.434 412.591 287.455C439.567 287.497 466.544 287.569 493.52 287.66C493.52 288.557 493.52 289.455 493.52 290.379C494.416 290.379 495.313 290.379 496.237 290.379C498.467 294.842 497.808 299.792 497.814 304.698C497.821 305.899 497.828 307.099 497.835 308.336C497.855 312.318 497.864 316.3 497.871 320.282C497.879 323.043 497.887 325.803 497.895 328.563C497.909 334.353 497.917 340.144 497.922 345.935C497.929 353.366 497.962 360.796 498.001 368.227C498.026 373.928 498.033 379.63 498.035 385.332C498.039 388.072 498.05 390.812 498.068 393.552C498.091 397.38 498.089 401.207 498.08 405.035C498.092 406.173 498.105 407.311 498.118 408.483C498.062 416.095 498.062 416.095 496.076 419.143C492.291 421.73 489.281 421.391 484.726 421.38C483.829 421.384 482.932 421.387 482.008 421.391C478.998 421.398 475.988 421.375 472.978 421.353C470.822 421.352 468.667 421.352 466.511 421.355C460.653 421.356 454.796 421.332 448.938 421.303C442.818 421.278 436.699 421.276 430.579 421.271C418.988 421.258 407.397 421.225 395.806 421.184C382.611 421.138 369.416 421.116 356.221 421.095C329.076 421.052 301.931 420.981 274.786 420.89C271.586 415.176 271.676 409.958 271.695 403.543C271.688 402.342 271.681 401.141 271.674 399.904C271.655 395.936 271.657 391.969 271.66 388.002C271.655 385.246 271.649 382.49 271.642 379.734C271.632 373.959 271.632 368.184 271.64 362.41C271.647 355 271.624 347.592 271.593 340.182C271.573 334.492 271.572 328.802 271.576 323.112C271.575 320.38 271.568 317.647 271.554 314.915C271.538 311.1 271.547 307.286 271.563 303.472C271.552 302.338 271.542 301.205 271.531 300.037C271.601 292.454 271.601 292.454 273.592 289.408C277.362 286.826 280.345 287.159 284.887 287.17ZM281.579 297.176C281.579 334.861 281.579 372.547 281.579 411.373C349.726 411.373 417.873 411.373 488.085 411.373C488.113 392.783 488.141 374.193 488.17 355.04C488.183 349.161 488.195 343.283 488.208 337.226C488.212 331.975 488.212 331.975 488.215 326.724C488.217 324.377 488.222 322.031 488.229 319.685C488.239 316.139 488.24 312.594 488.24 309.048C488.244 307.996 488.249 306.944 488.254 305.86C488.679 301.123 488.679 301.123 486.727 297.176C484.079 297.045 481.426 297.011 478.775 297.013C477.047 297.011 475.319 297.009 473.539 297.007C471.606 297.012 469.673 297.017 467.741 297.022C465.719 297.023 463.698 297.022 461.677 297.022C456.172 297.021 450.668 297.029 445.164 297.039C439.418 297.047 433.671 297.048 427.925 297.05C417.037 297.054 406.148 297.065 395.259 297.079C380.551 297.097 365.843 297.104 351.134 297.112C327.949 297.125 304.764 297.152 281.579 297.176Z" stroke="black" stroke-width="16" mask="url(#path-1-outside-1_1779_1486)"/>
<path d="M582.228 515.536C584.021 515.524 585.813 515.513 587.66 515.501C589.651 515.509 591.642 515.517 593.634 515.526C595.727 515.52 597.82 515.513 599.913 515.504C605.603 515.486 611.293 515.493 616.983 515.506C622.933 515.516 628.883 515.506 634.833 515.5C644.828 515.493 654.823 515.502 664.817 515.522C676.376 515.544 687.934 515.537 699.492 515.514C709.41 515.496 719.328 515.493 729.246 515.504C735.172 515.51 741.098 515.511 747.024 515.498C752.597 515.486 758.169 515.494 763.741 515.518C765.787 515.523 767.833 515.521 769.879 515.512C772.671 515.501 775.461 515.515 778.253 515.536C779.815 515.537 781.378 515.539 782.988 515.54C787.431 516.112 789.336 516.897 792.411 520.132C792.943 524.216 793.126 527.802 793.071 531.887C793.076 533.088 793.081 534.288 793.087 535.525C793.097 539.5 793.068 543.474 793.037 547.449C793.034 550.207 793.033 552.965 793.033 555.723C793.029 561.506 793.007 567.289 792.97 573.072C792.924 580.492 792.914 587.911 792.916 595.331C792.915 601.027 792.9 606.723 792.88 612.419C792.872 615.155 792.866 617.891 792.864 620.628C792.858 624.449 792.835 628.27 792.806 632.091C792.807 633.226 792.808 634.362 792.809 635.532C792.751 640.814 792.689 643.428 789.694 647.924C785.972 648.433 785.972 648.433 781.133 648.433C779.801 648.441 779.801 648.441 778.442 648.449C775.452 648.462 772.464 648.446 769.474 648.43C767.336 648.433 765.199 648.438 763.061 648.445C757.245 648.458 751.429 648.445 745.613 648.427C739.537 648.412 733.46 648.417 727.383 648.42C717.177 648.421 706.971 648.406 696.765 648.381C684.953 648.352 673.141 648.347 661.329 648.356C649.982 648.364 638.635 648.356 627.288 648.341C622.452 648.334 617.616 648.333 612.78 648.336C607.088 648.339 601.397 648.328 595.705 648.306C593.612 648.3 591.518 648.299 589.425 648.303C586.576 648.307 583.728 648.295 580.879 648.278C579.282 648.275 577.685 648.273 576.04 648.27C572.318 647.924 572.318 647.924 569.601 645.205C569.324 641.254 569.216 637.432 569.228 633.48C569.221 632.266 569.214 631.052 569.207 629.802C569.188 625.775 569.189 621.749 569.192 617.723C569.187 614.933 569.181 612.142 569.175 609.352C569.165 603.497 569.165 597.642 569.172 591.787C569.18 584.274 569.157 576.761 569.126 569.249C569.106 563.484 569.104 557.719 569.109 551.954C569.108 549.184 569.101 546.413 569.087 543.643C569.07 539.773 569.079 535.903 569.095 532.033C569.085 530.883 569.074 529.732 569.064 528.547C569.133 520.843 569.133 520.843 571.136 517.799C574.852 515.246 577.746 515.54 582.228 515.536ZM577.753 526.929C577.725 545.295 577.697 563.661 577.668 582.583C577.655 588.391 577.643 594.199 577.63 600.182C577.626 605.37 577.626 605.37 577.623 610.558C577.621 612.876 577.616 615.194 577.609 617.511C577.599 621.014 577.598 624.517 577.598 628.02C577.594 629.059 577.589 630.099 577.584 631.17C577.167 635.862 577.167 635.862 579.111 639.767C581.742 639.898 584.377 639.933 587.011 639.93C588.728 639.932 590.444 639.934 592.213 639.936C594.133 639.931 596.053 639.926 597.973 639.921C599.981 639.921 601.989 639.921 603.997 639.922C609.464 639.922 614.932 639.914 620.4 639.905C626.108 639.896 631.816 639.895 637.524 639.894C648.341 639.89 659.157 639.878 669.973 639.865C684.584 639.847 699.195 639.839 713.806 639.832C736.838 639.819 759.869 639.792 782.901 639.767C782.901 602.531 782.901 565.294 782.901 526.929C715.202 526.929 647.503 526.929 577.753 526.929Z" stroke="black" stroke-width="16" mask="url(#path-1-outside-1_1779_1486)"/>
<path d="M582.228 287.142C584.021 287.131 585.813 287.119 587.66 287.108C589.651 287.116 591.642 287.124 593.634 287.133C595.727 287.127 597.82 287.12 599.913 287.111C605.603 287.092 611.293 287.1 616.983 287.113C622.933 287.123 628.883 287.113 634.833 287.107C644.828 287.099 654.823 287.109 664.817 287.129C676.376 287.151 687.934 287.144 699.492 287.121C709.41 287.103 719.328 287.1 729.246 287.111C735.172 287.117 741.098 287.118 747.024 287.104C752.597 287.093 758.169 287.101 763.741 287.124C765.787 287.13 767.833 287.128 769.879 287.119C772.671 287.108 775.461 287.122 778.253 287.142C779.815 287.144 781.378 287.146 782.988 287.147C787.429 287.719 789.332 288.511 792.411 291.739C792.95 295.728 793.14 299.209 793.093 303.201C793.104 304.956 793.104 304.956 793.115 306.746C793.132 310.619 793.109 314.492 793.085 318.366C793.085 321.056 793.087 323.747 793.091 326.437C793.093 332.081 793.076 337.724 793.045 343.367C793.006 350.598 793.01 357.828 793.027 365.059C793.037 370.618 793.026 376.176 793.009 381.734C793.003 384.4 793.003 387.066 793.008 389.731C793.012 393.461 792.989 397.19 792.96 400.919C792.966 402.02 792.972 403.12 792.978 404.254C792.895 410.553 792.352 414.617 788.335 419.531C784.468 420.378 784.468 420.378 779.662 420.375C778.779 420.384 777.895 420.393 776.985 420.402C774.017 420.423 771.053 420.395 768.086 420.367C765.961 420.372 763.837 420.379 761.713 420.39C755.939 420.409 750.165 420.386 744.391 420.354C738.356 420.327 732.321 420.335 726.286 420.338C716.152 420.338 706.019 420.311 695.885 420.267C684.156 420.217 672.429 420.205 660.7 420.215C649.431 420.223 638.162 420.209 626.893 420.182C622.091 420.171 617.289 420.167 612.486 420.17C606.836 420.171 601.186 420.152 595.536 420.116C593.458 420.107 591.38 420.104 589.302 420.108C586.473 420.113 583.647 420.093 580.818 420.067C578.441 420.059 578.441 420.059 576.015 420.051C574.795 419.88 573.575 419.708 572.318 419.531C568.797 414.246 569.21 409.827 569.228 403.697C569.221 402.497 569.214 401.296 569.207 400.059C569.188 396.084 569.189 392.11 569.192 388.135C569.187 385.377 569.181 382.619 569.175 379.861C569.165 374.078 569.165 368.295 569.172 362.512C569.18 355.093 569.157 347.673 569.126 340.253C569.106 334.557 569.104 328.861 569.109 323.165C569.108 320.429 569.101 317.693 569.087 314.957C569.07 311.135 569.079 307.315 569.095 303.494C569.085 302.358 569.074 301.222 569.064 300.052C569.133 292.448 569.133 292.448 571.136 289.409C574.851 286.852 577.743 287.147 582.228 287.142ZM577.753 298.536C577.616 302.004 577.568 305.434 577.577 308.902C577.574 309.988 577.572 311.073 577.57 312.191C577.564 315.796 577.568 319.402 577.572 323.007C577.571 325.501 577.57 327.995 577.568 330.49C577.566 335.724 577.569 340.958 577.576 346.193C577.583 352.918 577.579 359.643 577.571 366.368C577.566 371.521 577.567 376.673 577.571 381.825C577.572 384.306 577.571 386.786 577.567 389.267C577.564 392.727 577.569 396.188 577.577 399.648C577.574 400.683 577.571 401.719 577.569 402.786C577.164 407.473 577.164 407.473 579.111 411.374C581.742 411.505 584.377 411.539 587.011 411.537C588.728 411.539 590.444 411.541 592.213 411.543C594.133 411.538 596.053 411.533 597.973 411.528C599.981 411.528 601.989 411.528 603.997 411.529C609.464 411.529 614.932 411.521 620.4 411.512C626.108 411.503 631.816 411.502 637.524 411.501C648.341 411.496 659.157 411.485 669.973 411.472C684.584 411.454 699.195 411.446 713.806 411.438C736.838 411.425 759.869 411.398 782.901 411.374C782.901 373.689 782.901 336.004 782.901 297.177C746.714 297.137 746.714 297.137 710.526 297.11C695.778 297.102 681.03 297.093 666.282 297.074C655.543 297.061 644.804 297.052 634.065 297.049C628.375 297.047 622.686 297.043 616.996 297.033C611.647 297.024 606.298 297.021 600.948 297.023C598.979 297.023 597.01 297.02 595.042 297.015C592.365 297.008 589.688 297.01 587.011 297.013C585.51 297.012 584.008 297.011 582.461 297.009C579.187 296.797 579.187 296.797 577.753 298.536Z" stroke="black" stroke-width="16" mask="url(#path-1-outside-1_1779_1486)"/>
</g>
<defs>
<clipPath id="clip0_1779_1486">
<rect width="853" height="853" fill="white"/>
</clipPath>
</defs>
</svg>
