<svg width="853" height="853" viewBox="0 0 853 853" fill="none" xmlns="http://www.w3.org/2000/svg">
<g clip-path="url(#clip0_1781_1741)">
<mask id="path-1-outside-1_1781_1741" maskUnits="userSpaceOnUse" x="-6" y="115" width="866" height="623" fill="black">
<rect fill="white" x="-6" y="115" width="866" height="623"/>
<path d="M29.5547 122.584C30.9502 122.575 32.3458 122.565 33.7836 122.556C38.4743 122.531 43.1641 122.546 47.8548 122.561C51.246 122.552 54.6371 122.54 58.0282 122.525C65.4085 122.5 72.7886 122.493 80.169 122.501C91.1439 122.512 102.119 122.492 113.093 122.465C133.834 122.416 154.574 122.406 175.315 122.408C191.329 122.409 207.343 122.401 223.357 122.386C225.657 122.384 227.957 122.382 230.257 122.38C231.399 122.378 232.54 122.377 233.716 122.376C234.86 122.375 236.004 122.374 237.182 122.373C238.328 122.372 239.474 122.371 240.654 122.37C272.88 122.341 305.106 122.323 337.332 122.33C338.547 122.331 339.762 122.331 341.014 122.331C347.173 122.333 353.331 122.334 359.49 122.336C360.713 122.336 361.936 122.336 363.196 122.337C365.67 122.337 368.143 122.338 370.616 122.338C409.111 122.348 447.605 122.315 486.099 122.25C529.338 122.178 572.577 122.138 615.816 122.146C620.425 122.147 625.034 122.148 629.643 122.148C630.778 122.149 631.912 122.149 633.082 122.149C650.224 122.151 667.367 122.126 684.51 122.088C704.001 122.045 723.493 122.037 742.985 122.074C753.896 122.094 764.806 122.086 775.717 122.039C783.858 122.007 791.998 122.027 800.14 122.067C803.438 122.075 806.736 122.066 810.034 122.039C814.509 122.005 818.98 122.032 823.456 122.074C824.743 122.05 826.031 122.025 827.358 122C835.837 122.167 840.165 124.444 846.284 130.578C853.487 139.491 853.046 149.934 852.967 161.084C852.971 162.73 852.976 164.376 852.98 166.072C852.988 170.621 852.978 175.17 852.96 179.719C852.946 184.642 852.954 189.565 852.96 194.488C852.968 204.162 852.954 213.836 852.933 223.51C852.909 234.919 852.907 246.329 852.906 257.738C852.904 278.277 852.883 298.815 852.85 319.353C852.819 338.937 852.8 358.522 852.795 378.106C852.794 379.294 852.794 380.482 852.794 381.706C852.792 386.493 852.791 391.28 852.79 396.066C852.775 451.086 852.673 506.106 852.498 561.126C852.476 568.255 852.456 575.385 852.438 582.514C852.382 604.047 852.299 625.578 852.165 647.11C852.127 653.39 852.1 659.669 852.085 665.949C852.066 673.09 852.023 680.23 851.959 687.371C851.94 689.928 851.93 692.485 851.93 695.042C851.928 698.484 851.894 701.924 851.851 705.366C851.862 706.844 851.862 706.844 851.873 708.352C851.733 715.371 850.013 719.354 845.71 724.687C838.553 731.083 832.769 731.152 823.792 731.063C821.701 731.076 821.701 731.076 819.568 731.089C814.875 731.111 810.182 731.093 805.488 731.075C802.098 731.082 798.708 731.092 795.318 731.105C787.936 731.126 780.555 731.129 773.173 731.117C762.195 731.098 751.218 731.112 740.241 731.133C720.636 731.168 701.031 731.171 681.426 731.159C664.268 731.149 647.11 731.149 629.952 731.159C627.652 731.16 625.352 731.162 623.051 731.163C619.585 731.165 616.119 731.167 612.653 731.169C580.422 731.187 548.191 731.195 515.96 731.178C514.744 731.177 513.529 731.177 512.277 731.176C502.406 731.171 492.535 731.166 482.665 731.16C444.162 731.139 405.659 731.152 367.156 731.191C323.91 731.236 280.665 731.257 237.42 731.242C232.81 731.241 228.2 731.24 223.59 731.238C221.888 731.238 221.888 731.238 220.151 731.237C203.005 731.232 185.858 731.246 168.712 731.268C149.215 731.293 129.719 731.293 110.222 731.26C99.3083 731.242 88.3948 731.244 77.4809 731.274C69.3376 731.294 61.1948 731.277 53.0515 731.246C49.7526 731.239 46.4536 731.244 43.1547 731.262C38.6786 731.285 34.2046 731.265 29.7286 731.233C28.4405 731.25 27.1525 731.267 25.8254 731.284C17.2849 731.161 11.19 729.372 4.76667 723.272C0.713613 717.113 0.202368 712.127 0.196484 704.744C0.190184 703.762 0.183885 702.78 0.177394 701.769C0.161239 698.479 0.173936 695.19 0.186528 691.9C0.180886 689.518 0.173481 687.135 0.164464 684.752C0.14489 678.206 0.150671 671.659 0.160635 665.112C0.167021 658.051 0.150127 650.991 0.136273 643.93C0.113007 630.098 0.111906 616.267 0.118986 602.435C0.124446 591.195 0.122505 579.956 0.115272 568.716C0.11426 567.117 0.113246 565.519 0.112203 563.872C0.110133 560.624 0.108055 557.377 0.105966 554.129C0.0873994 523.665 0.0947684 493.202 0.110272 462.738C0.123704 434.854 0.106201 406.971 0.0738577 379.087C0.0409116 350.469 0.0278832 321.85 0.0368839 293.231C0.0416118 277.159 0.0385454 261.087 0.0149131 245.015C-0.00495281 231.334 -0.00590221 217.654 0.017711 203.973C0.0292508 196.991 0.0320385 190.009 0.0114215 183.027C-0.00721112 176.638 -0.000972802 170.249 0.0252667 163.86C0.0303778 161.547 0.0263213 159.233 0.0122724 156.919C-0.00545039 153.777 0.0100493 150.637 0.0339003 147.496C0.0340454 145.75 0.0341917 144.004 0.0343412 142.205C1.15641 134.33 4.32461 130.386 10.3154 125.653C16.5293 122.327 22.7051 122.521 29.5547 122.584ZM19.6387 143.119C19.6387 183.277 19.6387 223.434 19.6387 264.809C47.0475 265.43 47.0475 265.43 74.4584 265.9C75.5274 265.915 76.5964 265.93 77.6978 265.945C135.201 266.722 192.721 266.403 250.228 266.372C265.215 266.364 280.201 266.36 295.187 266.359C296.192 266.358 297.197 266.358 298.231 266.358C303.336 266.358 308.44 266.357 313.545 266.357C349.407 266.354 385.27 266.345 421.132 266.331C455.904 266.318 490.676 266.308 525.449 266.302C526.526 266.302 527.604 266.302 528.714 266.301C539.541 266.3 550.367 266.298 561.193 266.296C583.234 266.292 605.275 266.288 627.315 266.284C628.328 266.284 629.341 266.284 630.384 266.284C697.653 266.271 764.921 266.248 832.19 266.224C832.19 225.599 832.19 184.975 832.19 143.119C564.048 143.119 295.906 143.119 19.6387 143.119ZM19.6387 286.034C19.5062 288.29 19.4689 290.552 19.4685 292.812C19.465 294.288 19.4615 295.763 19.4578 297.284C19.4609 298.925 19.4639 300.566 19.467 302.257C19.4649 303.985 19.4628 305.713 19.4606 307.493C19.4561 312.311 19.4577 317.129 19.4619 321.947C19.465 327.134 19.4603 332.322 19.4565 337.509C19.4505 347.68 19.4518 357.851 19.4557 368.022C19.4588 376.284 19.4592 384.546 19.4577 392.808C19.4575 393.982 19.4573 395.156 19.4571 396.365C19.4567 398.749 19.4562 401.133 19.4558 403.516C19.4519 425.896 19.4564 448.276 19.4636 470.656C19.4697 489.881 19.4686 509.106 19.4624 528.33C19.4552 550.627 19.4523 572.924 19.4565 595.222C19.4569 597.597 19.4573 599.972 19.4577 602.347C19.4579 603.516 19.4582 604.685 19.4584 605.889C19.4595 614.147 19.4576 622.404 19.4544 630.661C19.4506 640.717 19.4516 650.773 19.4588 660.828C19.4624 665.964 19.4637 671.1 19.4593 676.235C19.4546 681.79 19.4602 687.344 19.467 692.899C19.464 694.54 19.4609 696.181 19.4578 697.872C19.4614 699.348 19.4649 700.823 19.4685 702.344C19.4687 703.628 19.469 704.912 19.4692 706.235C19.3325 709.114 19.3325 709.114 20.9907 710.537C25.2786 710.677 29.5372 710.723 33.8258 710.711C35.197 710.712 36.5681 710.714 37.9809 710.716C42.6371 710.719 47.2933 710.713 51.9495 710.707C55.2967 710.707 58.6439 710.709 61.9911 710.71C69.3003 710.713 76.6095 710.711 83.9187 710.705C94.7873 710.697 105.656 710.696 116.525 710.697C134.805 710.699 153.084 710.695 171.364 710.686C189.473 710.678 207.581 710.672 225.689 710.671C226.813 710.671 227.938 710.671 229.096 710.67C234.807 710.67 240.517 710.67 246.228 710.669C286.71 710.666 327.192 710.657 367.674 710.643C407.01 710.63 446.346 710.62 485.682 710.614C486.894 710.614 488.106 710.614 489.355 710.614C501.524 710.612 513.693 710.61 525.862 710.608C550.653 710.605 575.444 710.601 600.235 710.596C601.375 710.596 602.515 710.596 603.69 710.596C679.857 710.583 756.023 710.56 832.19 710.537C832.221 656.482 832.245 602.427 832.259 548.372C832.261 541.997 832.262 535.622 832.264 529.247C832.265 527.978 832.265 526.709 832.265 525.401C832.271 504.824 832.282 484.246 832.294 463.668C832.307 442.57 832.314 421.471 832.317 400.373C832.319 387.343 832.325 374.313 832.336 361.283C832.343 352.361 832.345 343.439 832.343 334.516C832.343 329.36 832.344 324.205 832.351 319.049C832.359 313.473 832.356 307.897 832.352 302.32C832.356 300.673 832.36 299.025 832.364 297.328C832.362 295.846 832.359 294.365 832.356 292.838C832.357 291.549 832.357 290.26 832.358 288.932C832.498 286.044 832.498 286.044 830.838 284.619C826.558 284.478 822.308 284.43 818.028 284.441C816.659 284.439 815.291 284.437 813.881 284.435C809.234 284.43 804.587 284.435 799.94 284.44C796.599 284.438 793.258 284.436 789.918 284.433C782.623 284.428 775.328 284.428 768.033 284.432C757.185 284.437 746.338 284.434 735.49 284.43C716.121 284.422 696.752 284.423 677.383 284.427C660.433 284.431 643.483 284.432 626.533 284.43C625.411 284.43 624.288 284.43 623.132 284.43C618.576 284.429 614.02 284.429 609.465 284.428C566.689 284.424 523.914 284.428 481.139 284.436C443.1 284.442 405.061 284.442 367.022 284.435C324.328 284.427 281.633 284.424 238.938 284.429C234.391 284.429 229.843 284.43 225.295 284.43C223.615 284.43 223.615 284.43 221.902 284.43C204.959 284.432 188.016 284.43 171.073 284.427C151.816 284.422 132.559 284.423 113.303 284.431C102.513 284.435 91.7237 284.436 80.9342 284.43C72.9 284.427 64.8659 284.431 56.8318 284.437C53.5646 284.439 50.2975 284.438 47.0303 284.435C42.6205 284.43 38.2108 284.435 33.8009 284.441C32.5056 284.438 31.2103 284.435 29.8757 284.431C24.3184 283.853 24.3184 283.853 19.6387 286.034Z"/>
</mask>
<path d="M29.5547 122.584C30.9502 122.575 32.3458 122.565 33.7836 122.556C38.4743 122.531 43.1641 122.546 47.8548 122.561C51.246 122.552 54.6371 122.54 58.0282 122.525C65.4085 122.5 72.7886 122.493 80.169 122.501C91.1439 122.512 102.119 122.492 113.093 122.465C133.834 122.416 154.574 122.406 175.315 122.408C191.329 122.409 207.343 122.401 223.357 122.386C225.657 122.384 227.957 122.382 230.257 122.38C231.399 122.378 232.54 122.377 233.716 122.376C234.86 122.375 236.004 122.374 237.182 122.373C238.328 122.372 239.474 122.371 240.654 122.37C272.88 122.341 305.106 122.323 337.332 122.33C338.547 122.331 339.762 122.331 341.014 122.331C347.173 122.333 353.331 122.334 359.49 122.336C360.713 122.336 361.936 122.336 363.196 122.337C365.67 122.337 368.143 122.338 370.616 122.338C409.111 122.348 447.605 122.315 486.099 122.25C529.338 122.178 572.577 122.138 615.816 122.146C620.425 122.147 625.034 122.148 629.643 122.148C630.778 122.149 631.912 122.149 633.082 122.149C650.224 122.151 667.367 122.126 684.51 122.088C704.001 122.045 723.493 122.037 742.985 122.074C753.896 122.094 764.806 122.086 775.717 122.039C783.858 122.007 791.998 122.027 800.14 122.067C803.438 122.075 806.736 122.066 810.034 122.039C814.509 122.005 818.98 122.032 823.456 122.074C824.743 122.05 826.031 122.025 827.358 122C835.837 122.167 840.165 124.444 846.284 130.578C853.487 139.491 853.046 149.934 852.967 161.084C852.971 162.73 852.976 164.376 852.98 166.072C852.988 170.621 852.978 175.17 852.96 179.719C852.946 184.642 852.954 189.565 852.96 194.488C852.968 204.162 852.954 213.836 852.933 223.51C852.909 234.919 852.907 246.329 852.906 257.738C852.904 278.277 852.883 298.815 852.85 319.353C852.819 338.937 852.8 358.522 852.795 378.106C852.794 379.294 852.794 380.482 852.794 381.706C852.792 386.493 852.791 391.28 852.79 396.066C852.775 451.086 852.673 506.106 852.498 561.126C852.476 568.255 852.456 575.385 852.438 582.514C852.382 604.047 852.299 625.578 852.165 647.11C852.127 653.39 852.1 659.669 852.085 665.949C852.066 673.09 852.023 680.23 851.959 687.371C851.94 689.928 851.93 692.485 851.93 695.042C851.928 698.484 851.894 701.924 851.851 705.366C851.862 706.844 851.862 706.844 851.873 708.352C851.733 715.371 850.013 719.354 845.71 724.687C838.553 731.083 832.769 731.152 823.792 731.063C821.701 731.076 821.701 731.076 819.568 731.089C814.875 731.111 810.182 731.093 805.488 731.075C802.098 731.082 798.708 731.092 795.318 731.105C787.936 731.126 780.555 731.129 773.173 731.117C762.195 731.098 751.218 731.112 740.241 731.133C720.636 731.168 701.031 731.171 681.426 731.159C664.268 731.149 647.11 731.149 629.952 731.159C627.652 731.16 625.352 731.162 623.051 731.163C619.585 731.165 616.119 731.167 612.653 731.169C580.422 731.187 548.191 731.195 515.96 731.178C514.744 731.177 513.529 731.177 512.277 731.176C502.406 731.171 492.535 731.166 482.665 731.16C444.162 731.139 405.659 731.152 367.156 731.191C323.91 731.236 280.665 731.257 237.42 731.242C232.81 731.241 228.2 731.24 223.59 731.238C221.888 731.238 221.888 731.238 220.151 731.237C203.005 731.232 185.858 731.246 168.712 731.268C149.215 731.293 129.719 731.293 110.222 731.26C99.3083 731.242 88.3948 731.244 77.4809 731.274C69.3376 731.294 61.1948 731.277 53.0515 731.246C49.7526 731.239 46.4536 731.244 43.1547 731.262C38.6786 731.285 34.2046 731.265 29.7286 731.233C28.4405 731.25 27.1525 731.267 25.8254 731.284C17.2849 731.161 11.19 729.372 4.76667 723.272C0.713613 717.113 0.202368 712.127 0.196484 704.744C0.190184 703.762 0.183885 702.78 0.177394 701.769C0.161239 698.479 0.173936 695.19 0.186528 691.9C0.180886 689.518 0.173481 687.135 0.164464 684.752C0.14489 678.206 0.150671 671.659 0.160635 665.112C0.167021 658.051 0.150127 650.991 0.136273 643.93C0.113007 630.098 0.111906 616.267 0.118986 602.435C0.124446 591.195 0.122505 579.956 0.115272 568.716C0.11426 567.117 0.113246 565.519 0.112203 563.872C0.110133 560.624 0.108055 557.377 0.105966 554.129C0.0873994 523.665 0.0947684 493.202 0.110272 462.738C0.123704 434.854 0.106201 406.971 0.0738577 379.087C0.0409116 350.469 0.0278832 321.85 0.0368839 293.231C0.0416118 277.159 0.0385454 261.087 0.0149131 245.015C-0.00495281 231.334 -0.00590221 217.654 0.017711 203.973C0.0292508 196.991 0.0320385 190.009 0.0114215 183.027C-0.00721112 176.638 -0.000972802 170.249 0.0252667 163.86C0.0303778 161.547 0.0263213 159.233 0.0122724 156.919C-0.00545039 153.777 0.0100493 150.637 0.0339003 147.496C0.0340454 145.75 0.0341917 144.004 0.0343412 142.205C1.15641 134.33 4.32461 130.386 10.3154 125.653C16.5293 122.327 22.7051 122.521 29.5547 122.584ZM19.6387 143.119C19.6387 183.277 19.6387 223.434 19.6387 264.809C47.0475 265.43 47.0475 265.43 74.4584 265.9C75.5274 265.915 76.5964 265.93 77.6978 265.945C135.201 266.722 192.721 266.403 250.228 266.372C265.215 266.364 280.201 266.36 295.187 266.359C296.192 266.358 297.197 266.358 298.231 266.358C303.336 266.358 308.44 266.357 313.545 266.357C349.407 266.354 385.27 266.345 421.132 266.331C455.904 266.318 490.676 266.308 525.449 266.302C526.526 266.302 527.604 266.302 528.714 266.301C539.541 266.3 550.367 266.298 561.193 266.296C583.234 266.292 605.275 266.288 627.315 266.284C628.328 266.284 629.341 266.284 630.384 266.284C697.653 266.271 764.921 266.248 832.19 266.224C832.19 225.599 832.19 184.975 832.19 143.119C564.048 143.119 295.906 143.119 19.6387 143.119ZM19.6387 286.034C19.5062 288.29 19.4689 290.552 19.4685 292.812C19.465 294.288 19.4615 295.763 19.4578 297.284C19.4609 298.925 19.4639 300.566 19.467 302.257C19.4649 303.985 19.4628 305.713 19.4606 307.493C19.4561 312.311 19.4577 317.129 19.4619 321.947C19.465 327.134 19.4603 332.322 19.4565 337.509C19.4505 347.68 19.4518 357.851 19.4557 368.022C19.4588 376.284 19.4592 384.546 19.4577 392.808C19.4575 393.982 19.4573 395.156 19.4571 396.365C19.4567 398.749 19.4562 401.133 19.4558 403.516C19.4519 425.896 19.4564 448.276 19.4636 470.656C19.4697 489.881 19.4686 509.106 19.4624 528.33C19.4552 550.627 19.4523 572.924 19.4565 595.222C19.4569 597.597 19.4573 599.972 19.4577 602.347C19.4579 603.516 19.4582 604.685 19.4584 605.889C19.4595 614.147 19.4576 622.404 19.4544 630.661C19.4506 640.717 19.4516 650.773 19.4588 660.828C19.4624 665.964 19.4637 671.1 19.4593 676.235C19.4546 681.79 19.4602 687.344 19.467 692.899C19.464 694.54 19.4609 696.181 19.4578 697.872C19.4614 699.348 19.4649 700.823 19.4685 702.344C19.4687 703.628 19.469 704.912 19.4692 706.235C19.3325 709.114 19.3325 709.114 20.9907 710.537C25.2786 710.677 29.5372 710.723 33.8258 710.711C35.197 710.712 36.5681 710.714 37.9809 710.716C42.6371 710.719 47.2933 710.713 51.9495 710.707C55.2967 710.707 58.6439 710.709 61.9911 710.71C69.3003 710.713 76.6095 710.711 83.9187 710.705C94.7873 710.697 105.656 710.696 116.525 710.697C134.805 710.699 153.084 710.695 171.364 710.686C189.473 710.678 207.581 710.672 225.689 710.671C226.813 710.671 227.938 710.671 229.096 710.67C234.807 710.67 240.517 710.67 246.228 710.669C286.71 710.666 327.192 710.657 367.674 710.643C407.01 710.63 446.346 710.62 485.682 710.614C486.894 710.614 488.106 710.614 489.355 710.614C501.524 710.612 513.693 710.61 525.862 710.608C550.653 710.605 575.444 710.601 600.235 710.596C601.375 710.596 602.515 710.596 603.69 710.596C679.857 710.583 756.023 710.56 832.19 710.537C832.221 656.482 832.245 602.427 832.259 548.372C832.261 541.997 832.262 535.622 832.264 529.247C832.265 527.978 832.265 526.709 832.265 525.401C832.271 504.824 832.282 484.246 832.294 463.668C832.307 442.57 832.314 421.471 832.317 400.373C832.319 387.343 832.325 374.313 832.336 361.283C832.343 352.361 832.345 343.439 832.343 334.516C832.343 329.36 832.344 324.205 832.351 319.049C832.359 313.473 832.356 307.897 832.352 302.32C832.356 300.673 832.36 299.025 832.364 297.328C832.362 295.846 832.359 294.365 832.356 292.838C832.357 291.549 832.357 290.26 832.358 288.932C832.498 286.044 832.498 286.044 830.838 284.619C826.558 284.478 822.308 284.43 818.028 284.441C816.659 284.439 815.291 284.437 813.881 284.435C809.234 284.43 804.587 284.435 799.94 284.44C796.599 284.438 793.258 284.436 789.918 284.433C782.623 284.428 775.328 284.428 768.033 284.432C757.185 284.437 746.338 284.434 735.49 284.43C716.121 284.422 696.752 284.423 677.383 284.427C660.433 284.431 643.483 284.432 626.533 284.43C625.411 284.43 624.288 284.43 623.132 284.43C618.576 284.429 614.02 284.429 609.465 284.428C566.689 284.424 523.914 284.428 481.139 284.436C443.1 284.442 405.061 284.442 367.022 284.435C324.328 284.427 281.633 284.424 238.938 284.429C234.391 284.429 229.843 284.43 225.295 284.43C223.615 284.43 223.615 284.43 221.902 284.43C204.959 284.432 188.016 284.43 171.073 284.427C151.816 284.422 132.559 284.423 113.303 284.431C102.513 284.435 91.7237 284.436 80.9342 284.43C72.9 284.427 64.8659 284.431 56.8318 284.437C53.5646 284.439 50.2975 284.438 47.0303 284.435C42.6205 284.43 38.2108 284.435 33.8009 284.441C32.5056 284.438 31.2103 284.435 29.8757 284.431C24.3184 283.853 24.3184 283.853 19.6387 286.034Z" fill="#040504"/>
<path d="M29.5547 122.584C30.9502 122.575 32.3458 122.565 33.7836 122.556C38.4743 122.531 43.1641 122.546 47.8548 122.561C51.246 122.552 54.6371 122.54 58.0282 122.525C65.4085 122.5 72.7886 122.493 80.169 122.501C91.1439 122.512 102.119 122.492 113.093 122.465C133.834 122.416 154.574 122.406 175.315 122.408C191.329 122.409 207.343 122.401 223.357 122.386C225.657 122.384 227.957 122.382 230.257 122.38C231.399 122.378 232.54 122.377 233.716 122.376C234.86 122.375 236.004 122.374 237.182 122.373C238.328 122.372 239.474 122.371 240.654 122.37C272.88 122.341 305.106 122.323 337.332 122.33C338.547 122.331 339.762 122.331 341.014 122.331C347.173 122.333 353.331 122.334 359.49 122.336C360.713 122.336 361.936 122.336 363.196 122.337C365.67 122.337 368.143 122.338 370.616 122.338C409.111 122.348 447.605 122.315 486.099 122.25C529.338 122.178 572.577 122.138 615.816 122.146C620.425 122.147 625.034 122.148 629.643 122.148C630.778 122.149 631.912 122.149 633.082 122.149C650.224 122.151 667.367 122.126 684.51 122.088C704.001 122.045 723.493 122.037 742.985 122.074C753.896 122.094 764.806 122.086 775.717 122.039C783.858 122.007 791.998 122.027 800.14 122.067C803.438 122.075 806.736 122.066 810.034 122.039C814.509 122.005 818.98 122.032 823.456 122.074C824.743 122.05 826.031 122.025 827.358 122C835.837 122.167 840.165 124.444 846.284 130.578C853.487 139.491 853.046 149.934 852.967 161.084C852.971 162.73 852.976 164.376 852.98 166.072C852.988 170.621 852.978 175.17 852.96 179.719C852.946 184.642 852.954 189.565 852.96 194.488C852.968 204.162 852.954 213.836 852.933 223.51C852.909 234.919 852.907 246.329 852.906 257.738C852.904 278.277 852.883 298.815 852.85 319.353C852.819 338.937 852.8 358.522 852.795 378.106C852.794 379.294 852.794 380.482 852.794 381.706C852.792 386.493 852.791 391.28 852.79 396.066C852.775 451.086 852.673 506.106 852.498 561.126C852.476 568.255 852.456 575.385 852.438 582.514C852.382 604.047 852.299 625.578 852.165 647.11C852.127 653.39 852.1 659.669 852.085 665.949C852.066 673.09 852.023 680.23 851.959 687.371C851.94 689.928 851.93 692.485 851.93 695.042C851.928 698.484 851.894 701.924 851.851 705.366C851.862 706.844 851.862 706.844 851.873 708.352C851.733 715.371 850.013 719.354 845.71 724.687C838.553 731.083 832.769 731.152 823.792 731.063C821.701 731.076 821.701 731.076 819.568 731.089C814.875 731.111 810.182 731.093 805.488 731.075C802.098 731.082 798.708 731.092 795.318 731.105C787.936 731.126 780.555 731.129 773.173 731.117C762.195 731.098 751.218 731.112 740.241 731.133C720.636 731.168 701.031 731.171 681.426 731.159C664.268 731.149 647.11 731.149 629.952 731.159C627.652 731.16 625.352 731.162 623.051 731.163C619.585 731.165 616.119 731.167 612.653 731.169C580.422 731.187 548.191 731.195 515.96 731.178C514.744 731.177 513.529 731.177 512.277 731.176C502.406 731.171 492.535 731.166 482.665 731.16C444.162 731.139 405.659 731.152 367.156 731.191C323.91 731.236 280.665 731.257 237.42 731.242C232.81 731.241 228.2 731.24 223.59 731.238C221.888 731.238 221.888 731.238 220.151 731.237C203.005 731.232 185.858 731.246 168.712 731.268C149.215 731.293 129.719 731.293 110.222 731.26C99.3083 731.242 88.3948 731.244 77.4809 731.274C69.3376 731.294 61.1948 731.277 53.0515 731.246C49.7526 731.239 46.4536 731.244 43.1547 731.262C38.6786 731.285 34.2046 731.265 29.7286 731.233C28.4405 731.25 27.1525 731.267 25.8254 731.284C17.2849 731.161 11.19 729.372 4.76667 723.272C0.713613 717.113 0.202368 712.127 0.196484 704.744C0.190184 703.762 0.183885 702.78 0.177394 701.769C0.161239 698.479 0.173936 695.19 0.186528 691.9C0.180886 689.518 0.173481 687.135 0.164464 684.752C0.14489 678.206 0.150671 671.659 0.160635 665.112C0.167021 658.051 0.150127 650.991 0.136273 643.93C0.113007 630.098 0.111906 616.267 0.118986 602.435C0.124446 591.195 0.122505 579.956 0.115272 568.716C0.11426 567.117 0.113246 565.519 0.112203 563.872C0.110133 560.624 0.108055 557.377 0.105966 554.129C0.0873994 523.665 0.0947684 493.202 0.110272 462.738C0.123704 434.854 0.106201 406.971 0.0738577 379.087C0.0409116 350.469 0.0278832 321.85 0.0368839 293.231C0.0416118 277.159 0.0385454 261.087 0.0149131 245.015C-0.00495281 231.334 -0.00590221 217.654 0.017711 203.973C0.0292508 196.991 0.0320385 190.009 0.0114215 183.027C-0.00721112 176.638 -0.000972802 170.249 0.0252667 163.86C0.0303778 161.547 0.0263213 159.233 0.0122724 156.919C-0.00545039 153.777 0.0100493 150.637 0.0339003 147.496C0.0340454 145.75 0.0341917 144.004 0.0343412 142.205C1.15641 134.33 4.32461 130.386 10.3154 125.653C16.5293 122.327 22.7051 122.521 29.5547 122.584ZM19.6387 143.119C19.6387 183.277 19.6387 223.434 19.6387 264.809C47.0475 265.43 47.0475 265.43 74.4584 265.9C75.5274 265.915 76.5964 265.93 77.6978 265.945C135.201 266.722 192.721 266.403 250.228 266.372C265.215 266.364 280.201 266.36 295.187 266.359C296.192 266.358 297.197 266.358 298.231 266.358C303.336 266.358 308.44 266.357 313.545 266.357C349.407 266.354 385.27 266.345 421.132 266.331C455.904 266.318 490.676 266.308 525.449 266.302C526.526 266.302 527.604 266.302 528.714 266.301C539.541 266.3 550.367 266.298 561.193 266.296C583.234 266.292 605.275 266.288 627.315 266.284C628.328 266.284 629.341 266.284 630.384 266.284C697.653 266.271 764.921 266.248 832.19 266.224C832.19 225.599 832.19 184.975 832.19 143.119C564.048 143.119 295.906 143.119 19.6387 143.119ZM19.6387 286.034C19.5062 288.29 19.4689 290.552 19.4685 292.812C19.465 294.288 19.4615 295.763 19.4578 297.284C19.4609 298.925 19.4639 300.566 19.467 302.257C19.4649 303.985 19.4628 305.713 19.4606 307.493C19.4561 312.311 19.4577 317.129 19.4619 321.947C19.465 327.134 19.4603 332.322 19.4565 337.509C19.4505 347.68 19.4518 357.851 19.4557 368.022C19.4588 376.284 19.4592 384.546 19.4577 392.808C19.4575 393.982 19.4573 395.156 19.4571 396.365C19.4567 398.749 19.4562 401.133 19.4558 403.516C19.4519 425.896 19.4564 448.276 19.4636 470.656C19.4697 489.881 19.4686 509.106 19.4624 528.33C19.4552 550.627 19.4523 572.924 19.4565 595.222C19.4569 597.597 19.4573 599.972 19.4577 602.347C19.4579 603.516 19.4582 604.685 19.4584 605.889C19.4595 614.147 19.4576 622.404 19.4544 630.661C19.4506 640.717 19.4516 650.773 19.4588 660.828C19.4624 665.964 19.4637 671.1 19.4593 676.235C19.4546 681.79 19.4602 687.344 19.467 692.899C19.464 694.54 19.4609 696.181 19.4578 697.872C19.4614 699.348 19.4649 700.823 19.4685 702.344C19.4687 703.628 19.469 704.912 19.4692 706.235C19.3325 709.114 19.3325 709.114 20.9907 710.537C25.2786 710.677 29.5372 710.723 33.8258 710.711C35.197 710.712 36.5681 710.714 37.9809 710.716C42.6371 710.719 47.2933 710.713 51.9495 710.707C55.2967 710.707 58.6439 710.709 61.9911 710.71C69.3003 710.713 76.6095 710.711 83.9187 710.705C94.7873 710.697 105.656 710.696 116.525 710.697C134.805 710.699 153.084 710.695 171.364 710.686C189.473 710.678 207.581 710.672 225.689 710.671C226.813 710.671 227.938 710.671 229.096 710.67C234.807 710.67 240.517 710.67 246.228 710.669C286.71 710.666 327.192 710.657 367.674 710.643C407.01 710.63 446.346 710.62 485.682 710.614C486.894 710.614 488.106 710.614 489.355 710.614C501.524 710.612 513.693 710.61 525.862 710.608C550.653 710.605 575.444 710.601 600.235 710.596C601.375 710.596 602.515 710.596 603.69 710.596C679.857 710.583 756.023 710.56 832.19 710.537C832.221 656.482 832.245 602.427 832.259 548.372C832.261 541.997 832.262 535.622 832.264 529.247C832.265 527.978 832.265 526.709 832.265 525.401C832.271 504.824 832.282 484.246 832.294 463.668C832.307 442.57 832.314 421.471 832.317 400.373C832.319 387.343 832.325 374.313 832.336 361.283C832.343 352.361 832.345 343.439 832.343 334.516C832.343 329.36 832.344 324.205 832.351 319.049C832.359 313.473 832.356 307.897 832.352 302.32C832.356 300.673 832.36 299.025 832.364 297.328C832.362 295.846 832.359 294.365 832.356 292.838C832.357 291.549 832.357 290.26 832.358 288.932C832.498 286.044 832.498 286.044 830.838 284.619C826.558 284.478 822.308 284.43 818.028 284.441C816.659 284.439 815.291 284.437 813.881 284.435C809.234 284.43 804.587 284.435 799.94 284.44C796.599 284.438 793.258 284.436 789.918 284.433C782.623 284.428 775.328 284.428 768.033 284.432C757.185 284.437 746.338 284.434 735.49 284.43C716.121 284.422 696.752 284.423 677.383 284.427C660.433 284.431 643.483 284.432 626.533 284.43C625.411 284.43 624.288 284.43 623.132 284.43C618.576 284.429 614.02 284.429 609.465 284.428C566.689 284.424 523.914 284.428 481.139 284.436C443.1 284.442 405.061 284.442 367.022 284.435C324.328 284.427 281.633 284.424 238.938 284.429C234.391 284.429 229.843 284.43 225.295 284.43C223.615 284.43 223.615 284.43 221.902 284.43C204.959 284.432 188.016 284.43 171.073 284.427C151.816 284.422 132.559 284.423 113.303 284.431C102.513 284.435 91.7237 284.436 80.9342 284.43C72.9 284.427 64.8659 284.431 56.8318 284.437C53.5646 284.439 50.2975 284.438 47.0303 284.435C42.6205 284.43 38.2108 284.435 33.8009 284.441C32.5056 284.438 31.2103 284.435 29.8757 284.431C24.3184 283.853 24.3184 283.853 19.6387 286.034Z" stroke="black" stroke-width="12" mask="url(#path-1-outside-1_1781_1741)"/>
<path d="M733.413 552.534C744.707 552.622 754.654 554.656 763.434 563.466L766.095 566.124L766.115 566.143L766.134 566.163C767.44 567.517 767.445 567.521 768.769 568.894L771.474 571.564L771.489 571.578L771.504 571.594C776.054 576.214 779.004 580.432 780.764 585.264C782.51 590.054 782.997 595.205 783.014 601.502V601.535C783.002 603.018 782.99 604.502 782.977 606.03C782.989 607.497 783.002 608.964 783.014 610.475V610.508C782.994 617.787 782.997 624.578 779.062 631.947L778.216 633.535H775.414C775.117 634.424 774.818 635.32 774.514 636.231L774.254 637.014L773.63 637.553C771.35 639.522 769.018 641.518 766.602 643.432L766.603 643.433C763.816 645.655 763.924 645.545 760.206 649.503L760.16 649.551L760.112 649.598C757.323 652.313 754.677 654.39 751.601 655.75C748.504 657.12 745.191 657.668 741.194 657.671C739.177 657.683 739.177 657.684 737.118 657.696H737.085C735.617 657.689 734.15 657.682 732.638 657.675C731.075 657.68 729.513 657.685 727.902 657.69H727.9C722.625 657.703 717.35 657.693 712.084 657.683C708.315 657.687 704.545 657.692 700.776 657.699H700.775C691.581 657.712 682.387 657.71 673.194 657.701C665.724 657.694 658.254 657.693 650.783 657.696C649.718 657.697 648.657 657.698 647.56 657.698L641.081 657.701C620.817 657.71 600.553 657.7 580.291 657.683C562.915 657.668 545.538 657.671 528.161 657.686C507.978 657.702 487.795 657.709 467.611 657.699C465.458 657.698 463.304 657.697 461.151 657.696L457.94 657.695C454.212 657.694 450.483 657.695 446.755 657.696L435.568 657.704C425.518 657.713 415.467 657.708 405.418 657.689V657.688C401.733 657.684 398.049 657.686 394.365 657.693C389.328 657.702 384.293 657.691 379.262 657.675C377.806 657.682 376.349 657.689 374.848 657.696H374.815C368.293 657.657 362.498 657.181 357.049 655.452C351.544 653.706 346.551 650.733 341.523 645.926L341.488 645.893L341.454 645.857L341.276 645.676C341.307 645.707 341.2 645.599 341.231 645.631C341.215 645.615 341.236 645.635 341.22 645.619C341.219 645.617 341.211 645.61 341.209 645.608C341.193 645.592 341.202 645.601 341.186 645.585C341.139 645.536 341.19 645.589 341.142 645.54C341.094 645.491 341.167 645.566 341.12 645.518C341.115 645.513 341.102 645.499 341.097 645.494L340.92 645.312L340.869 645.262C340.867 645.26 340.866 645.258 340.864 645.256L340.83 645.222C340.803 645.195 340.812 645.203 340.786 645.176C340.761 645.15 340.766 645.157 340.741 645.131C340.723 645.113 340.736 645.126 340.719 645.107C340.716 645.104 340.698 645.087 340.696 645.085C340.658 645.046 340.69 645.079 340.652 645.04L340.562 644.948C340.459 644.843 340.577 644.963 340.473 644.857C340.458 644.842 340.399 644.783 340.384 644.767C340.378 644.761 340.378 644.76 340.373 644.755L340.339 644.721C340.282 644.663 340.35 644.732 340.294 644.675C340.288 644.669 340.211 644.59 340.205 644.584C340.202 644.582 340.195 644.575 340.193 644.572C340.185 644.564 340.191 644.569 340.182 644.561C340.172 644.55 340.17 644.549 340.16 644.538C340.157 644.535 340.141 644.518 340.137 644.515L340.093 644.47L340.07 644.446L339.98 644.354C339.968 644.342 339.961 644.335 339.958 644.332C339.933 644.307 339.96 644.334 339.935 644.309L339.913 644.286C339.908 644.281 339.907 644.279 339.902 644.274C339.9 644.273 339.898 644.27 339.896 644.269C339.894 644.267 339.892 644.265 339.89 644.264L339.621 643.988L339.576 643.941C339.515 643.879 339.546 643.912 339.485 643.85C339.476 643.84 339.472 643.837 339.463 643.827C339.423 643.787 339.48 643.844 339.44 643.804C339.325 643.686 339.51 643.875 339.395 643.758C339.381 643.744 339.386 643.749 339.372 643.734C339.368 643.731 339.353 643.714 339.349 643.711C339.343 643.704 339.334 643.695 339.327 643.688C339.325 643.687 339.306 643.667 339.304 643.665C339.3 643.66 339.218 643.577 339.214 643.572C339.181 643.539 339.202 643.56 339.169 643.526C339.074 643.43 339.217 643.576 339.123 643.48L338.941 643.295C338.877 643.229 338.914 643.267 338.849 643.201C338.808 643.159 338.8 643.151 338.759 643.108C338.715 643.064 338.756 643.106 338.713 643.062C338.676 643.024 338.727 643.076 338.69 643.038L338.667 643.015C338.541 642.887 338.701 643.05 338.575 642.922V642.921C337.592 641.919 336.611 640.919 335.598 639.887L335.55 639.836C331.811 635.841 328.825 632.143 326.83 627.9C324.821 623.628 323.905 618.994 323.969 613.204C323.875 611.413 323.78 609.621 323.682 607.776L323.681 607.75L323.68 607.723C323.314 597.182 323.455 588.41 329.063 578.493C329.315 577.99 329.566 577.487 329.819 576.98C330.082 576.454 330.347 575.924 330.616 575.386L332.781 576.468V576.381C330.91 575.133 330.809 575.067 330.804 575.062L330.806 575.059L330.82 575.038C330.827 575.028 330.836 575.015 330.846 575C330.867 574.97 330.895 574.929 330.928 574.882C330.996 574.787 331.09 574.658 331.21 574.501C331.449 574.187 331.794 573.757 332.244 573.251C333.11 572.276 334.382 571.006 336.059 569.725C338.747 567.02 338.865 566.915 342.239 564.054C343.34 563.109 344.442 562.164 345.577 561.19L345.611 561.161L345.645 561.134C356.532 552.344 366.668 552.921 378.72 552.933C380.275 552.928 381.83 552.923 383.431 552.918H383.432C388.655 552.904 393.877 552.903 399.095 552.9V552.899C402.836 552.892 406.577 552.885 410.317 552.876H410.318C421.546 552.853 432.773 552.843 443.999 552.835C449.287 552.831 454.577 552.825 459.866 552.819C477.452 552.8 495.039 552.784 512.627 552.778C514.314 552.778 514.315 552.778 516.036 552.777C517.163 552.777 518.29 552.777 519.452 552.776C521.736 552.776 524.022 552.775 526.306 552.774C527.44 552.774 528.573 552.774 529.74 552.773C548.104 552.767 566.469 552.739 584.835 552.702C603.702 552.665 622.569 552.645 641.436 552.644C652.023 552.642 662.609 552.633 673.194 552.604H673.195C683.157 552.578 693.117 552.575 703.078 552.589C706.728 552.59 710.378 552.583 714.027 552.567H714.028C719.018 552.547 724.006 552.557 728.987 552.573C730.431 552.561 731.875 552.547 733.363 552.534H733.413ZM395.452 579.401C381.425 579.047 375.278 578.947 370.167 580.9C365.16 582.814 360.986 586.76 351.648 595.865C350.557 598.405 350.175 599.366 350.014 600.267C349.851 601.183 349.903 602.104 350.136 604.971L350.15 605.127L350.146 605.284C350.11 606.828 350.072 608.373 350.035 609.954C353.215 618.515 358.119 625.135 366.031 629.295C377.114 632.103 388.958 631.234 401.086 631.09H401.133C404.829 631.104 408.526 631.124 412.221 631.15H412.22C422.2 631.202 432.18 631.155 442.175 631.087H442.178C451.602 631.035 461.024 631.049 470.433 631.061L484.413 631.062C498.392 631.048 512.372 630.996 526.354 630.92C544.435 630.822 562.517 630.788 580.598 630.822C600.305 630.86 620.009 630.862 639.713 630.804C650.138 630.773 660.566 630.755 670.996 630.772C680.782 630.786 690.567 630.744 700.355 630.66H700.363C703.966 630.638 707.57 630.634 711.175 630.65H711.174C716.057 630.67 720.941 630.622 725.844 630.557L725.887 630.556L725.93 630.557C728.04 630.589 728.055 630.588 730.167 630.62C734.697 630.506 737.888 629.803 740.699 628.469C743.541 627.12 746.203 625.03 749.564 621.799C752.611 618.356 754.046 615.317 754.761 612.072C755.5 608.722 755.504 605.061 755.46 600.139C754.782 596.557 753.619 594.037 752.004 591.817C750.322 589.507 748.101 587.439 745.089 584.773C740.434 581.715 736.389 581.115 730.288 581.071H730.28C728.982 581.058 727.683 581.046 726.345 581.032V581.031C724.235 581.022 724.229 581.023 722.065 581.014H722.053C720.541 581.001 719.028 580.988 717.469 580.976V580.975C712.391 580.935 707.312 580.908 702.229 580.88L702.224 580.879C698.585 580.853 694.945 580.828 691.305 580.802V580.801C658.098 580.572 624.887 580.454 591.674 580.36C587.23 580.348 582.786 580.334 578.342 580.321C577.237 580.318 576.133 580.315 574.995 580.312C557.105 580.257 539.218 580.143 521.333 580.004C502.966 579.863 484.6 579.782 466.232 579.757H466.231C455.915 579.741 445.596 579.698 435.273 579.589V579.588C425.585 579.487 415.897 579.461 406.205 579.491H406.194C402.623 579.489 399.051 579.461 395.479 579.402L395.466 579.401H395.452Z" fill="#040504" stroke="black" stroke-width="6"/>
<path d="M722.41 396.888C729.474 396.817 734.865 396.763 739.108 396.896C743.345 397.03 746.634 397.354 749.456 398.111C755.273 399.673 758.657 403.005 764.18 408.325L768.1 411.626L768.205 411.715L768.302 411.812C769.744 413.272 769.752 413.282 771.205 414.753H771.206L774.209 417.721L774.327 417.836L774.43 417.963C783.154 428.7 783.404 438.504 783.374 450.792L783.508 455.579L783.509 455.617V455.656C783.527 462.357 782.688 467.545 780.529 472.295C778.386 477.008 775.054 481.041 770.533 485.588L770.433 485.688L770.325 485.778C769.318 486.616 768.311 487.453 767.274 488.316L767.275 488.317C766.263 489.172 765.251 490.028 764.208 490.908L764.187 490.927L764.165 490.944C763.12 491.793 762.076 492.642 761.001 493.515C759.435 495.041 759.401 495.075 757.736 496.696L757.541 496.887L757.314 497.038C750.712 501.469 745.16 501.492 738.394 501.424C737.133 501.436 735.87 501.448 734.571 501.46H734.565C730.297 501.493 726.033 501.48 721.787 501.468C718.738 501.482 715.69 501.498 712.641 501.517H712.638C704.34 501.559 696.044 501.561 687.753 501.553C680.837 501.549 673.92 501.565 666.998 501.58C654.745 501.606 642.493 501.613 630.242 501.607L617.991 501.598C601.155 501.579 584.32 501.617 567.481 501.685H567.48C553.011 501.74 538.542 501.759 524.074 501.749C515.44 501.743 506.81 501.752 498.181 501.796H498.18C490.044 501.836 481.91 501.829 473.776 501.788C470.811 501.781 467.847 501.789 464.883 501.815H464.881C451.523 501.924 444.263 502.006 439.266 500.859C433.907 499.63 431.036 496.969 426.571 492.853C422.38 490.266 418.047 485.512 414.508 480.571C410.867 475.488 407.764 469.78 406.391 465.231L406.306 464.951L406.277 464.659C405.772 459.539 405.749 454.491 405.768 449.517C405.743 448.234 405.718 446.951 405.692 445.63L405.691 445.603V445.574C405.682 434.121 408.006 425.007 416.194 416.067L416.242 416.015L416.292 415.964C417.95 414.319 419.624 412.69 421.314 411.078C422.137 410.257 422.96 409.436 423.807 408.591L423.818 408.58L423.829 408.57C428.246 404.252 432.087 401.408 436.533 399.718C440.946 398.041 445.687 397.607 451.69 397.619V397.618C452.945 397.609 454.201 397.599 455.495 397.589H455.498C459.715 397.561 463.931 397.557 468.138 397.553V397.552C471.155 397.537 474.173 397.522 477.19 397.505H477.192C485.401 397.463 493.609 397.443 501.814 397.429L517.192 397.393H517.193C533.24 397.349 549.287 397.318 565.334 397.306C583.844 397.291 602.354 397.236 620.865 397.145L631.605 397.1C642.345 397.062 653.084 397.043 663.824 397.04L670.231 397.034C676.638 397.025 683.043 397.004 689.447 396.962H689.448C697.503 396.91 705.555 396.903 713.607 396.931C716.541 396.933 719.475 396.919 722.408 396.888H722.41ZM744.703 428.341C740.737 425.206 737.416 425.355 731.175 425.456L731.144 425.457H731.114L727.416 425.44C723.344 425.43 719.272 425.464 715.178 425.499H715.155C712.221 425.501 709.288 425.501 706.355 425.497C698.4 425.495 690.443 425.532 682.48 425.576H682.477C674.148 425.616 665.82 425.618 657.5 425.626L657.501 425.627C641.745 425.647 625.987 425.698 610.228 425.762C601.255 425.797 592.283 425.824 583.311 425.846L556.396 425.899C520.266 425.964 457.038 426.206 446.271 426.216C441.589 428.286 438.299 432.535 436.094 437.09C433.813 441.803 432.923 446.378 432.81 447.961L432.807 448.002L432.803 448.043C432.744 448.645 432.771 449.442 432.817 450.544C432.85 451.35 432.893 452.353 432.845 453.314C435.283 461.942 440.549 467.366 448.454 472.644C457.442 474.724 466.241 474.596 475.941 474.466L475.971 474.465H476C478.9 474.484 481.8 474.51 484.699 474.542H484.698C492.497 474.607 500.298 474.573 508.117 474.517H508.122C516.344 474.47 524.567 474.503 532.768 474.523H532.767C546.536 474.545 560.304 474.501 574.077 474.419L580.047 474.389C593.978 474.329 607.905 474.348 621.832 474.41H621.831C637.154 474.476 652.479 474.46 667.808 474.41L672.699 474.4C677.589 474.396 682.48 474.408 687.37 474.433H687.369C695.024 474.468 702.679 474.431 710.338 474.343H710.35C713.176 474.321 716.003 474.324 718.831 474.354H718.859C728.071 474.536 732.092 474.589 735.739 473.627C739.306 472.686 742.606 470.748 750.006 466.286C752.55 463.244 754.011 460.927 754.851 458.534C755.721 456.056 756.013 453.246 755.814 449.077L755.812 449.034L755.811 448.99C755.776 447.113 755.741 445.236 755.706 443.308C755.004 440.416 754.167 438.655 753.06 437.167C751.846 435.535 750.211 434.085 747.568 431.832L747.35 431.646L747.171 431.424C746.355 430.404 745.54 429.387 744.703 428.341Z" fill="#040504" stroke="black" stroke-width="6"/>
<path d="M158.882 171.832C165.634 170.397 172.64 171.492 179.993 175.254L180.706 175.626L180.852 175.704L180.989 175.799C187.421 180.207 192.579 185.759 194.936 194.003L194.97 194.122L194.995 194.243C196.878 203.724 196.592 212.955 191.716 221.856L191.636 222.001L191.542 222.135C186.332 229.579 179.77 235.1 170.572 237.062L170.387 237.102L170.198 237.117C162.064 237.803 154.599 237.278 146.981 232.477L146.73 232.319L146.515 232.115C139.821 225.761 134.401 218.79 133.136 208.503L133.117 208.342L133.114 208.179C132.99 199.226 133.563 191.363 139.506 183.453L139.641 183.271L139.804 183.112C145.697 177.337 151.977 173.3 158.882 171.832ZM165.45 196.908C164.07 196.906 162.375 197.509 159.628 198.926C158.107 200.249 157.997 200.427 157.929 200.583C157.905 200.639 157.837 200.82 157.784 201.39C157.73 201.97 157.707 202.731 157.675 203.917C157.762 206.663 157.824 207.317 158.01 207.8C158.169 208.21 158.457 208.597 159.964 210.256C161.879 211.467 162.195 211.591 162.464 211.626C162.555 211.638 162.772 211.65 163.359 211.528C163.963 211.404 164.734 211.188 165.939 210.848C168.243 210.026 168.915 209.763 169.415 209.432C169.797 209.177 170.118 208.856 171.058 207.761C171.225 205.945 171.268 204.597 171.123 203.348C170.974 202.066 170.609 200.783 169.82 199.173C167.888 197.32 166.564 196.91 165.45 196.908Z" fill="#040504" stroke="black" stroke-width="6"/>
<path d="M234.148 174.266C243.863 169.918 253.341 170.258 262.807 175.117L262.944 175.188L263.072 175.271C270.207 179.908 275.221 185.8 278.679 193.492L279.009 194.243L279.163 194.598L279.22 194.979C280.664 204.527 280.35 214.68 274.639 223.586L274.512 223.783L274.358 223.958C266.562 232.745 257.632 236.295 246.56 237.349L246.291 237.374L246.02 237.351C235.28 236.432 227.639 231.213 220.986 223.351L220.905 223.255L220.833 223.153C214.263 213.93 214.996 204.373 216.163 194.637L216.205 194.286L216.327 193.955C219.64 184.973 225.783 178.709 233.964 174.355L234.055 174.308L234.148 174.266ZM250.346 196.604C247.575 196.611 246.125 196.679 244.888 197.047C243.854 197.355 242.796 197.932 241.166 199.354C240.508 202.638 240.523 205.576 241.201 208.883C242.326 210.15 242.647 210.461 242.975 210.659C243.309 210.861 243.728 210.996 245.556 211.43C247.542 211.261 248.836 210.967 250.006 210.499C251.078 210.071 252.149 209.459 253.632 208.492C254.127 205.373 254.007 202.284 253.503 198.956C252.637 197.764 252.416 197.512 252.205 197.353C252.014 197.208 251.772 197.09 250.346 196.604Z" fill="#040504" stroke="black" stroke-width="6"/>
<path d="M57.9971 180.416C67.9853 171.315 79.9406 169.167 92.6045 173.117L92.8906 173.206L93.1543 173.351C100.752 177.518 106.175 184.514 110.216 191.674L110.603 192.367L110.808 192.738L110.901 193.152C113.144 203.043 112.773 213.611 107.396 222.837L107.263 223.066L107.091 223.269C100.7 230.792 93.9883 235.992 83.6865 237.266L83.5918 237.277L83.4961 237.282C75.0705 237.781 68.5092 235.951 61.5996 230.729L61.4443 230.612L61.3057 230.476C57.6559 226.891 54.7349 223.296 52.6768 219.158C50.6071 214.997 49.483 210.434 49.2275 204.996L49.2227 204.892L49.2256 204.787C49.4281 195.872 51.6781 187.657 57.7529 180.666L57.8682 180.534L57.9971 180.416ZM84.6494 197.384C82.3514 196.692 80.7603 196.394 79.3604 196.481C78.1163 196.559 76.8145 196.958 75.1562 198.071C73.8809 201.123 74.0235 203.702 74.3633 207.879C75.1679 209.467 75.399 209.852 75.6592 210.125C75.8917 210.369 76.1986 210.578 77.502 211.299C81.19 211.192 83.5942 210.796 86.4219 209.128C87.6638 206.614 87.5987 204.714 87.1777 201.031C86.5769 199.509 86.3993 199.119 86.1816 198.814C85.9824 198.536 85.7151 198.279 84.6494 197.384Z" fill="#040504" stroke="black" stroke-width="6"/>
</g>
<defs>
<clipPath id="clip0_1781_1741">
<rect width="853" height="853" fill="white"/>
</clipPath>
</defs>
</svg>
