<svg width="853" height="853" viewBox="0 0 853 853" fill="none" xmlns="http://www.w3.org/2000/svg">
<mask id="path-1-outside-1_1781_1517" maskUnits="userSpaceOnUse" x="144.029" y="102.214" width="481" height="481" fill="black">
<rect fill="white" x="144.029" y="102.214" width="481" height="481"/>
<path d="M384.294 105.239C385.404 105.231 386.513 105.224 387.657 105.216C403.535 105.144 418.66 106.64 434.257 109.578C435.62 109.826 435.62 109.826 437.011 110.079C479.504 117.837 516.719 142.729 548.268 171.193C548.914 171.769 549.56 172.345 550.226 172.938C553.521 175.959 555.983 178.596 557.631 182.79C558.462 182.79 559.293 182.79 560.149 182.79C563.832 186.718 566.977 191.119 570.221 195.413C571.188 196.681 572.155 197.948 573.151 199.254C586.661 217.351 598.058 237.152 605.47 258.527C606.02 260.08 606.571 261.632 607.137 263.231C608.761 267.953 610.283 272.694 611.765 277.462C612.219 278.877 612.674 280.293 613.142 281.751C624.955 321.683 624.974 370.399 611.765 410.001C611.246 411.567 611.246 411.567 610.717 413.165C601.421 440.8 589.164 469.927 568.558 491.103C566.346 493.195 566.346 493.195 565.185 495.836C564.354 495.836 563.523 495.836 562.667 495.836C562.2 496.891 562.2 496.891 561.723 497.966C559.861 501.421 557.714 504.264 555.113 507.197C554.283 507.197 553.452 507.197 552.596 507.197C552.18 508.446 551.765 509.696 551.337 510.984C549.542 512.843 549.542 512.843 547.167 514.849C545.806 516.004 545.806 516.004 544.418 517.182C543.377 518.052 542.337 518.923 541.265 519.82C540.082 520.833 538.899 521.847 537.68 522.892C523.219 535.184 507.129 547.428 489.59 555.017C486.943 556.296 486.943 556.296 485.354 559.031C482.631 562.36 480.765 562.269 476.554 562.703C469.455 563.678 463.266 565.584 456.563 568.07C422.316 580.763 383.375 582.894 347.392 576.622C346.258 576.425 345.125 576.229 343.957 576.026C310.584 570.03 281.602 558.518 253.031 540.382C250.68 538.896 248.315 537.436 245.941 535.988C244.678 535.208 243.416 534.429 242.115 533.626C241.034 532.96 239.953 532.295 238.84 531.609C237.734 530.772 237.734 530.772 236.607 529.918C236.607 529.085 236.607 528.252 236.607 527.393C235.876 527.065 235.145 526.736 234.393 526.397C229.32 523.649 225.431 519.428 221.264 515.481C219.873 514.191 219.873 514.191 218.453 512.875C217.571 512.044 216.689 511.213 215.781 510.357C214.573 509.221 214.573 509.221 213.341 508.062C211.429 505.935 211.429 505.935 210.17 502.148C209.339 502.148 208.508 502.148 207.652 502.148C205.492 499.698 203.494 497.245 201.515 494.653C200.904 493.855 200.292 493.058 199.663 492.236C198.36 490.524 197.063 488.808 195.771 487.088C194.498 485.398 193.215 483.715 191.92 482.041C164.133 446.042 147.915 398.724 147.224 353.198C147.175 351.727 147.126 350.257 147.076 348.741C145.964 291.747 164.664 239.272 198.839 194.151C199.662 193.038 200.485 191.925 201.333 190.778C202.12 189.73 202.907 188.682 203.718 187.603C204.416 186.674 205.113 185.745 205.832 184.787C206.733 183.799 206.733 183.799 207.652 182.79C208.483 182.79 209.314 182.79 210.17 182.79C210.47 182.076 210.77 181.362 211.079 180.626C213.03 177.126 215.407 174.772 218.274 171.982C219.259 171.017 220.244 170.052 221.259 169.058C222.169 168.175 223.08 167.291 224.018 166.381C225.052 165.27 225.052 165.27 226.108 164.137C227.795 162.594 227.795 162.594 230.312 162.594C230.312 161.761 230.312 160.928 230.312 160.069C232.988 158.156 232.988 158.156 236.607 155.967C240.86 153.337 244.964 150.715 248.881 147.604C269.8 131.684 294.695 120.961 319.696 113.365C321.439 112.745 321.439 112.745 323.217 112.112C343.111 105.836 363.628 105.278 384.294 105.239ZM260.556 159.473C256.936 162.115 253.127 164.239 249.196 166.381C249.196 167.214 249.196 168.047 249.196 168.905C248.489 169.231 247.781 169.556 247.052 169.891C243.824 171.609 241.073 173.611 238.181 175.848C236.671 177 236.671 177 235.132 178.175C234.372 178.865 233.613 179.555 232.83 180.266C232.83 181.099 232.83 181.932 232.83 182.79C231.999 182.79 231.168 182.79 230.312 182.79C224.232 188.698 218.516 195.837 213.946 202.987C213.946 203.82 213.946 204.653 213.946 205.511C213.231 205.775 212.515 206.039 211.778 206.31C202.229 212.058 196.319 226.275 192.756 236.363C191.286 239.593 191.286 239.593 188.857 242.014C185.574 245.324 183.887 248.934 182.08 253.163C181.709 254.027 181.338 254.891 180.955 255.781C169.968 282.401 164.886 309.439 163.904 338.051C163.875 338.896 163.845 339.74 163.815 340.61C163.496 350.382 163.523 359.911 164.849 369.608C167.415 368 169.933 366.313 172.402 364.559C172.402 363.726 172.402 362.893 172.402 362.034C173.133 361.679 173.865 361.324 174.618 360.958C177.266 359.598 179.751 358.126 182.267 356.537C217.932 334.191 254.988 323.549 296.232 316.348C332.12 310.082 366.824 301.011 396.49 278.724C397.752 277.827 399.015 276.931 400.316 276.007C411.604 267.731 421.27 258.049 430.98 247.988C431.979 246.957 431.979 246.957 432.998 245.904C433.644 245.198 434.289 244.491 434.954 243.763C437.646 241.331 439.765 241.743 443.306 241.881C444.44 241.915 445.574 241.949 446.743 241.984C448.041 242.05 448.041 242.05 449.364 242.118C449.512 243.021 449.661 243.925 449.813 244.855C450.657 248.58 451.914 251.651 453.51 255.115C462.002 274.04 468.127 292.425 472.025 312.805C472.345 314.478 472.345 314.478 472.672 316.184C483.928 376.879 478.32 446.891 453.141 503.41C452.576 504.783 452.012 506.157 451.43 507.572C449.135 512.943 446.374 518.03 443.542 523.133C442.993 524.124 442.444 525.114 441.879 526.135C436.915 534.959 431.333 543.153 425.445 551.377C423.746 553.889 422.076 556.417 420.409 558.95C429.233 558.349 437.352 556.816 445.824 554.296C446.981 553.953 448.138 553.611 449.33 553.258C477.025 544.897 503.131 531.528 524.899 512.246C525.589 511.637 526.278 511.027 526.988 510.399C559.362 481.55 582.118 448.5 595.084 407.003C595.439 405.888 595.794 404.772 596.159 403.623C602.04 384.011 603.648 364.509 603.503 344.126C603.498 342.433 603.498 342.433 603.493 340.706C603.412 323.025 602.415 306 597.917 288.822C597.681 287.903 597.445 286.985 597.202 286.038C595.633 280.12 593.749 274.364 591.622 268.626C591.313 267.784 591.003 266.943 590.684 266.077C579.968 237.488 564.942 212.41 543.783 190.364C543.185 189.732 542.587 189.099 541.97 188.448C528.473 174.231 514.012 162.631 497.203 152.496C495.962 151.708 494.72 150.921 493.441 150.109C424.688 108.169 325.608 111.069 260.556 159.473ZM434.808 266.574C431.454 269.443 431.454 269.443 431.739 272.412C430.727 272.751 429.714 273.089 428.671 273.438C427.606 273.933 426.542 274.427 425.445 274.937C425.029 276.187 424.614 277.436 424.186 278.724C421.85 280.026 421.85 280.026 419.15 281.248C417.735 282.266 416.346 283.321 414.98 284.404C375.608 314.322 331.707 326.213 283.836 335.101C282.721 335.308 281.606 335.515 280.458 335.729C279.362 335.932 278.266 336.136 277.136 336.345C241.417 343.007 209.668 353.963 181.215 377.182C179.345 378.431 179.345 378.431 177.438 379.706C177.438 380.539 177.438 381.373 177.438 382.231C176.659 382.595 175.88 382.96 175.077 383.335C172.234 384.676 172.234 384.676 169.884 387.28C167.287 417.076 189.217 451.674 206.393 474.378C207.295 475.614 208.198 476.851 209.127 478.125C212.017 482.058 212.017 482.058 215.205 485.738C216.036 485.738 216.867 485.738 217.723 485.738C218.229 486.858 218.229 486.858 218.745 488.001C221.224 492.619 224.977 495.95 228.66 499.623C229.415 500.401 230.171 501.179 230.949 501.98C235.832 506.881 240.529 510.342 246.678 513.508C247.184 500.939 245.858 490.092 242.98 477.849C235.887 445.519 238.349 421.751 250.455 391.067C250.794 390.159 251.134 389.251 251.484 388.315C252.427 385.894 252.427 385.894 254.232 382.231C255.478 381.814 256.725 381.398 258.009 380.969C254.585 399.007 254.585 399.007 252.265 406.688C250.615 412.56 249.651 418.398 248.881 424.438C248.707 425.702 248.707 425.702 248.53 426.992C246.572 443.915 250.988 460.851 254.218 477.366C256.732 490.285 258.741 502.851 259.268 516.033C280.237 503.078 302.194 483.66 315.919 463.017C316.321 459.693 316.321 459.693 316.234 455.996C316.24 454.77 316.247 453.545 316.253 452.283C315.469 441.939 312.635 432.165 309.546 422.308C303.49 402.913 301.822 384.922 309.624 365.821C310.479 363.302 311.322 360.778 312.142 358.248C312.973 358.664 313.804 359.081 314.66 359.51C314.516 360.546 314.516 360.546 314.369 361.603C310.615 389.834 316.842 411.939 324.731 439.034C325.575 441.978 326.413 444.923 327.249 447.87C333.123 442.372 337.803 436.176 342.592 429.724C343.359 428.707 344.126 427.69 344.916 426.643C346.542 424.462 348.143 422.263 349.722 420.047C351.701 417.316 353.716 414.706 355.832 412.087C365.68 399.382 366.523 389.359 365.489 373.632C365.278 369.575 365.107 365.518 364.968 361.457C364.932 360.502 364.896 359.547 364.859 358.562C364.706 350.777 366.531 344.982 370.052 338.051C370.052 337.218 370.052 336.385 370.052 335.526C371.299 336.36 372.545 337.193 373.829 338.051C373.414 339.483 372.998 340.915 372.57 342.39C369.563 355.926 370.922 371.092 372.57 384.755C376.522 379.681 379.709 374.202 382.996 368.681C383.71 367.737 384.424 366.794 385.159 365.821C386.406 365.821 387.652 365.821 388.936 365.821C389.445 373.86 388.179 378.798 384.451 385.86C382.918 388.835 381.493 391.794 380.124 394.854C380.539 395.687 380.955 396.52 381.383 397.378C403.133 389.165 403.133 389.165 422.927 377.182C423.969 376.427 425.011 375.672 426.084 374.894C431.275 371.011 435.361 367.238 439.293 362.034C440.124 362.034 440.955 362.034 441.811 362.034C439.118 374.033 429.187 381.669 419.322 388.074C407.6 395.149 394.374 400.205 381.598 405.036C380.479 405.463 379.359 405.889 378.206 406.328C377.209 406.695 376.212 407.063 375.185 407.442C370.205 409.912 367.913 414.248 365.017 418.837C363.381 421.254 361.725 423.656 360.068 426.059C358.255 428.692 356.455 431.333 354.655 433.975C350.827 439.563 346.848 445.028 342.814 450.468C340.977 452.592 340.977 452.592 341.097 454.181C350.015 454.442 358.42 453.673 367.22 452.288C377.937 450.697 388.16 449.893 399.008 450.394C398.924 452.717 398.924 452.717 397.749 455.443C394.766 456.834 392.151 457.792 389.015 458.678C388.117 458.944 387.22 459.209 386.295 459.483C371.384 463.714 355.949 465.655 340.554 467.14C331.801 468.048 327.237 470.091 321.112 476.429C320.015 477.56 318.918 478.69 317.788 479.856C314.428 483.462 311.222 487.171 308.036 490.93C304.854 494.393 301.303 497.35 297.669 500.323C296.732 501.226 296.732 501.226 295.776 502.148C295.776 502.981 295.776 503.814 295.776 504.672C295.07 504.978 294.364 505.284 293.637 505.599C290.16 507.517 287.593 509.859 284.682 512.562C280.83 516.109 276.965 519.605 272.958 522.975C271.764 524.017 270.569 525.058 269.339 526.131C269.339 526.548 269.339 526.964 269.339 527.393C270.079 527.418 270.819 527.443 271.582 527.469C295.979 528.333 295.979 528.333 307.185 529.997C331.485 533.519 352.465 527.255 375.322 519.882C376.861 519.388 378.4 518.894 379.986 518.385C381.376 517.933 382.765 517.481 384.197 517.016C387.677 516.033 387.677 516.033 391.454 516.033C391.869 516.866 392.285 517.699 392.713 518.557C391.65 518.891 390.587 519.225 389.492 519.568C385.775 520.867 382.247 522.35 378.675 523.998C369.605 528.172 360.403 531.657 350.933 534.809C349.804 535.185 348.675 535.562 347.512 535.949C338.911 538.758 331.403 540.205 322.307 540.139C320.895 540.137 320.895 540.137 319.455 540.134C316.466 540.127 313.478 540.111 310.49 540.095C308.456 540.089 306.423 540.083 304.389 540.078C299.42 540.064 294.451 540.042 289.482 540.016C314.113 558.982 354.495 562.5 384.53 563.053C385.39 563.08 386.251 563.107 387.137 563.135C391.058 563.161 393.633 562.928 397.08 560.982C399.297 559.113 399.297 559.113 399.008 556.426C400.254 556.009 401.5 555.593 402.784 555.164C405.088 552.581 407.214 550.014 409.315 547.274C410.237 546.079 410.237 546.079 411.178 544.86C430.527 519.393 446.272 487.137 451.208 455.35C451.882 451.656 451.882 451.656 453.104 448.648C472.837 398.342 464.469 322.126 444.55 272.984C442.981 269.703 441.277 266.623 439.293 263.576C437.455 263.433 437.455 263.433 434.808 266.574Z"/>
</mask>
<path d="M384.294 105.239C385.404 105.231 386.513 105.224 387.657 105.216C403.535 105.144 418.66 106.64 434.257 109.578C435.62 109.826 435.62 109.826 437.011 110.079C479.504 117.837 516.719 142.729 548.268 171.193C548.914 171.769 549.56 172.345 550.226 172.938C553.521 175.959 555.983 178.596 557.631 182.79C558.462 182.79 559.293 182.79 560.149 182.79C563.832 186.718 566.977 191.119 570.221 195.413C571.188 196.681 572.155 197.948 573.151 199.254C586.661 217.351 598.058 237.152 605.47 258.527C606.02 260.08 606.571 261.632 607.137 263.231C608.761 267.953 610.283 272.694 611.765 277.462C612.219 278.877 612.674 280.293 613.142 281.751C624.955 321.683 624.974 370.399 611.765 410.001C611.246 411.567 611.246 411.567 610.717 413.165C601.421 440.8 589.164 469.927 568.558 491.103C566.346 493.195 566.346 493.195 565.185 495.836C564.354 495.836 563.523 495.836 562.667 495.836C562.2 496.891 562.2 496.891 561.723 497.966C559.861 501.421 557.714 504.264 555.113 507.197C554.283 507.197 553.452 507.197 552.596 507.197C552.18 508.446 551.765 509.696 551.337 510.984C549.542 512.843 549.542 512.843 547.167 514.849C545.806 516.004 545.806 516.004 544.418 517.182C543.377 518.052 542.337 518.923 541.265 519.82C540.082 520.833 538.899 521.847 537.68 522.892C523.219 535.184 507.129 547.428 489.59 555.017C486.943 556.296 486.943 556.296 485.354 559.031C482.631 562.36 480.765 562.269 476.554 562.703C469.455 563.678 463.266 565.584 456.563 568.07C422.316 580.763 383.375 582.894 347.392 576.622C346.258 576.425 345.125 576.229 343.957 576.026C310.584 570.03 281.602 558.518 253.031 540.382C250.68 538.896 248.315 537.436 245.941 535.988C244.678 535.208 243.416 534.429 242.115 533.626C241.034 532.96 239.953 532.295 238.84 531.609C237.734 530.772 237.734 530.772 236.607 529.918C236.607 529.085 236.607 528.252 236.607 527.393C235.876 527.065 235.145 526.736 234.393 526.397C229.32 523.649 225.431 519.428 221.264 515.481C219.873 514.191 219.873 514.191 218.453 512.875C217.571 512.044 216.689 511.213 215.781 510.357C214.573 509.221 214.573 509.221 213.341 508.062C211.429 505.935 211.429 505.935 210.17 502.148C209.339 502.148 208.508 502.148 207.652 502.148C205.492 499.698 203.494 497.245 201.515 494.653C200.904 493.855 200.292 493.058 199.663 492.236C198.36 490.524 197.063 488.808 195.771 487.088C194.498 485.398 193.215 483.715 191.92 482.041C164.133 446.042 147.915 398.724 147.224 353.198C147.175 351.727 147.126 350.257 147.076 348.741C145.964 291.747 164.664 239.272 198.839 194.151C199.662 193.038 200.485 191.925 201.333 190.778C202.12 189.73 202.907 188.682 203.718 187.603C204.416 186.674 205.113 185.745 205.832 184.787C206.733 183.799 206.733 183.799 207.652 182.79C208.483 182.79 209.314 182.79 210.17 182.79C210.47 182.076 210.77 181.362 211.079 180.626C213.03 177.126 215.407 174.772 218.274 171.982C219.259 171.017 220.244 170.052 221.259 169.058C222.169 168.175 223.08 167.291 224.018 166.381C225.052 165.27 225.052 165.27 226.108 164.137C227.795 162.594 227.795 162.594 230.312 162.594C230.312 161.761 230.312 160.928 230.312 160.069C232.988 158.156 232.988 158.156 236.607 155.967C240.86 153.337 244.964 150.715 248.881 147.604C269.8 131.684 294.695 120.961 319.696 113.365C321.439 112.745 321.439 112.745 323.217 112.112C343.111 105.836 363.628 105.278 384.294 105.239ZM260.556 159.473C256.936 162.115 253.127 164.239 249.196 166.381C249.196 167.214 249.196 168.047 249.196 168.905C248.489 169.231 247.781 169.556 247.052 169.891C243.824 171.609 241.073 173.611 238.181 175.848C236.671 177 236.671 177 235.132 178.175C234.372 178.865 233.613 179.555 232.83 180.266C232.83 181.099 232.83 181.932 232.83 182.79C231.999 182.79 231.168 182.79 230.312 182.79C224.232 188.698 218.516 195.837 213.946 202.987C213.946 203.82 213.946 204.653 213.946 205.511C213.231 205.775 212.515 206.039 211.778 206.31C202.229 212.058 196.319 226.275 192.756 236.363C191.286 239.593 191.286 239.593 188.857 242.014C185.574 245.324 183.887 248.934 182.08 253.163C181.709 254.027 181.338 254.891 180.955 255.781C169.968 282.401 164.886 309.439 163.904 338.051C163.875 338.896 163.845 339.74 163.815 340.61C163.496 350.382 163.523 359.911 164.849 369.608C167.415 368 169.933 366.313 172.402 364.559C172.402 363.726 172.402 362.893 172.402 362.034C173.133 361.679 173.865 361.324 174.618 360.958C177.266 359.598 179.751 358.126 182.267 356.537C217.932 334.191 254.988 323.549 296.232 316.348C332.12 310.082 366.824 301.011 396.49 278.724C397.752 277.827 399.015 276.931 400.316 276.007C411.604 267.731 421.27 258.049 430.98 247.988C431.979 246.957 431.979 246.957 432.998 245.904C433.644 245.198 434.289 244.491 434.954 243.763C437.646 241.331 439.765 241.743 443.306 241.881C444.44 241.915 445.574 241.949 446.743 241.984C448.041 242.05 448.041 242.05 449.364 242.118C449.512 243.021 449.661 243.925 449.813 244.855C450.657 248.58 451.914 251.651 453.51 255.115C462.002 274.04 468.127 292.425 472.025 312.805C472.345 314.478 472.345 314.478 472.672 316.184C483.928 376.879 478.32 446.891 453.141 503.41C452.576 504.783 452.012 506.157 451.43 507.572C449.135 512.943 446.374 518.03 443.542 523.133C442.993 524.124 442.444 525.114 441.879 526.135C436.915 534.959 431.333 543.153 425.445 551.377C423.746 553.889 422.076 556.417 420.409 558.95C429.233 558.349 437.352 556.816 445.824 554.296C446.981 553.953 448.138 553.611 449.33 553.258C477.025 544.897 503.131 531.528 524.899 512.246C525.589 511.637 526.278 511.027 526.988 510.399C559.362 481.55 582.118 448.5 595.084 407.003C595.439 405.888 595.794 404.772 596.159 403.623C602.04 384.011 603.648 364.509 603.503 344.126C603.498 342.433 603.498 342.433 603.493 340.706C603.412 323.025 602.415 306 597.917 288.822C597.681 287.903 597.445 286.985 597.202 286.038C595.633 280.12 593.749 274.364 591.622 268.626C591.313 267.784 591.003 266.943 590.684 266.077C579.968 237.488 564.942 212.41 543.783 190.364C543.185 189.732 542.587 189.099 541.97 188.448C528.473 174.231 514.012 162.631 497.203 152.496C495.962 151.708 494.72 150.921 493.441 150.109C424.688 108.169 325.608 111.069 260.556 159.473ZM434.808 266.574C431.454 269.443 431.454 269.443 431.739 272.412C430.727 272.751 429.714 273.089 428.671 273.438C427.606 273.933 426.542 274.427 425.445 274.937C425.029 276.187 424.614 277.436 424.186 278.724C421.85 280.026 421.85 280.026 419.15 281.248C417.735 282.266 416.346 283.321 414.98 284.404C375.608 314.322 331.707 326.213 283.836 335.101C282.721 335.308 281.606 335.515 280.458 335.729C279.362 335.932 278.266 336.136 277.136 336.345C241.417 343.007 209.668 353.963 181.215 377.182C179.345 378.431 179.345 378.431 177.438 379.706C177.438 380.539 177.438 381.373 177.438 382.231C176.659 382.595 175.88 382.96 175.077 383.335C172.234 384.676 172.234 384.676 169.884 387.28C167.287 417.076 189.217 451.674 206.393 474.378C207.295 475.614 208.198 476.851 209.127 478.125C212.017 482.058 212.017 482.058 215.205 485.738C216.036 485.738 216.867 485.738 217.723 485.738C218.229 486.858 218.229 486.858 218.745 488.001C221.224 492.619 224.977 495.95 228.66 499.623C229.415 500.401 230.171 501.179 230.949 501.98C235.832 506.881 240.529 510.342 246.678 513.508C247.184 500.939 245.858 490.092 242.98 477.849C235.887 445.519 238.349 421.751 250.455 391.067C250.794 390.159 251.134 389.251 251.484 388.315C252.427 385.894 252.427 385.894 254.232 382.231C255.478 381.814 256.725 381.398 258.009 380.969C254.585 399.007 254.585 399.007 252.265 406.688C250.615 412.56 249.651 418.398 248.881 424.438C248.707 425.702 248.707 425.702 248.53 426.992C246.572 443.915 250.988 460.851 254.218 477.366C256.732 490.285 258.741 502.851 259.268 516.033C280.237 503.078 302.194 483.66 315.919 463.017C316.321 459.693 316.321 459.693 316.234 455.996C316.24 454.77 316.247 453.545 316.253 452.283C315.469 441.939 312.635 432.165 309.546 422.308C303.49 402.913 301.822 384.922 309.624 365.821C310.479 363.302 311.322 360.778 312.142 358.248C312.973 358.664 313.804 359.081 314.66 359.51C314.516 360.546 314.516 360.546 314.369 361.603C310.615 389.834 316.842 411.939 324.731 439.034C325.575 441.978 326.413 444.923 327.249 447.87C333.123 442.372 337.803 436.176 342.592 429.724C343.359 428.707 344.126 427.69 344.916 426.643C346.542 424.462 348.143 422.263 349.722 420.047C351.701 417.316 353.716 414.706 355.832 412.087C365.68 399.382 366.523 389.359 365.489 373.632C365.278 369.575 365.107 365.518 364.968 361.457C364.932 360.502 364.896 359.547 364.859 358.562C364.706 350.777 366.531 344.982 370.052 338.051C370.052 337.218 370.052 336.385 370.052 335.526C371.299 336.36 372.545 337.193 373.829 338.051C373.414 339.483 372.998 340.915 372.57 342.39C369.563 355.926 370.922 371.092 372.57 384.755C376.522 379.681 379.709 374.202 382.996 368.681C383.71 367.737 384.424 366.794 385.159 365.821C386.406 365.821 387.652 365.821 388.936 365.821C389.445 373.86 388.179 378.798 384.451 385.86C382.918 388.835 381.493 391.794 380.124 394.854C380.539 395.687 380.955 396.52 381.383 397.378C403.133 389.165 403.133 389.165 422.927 377.182C423.969 376.427 425.011 375.672 426.084 374.894C431.275 371.011 435.361 367.238 439.293 362.034C440.124 362.034 440.955 362.034 441.811 362.034C439.118 374.033 429.187 381.669 419.322 388.074C407.6 395.149 394.374 400.205 381.598 405.036C380.479 405.463 379.359 405.889 378.206 406.328C377.209 406.695 376.212 407.063 375.185 407.442C370.205 409.912 367.913 414.248 365.017 418.837C363.381 421.254 361.725 423.656 360.068 426.059C358.255 428.692 356.455 431.333 354.655 433.975C350.827 439.563 346.848 445.028 342.814 450.468C340.977 452.592 340.977 452.592 341.097 454.181C350.015 454.442 358.42 453.673 367.22 452.288C377.937 450.697 388.16 449.893 399.008 450.394C398.924 452.717 398.924 452.717 397.749 455.443C394.766 456.834 392.151 457.792 389.015 458.678C388.117 458.944 387.22 459.209 386.295 459.483C371.384 463.714 355.949 465.655 340.554 467.14C331.801 468.048 327.237 470.091 321.112 476.429C320.015 477.56 318.918 478.69 317.788 479.856C314.428 483.462 311.222 487.171 308.036 490.93C304.854 494.393 301.303 497.35 297.669 500.323C296.732 501.226 296.732 501.226 295.776 502.148C295.776 502.981 295.776 503.814 295.776 504.672C295.07 504.978 294.364 505.284 293.637 505.599C290.16 507.517 287.593 509.859 284.682 512.562C280.83 516.109 276.965 519.605 272.958 522.975C271.764 524.017 270.569 525.058 269.339 526.131C269.339 526.548 269.339 526.964 269.339 527.393C270.079 527.418 270.819 527.443 271.582 527.469C295.979 528.333 295.979 528.333 307.185 529.997C331.485 533.519 352.465 527.255 375.322 519.882C376.861 519.388 378.4 518.894 379.986 518.385C381.376 517.933 382.765 517.481 384.197 517.016C387.677 516.033 387.677 516.033 391.454 516.033C391.869 516.866 392.285 517.699 392.713 518.557C391.65 518.891 390.587 519.225 389.492 519.568C385.775 520.867 382.247 522.35 378.675 523.998C369.605 528.172 360.403 531.657 350.933 534.809C349.804 535.185 348.675 535.562 347.512 535.949C338.911 538.758 331.403 540.205 322.307 540.139C320.895 540.137 320.895 540.137 319.455 540.134C316.466 540.127 313.478 540.111 310.49 540.095C308.456 540.089 306.423 540.083 304.389 540.078C299.42 540.064 294.451 540.042 289.482 540.016C314.113 558.982 354.495 562.5 384.53 563.053C385.39 563.08 386.251 563.107 387.137 563.135C391.058 563.161 393.633 562.928 397.08 560.982C399.297 559.113 399.297 559.113 399.008 556.426C400.254 556.009 401.5 555.593 402.784 555.164C405.088 552.581 407.214 550.014 409.315 547.274C410.237 546.079 410.237 546.079 411.178 544.86C430.527 519.393 446.272 487.137 451.208 455.35C451.882 451.656 451.882 451.656 453.104 448.648C472.837 398.342 464.469 322.126 444.55 272.984C442.981 269.703 441.277 266.623 439.293 263.576C437.455 263.433 437.455 263.433 434.808 266.574Z" fill="#040504"/>
<path d="M384.294 105.239C385.404 105.231 386.513 105.224 387.657 105.216C403.535 105.144 418.66 106.64 434.257 109.578C435.62 109.826 435.62 109.826 437.011 110.079C479.504 117.837 516.719 142.729 548.268 171.193C548.914 171.769 549.56 172.345 550.226 172.938C553.521 175.959 555.983 178.596 557.631 182.79C558.462 182.79 559.293 182.79 560.149 182.79C563.832 186.718 566.977 191.119 570.221 195.413C571.188 196.681 572.155 197.948 573.151 199.254C586.661 217.351 598.058 237.152 605.47 258.527C606.02 260.08 606.571 261.632 607.137 263.231C608.761 267.953 610.283 272.694 611.765 277.462C612.219 278.877 612.674 280.293 613.142 281.751C624.955 321.683 624.974 370.399 611.765 410.001C611.246 411.567 611.246 411.567 610.717 413.165C601.421 440.8 589.164 469.927 568.558 491.103C566.346 493.195 566.346 493.195 565.185 495.836C564.354 495.836 563.523 495.836 562.667 495.836C562.2 496.891 562.2 496.891 561.723 497.966C559.861 501.421 557.714 504.264 555.113 507.197C554.283 507.197 553.452 507.197 552.596 507.197C552.18 508.446 551.765 509.696 551.337 510.984C549.542 512.843 549.542 512.843 547.167 514.849C545.806 516.004 545.806 516.004 544.418 517.182C543.377 518.052 542.337 518.923 541.265 519.82C540.082 520.833 538.899 521.847 537.68 522.892C523.219 535.184 507.129 547.428 489.59 555.017C486.943 556.296 486.943 556.296 485.354 559.031C482.631 562.36 480.765 562.269 476.554 562.703C469.455 563.678 463.266 565.584 456.563 568.07C422.316 580.763 383.375 582.894 347.392 576.622C346.258 576.425 345.125 576.229 343.957 576.026C310.584 570.03 281.602 558.518 253.031 540.382C250.68 538.896 248.315 537.436 245.941 535.988C244.678 535.208 243.416 534.429 242.115 533.626C241.034 532.96 239.953 532.295 238.84 531.609C237.734 530.772 237.734 530.772 236.607 529.918C236.607 529.085 236.607 528.252 236.607 527.393C235.876 527.065 235.145 526.736 234.393 526.397C229.32 523.649 225.431 519.428 221.264 515.481C219.873 514.191 219.873 514.191 218.453 512.875C217.571 512.044 216.689 511.213 215.781 510.357C214.573 509.221 214.573 509.221 213.341 508.062C211.429 505.935 211.429 505.935 210.17 502.148C209.339 502.148 208.508 502.148 207.652 502.148C205.492 499.698 203.494 497.245 201.515 494.653C200.904 493.855 200.292 493.058 199.663 492.236C198.36 490.524 197.063 488.808 195.771 487.088C194.498 485.398 193.215 483.715 191.92 482.041C164.133 446.042 147.915 398.724 147.224 353.198C147.175 351.727 147.126 350.257 147.076 348.741C145.964 291.747 164.664 239.272 198.839 194.151C199.662 193.038 200.485 191.925 201.333 190.778C202.12 189.73 202.907 188.682 203.718 187.603C204.416 186.674 205.113 185.745 205.832 184.787C206.733 183.799 206.733 183.799 207.652 182.79C208.483 182.79 209.314 182.79 210.17 182.79C210.47 182.076 210.77 181.362 211.079 180.626C213.03 177.126 215.407 174.772 218.274 171.982C219.259 171.017 220.244 170.052 221.259 169.058C222.169 168.175 223.08 167.291 224.018 166.381C225.052 165.27 225.052 165.27 226.108 164.137C227.795 162.594 227.795 162.594 230.312 162.594C230.312 161.761 230.312 160.928 230.312 160.069C232.988 158.156 232.988 158.156 236.607 155.967C240.86 153.337 244.964 150.715 248.881 147.604C269.8 131.684 294.695 120.961 319.696 113.365C321.439 112.745 321.439 112.745 323.217 112.112C343.111 105.836 363.628 105.278 384.294 105.239ZM260.556 159.473C256.936 162.115 253.127 164.239 249.196 166.381C249.196 167.214 249.196 168.047 249.196 168.905C248.489 169.231 247.781 169.556 247.052 169.891C243.824 171.609 241.073 173.611 238.181 175.848C236.671 177 236.671 177 235.132 178.175C234.372 178.865 233.613 179.555 232.83 180.266C232.83 181.099 232.83 181.932 232.83 182.79C231.999 182.79 231.168 182.79 230.312 182.79C224.232 188.698 218.516 195.837 213.946 202.987C213.946 203.82 213.946 204.653 213.946 205.511C213.231 205.775 212.515 206.039 211.778 206.31C202.229 212.058 196.319 226.275 192.756 236.363C191.286 239.593 191.286 239.593 188.857 242.014C185.574 245.324 183.887 248.934 182.08 253.163C181.709 254.027 181.338 254.891 180.955 255.781C169.968 282.401 164.886 309.439 163.904 338.051C163.875 338.896 163.845 339.74 163.815 340.61C163.496 350.382 163.523 359.911 164.849 369.608C167.415 368 169.933 366.313 172.402 364.559C172.402 363.726 172.402 362.893 172.402 362.034C173.133 361.679 173.865 361.324 174.618 360.958C177.266 359.598 179.751 358.126 182.267 356.537C217.932 334.191 254.988 323.549 296.232 316.348C332.12 310.082 366.824 301.011 396.49 278.724C397.752 277.827 399.015 276.931 400.316 276.007C411.604 267.731 421.27 258.049 430.98 247.988C431.979 246.957 431.979 246.957 432.998 245.904C433.644 245.198 434.289 244.491 434.954 243.763C437.646 241.331 439.765 241.743 443.306 241.881C444.44 241.915 445.574 241.949 446.743 241.984C448.041 242.05 448.041 242.05 449.364 242.118C449.512 243.021 449.661 243.925 449.813 244.855C450.657 248.58 451.914 251.651 453.51 255.115C462.002 274.04 468.127 292.425 472.025 312.805C472.345 314.478 472.345 314.478 472.672 316.184C483.928 376.879 478.32 446.891 453.141 503.41C452.576 504.783 452.012 506.157 451.43 507.572C449.135 512.943 446.374 518.03 443.542 523.133C442.993 524.124 442.444 525.114 441.879 526.135C436.915 534.959 431.333 543.153 425.445 551.377C423.746 553.889 422.076 556.417 420.409 558.95C429.233 558.349 437.352 556.816 445.824 554.296C446.981 553.953 448.138 553.611 449.33 553.258C477.025 544.897 503.131 531.528 524.899 512.246C525.589 511.637 526.278 511.027 526.988 510.399C559.362 481.55 582.118 448.5 595.084 407.003C595.439 405.888 595.794 404.772 596.159 403.623C602.04 384.011 603.648 364.509 603.503 344.126C603.498 342.433 603.498 342.433 603.493 340.706C603.412 323.025 602.415 306 597.917 288.822C597.681 287.903 597.445 286.985 597.202 286.038C595.633 280.12 593.749 274.364 591.622 268.626C591.313 267.784 591.003 266.943 590.684 266.077C579.968 237.488 564.942 212.41 543.783 190.364C543.185 189.732 542.587 189.099 541.97 188.448C528.473 174.231 514.012 162.631 497.203 152.496C495.962 151.708 494.72 150.921 493.441 150.109C424.688 108.169 325.608 111.069 260.556 159.473ZM434.808 266.574C431.454 269.443 431.454 269.443 431.739 272.412C430.727 272.751 429.714 273.089 428.671 273.438C427.606 273.933 426.542 274.427 425.445 274.937C425.029 276.187 424.614 277.436 424.186 278.724C421.85 280.026 421.85 280.026 419.15 281.248C417.735 282.266 416.346 283.321 414.98 284.404C375.608 314.322 331.707 326.213 283.836 335.101C282.721 335.308 281.606 335.515 280.458 335.729C279.362 335.932 278.266 336.136 277.136 336.345C241.417 343.007 209.668 353.963 181.215 377.182C179.345 378.431 179.345 378.431 177.438 379.706C177.438 380.539 177.438 381.373 177.438 382.231C176.659 382.595 175.88 382.96 175.077 383.335C172.234 384.676 172.234 384.676 169.884 387.28C167.287 417.076 189.217 451.674 206.393 474.378C207.295 475.614 208.198 476.851 209.127 478.125C212.017 482.058 212.017 482.058 215.205 485.738C216.036 485.738 216.867 485.738 217.723 485.738C218.229 486.858 218.229 486.858 218.745 488.001C221.224 492.619 224.977 495.95 228.66 499.623C229.415 500.401 230.171 501.179 230.949 501.98C235.832 506.881 240.529 510.342 246.678 513.508C247.184 500.939 245.858 490.092 242.98 477.849C235.887 445.519 238.349 421.751 250.455 391.067C250.794 390.159 251.134 389.251 251.484 388.315C252.427 385.894 252.427 385.894 254.232 382.231C255.478 381.814 256.725 381.398 258.009 380.969C254.585 399.007 254.585 399.007 252.265 406.688C250.615 412.56 249.651 418.398 248.881 424.438C248.707 425.702 248.707 425.702 248.53 426.992C246.572 443.915 250.988 460.851 254.218 477.366C256.732 490.285 258.741 502.851 259.268 516.033C280.237 503.078 302.194 483.66 315.919 463.017C316.321 459.693 316.321 459.693 316.234 455.996C316.24 454.77 316.247 453.545 316.253 452.283C315.469 441.939 312.635 432.165 309.546 422.308C303.49 402.913 301.822 384.922 309.624 365.821C310.479 363.302 311.322 360.778 312.142 358.248C312.973 358.664 313.804 359.081 314.66 359.51C314.516 360.546 314.516 360.546 314.369 361.603C310.615 389.834 316.842 411.939 324.731 439.034C325.575 441.978 326.413 444.923 327.249 447.87C333.123 442.372 337.803 436.176 342.592 429.724C343.359 428.707 344.126 427.69 344.916 426.643C346.542 424.462 348.143 422.263 349.722 420.047C351.701 417.316 353.716 414.706 355.832 412.087C365.68 399.382 366.523 389.359 365.489 373.632C365.278 369.575 365.107 365.518 364.968 361.457C364.932 360.502 364.896 359.547 364.859 358.562C364.706 350.777 366.531 344.982 370.052 338.051C370.052 337.218 370.052 336.385 370.052 335.526C371.299 336.36 372.545 337.193 373.829 338.051C373.414 339.483 372.998 340.915 372.57 342.39C369.563 355.926 370.922 371.092 372.57 384.755C376.522 379.681 379.709 374.202 382.996 368.681C383.71 367.737 384.424 366.794 385.159 365.821C386.406 365.821 387.652 365.821 388.936 365.821C389.445 373.86 388.179 378.798 384.451 385.86C382.918 388.835 381.493 391.794 380.124 394.854C380.539 395.687 380.955 396.52 381.383 397.378C403.133 389.165 403.133 389.165 422.927 377.182C423.969 376.427 425.011 375.672 426.084 374.894C431.275 371.011 435.361 367.238 439.293 362.034C440.124 362.034 440.955 362.034 441.811 362.034C439.118 374.033 429.187 381.669 419.322 388.074C407.6 395.149 394.374 400.205 381.598 405.036C380.479 405.463 379.359 405.889 378.206 406.328C377.209 406.695 376.212 407.063 375.185 407.442C370.205 409.912 367.913 414.248 365.017 418.837C363.381 421.254 361.725 423.656 360.068 426.059C358.255 428.692 356.455 431.333 354.655 433.975C350.827 439.563 346.848 445.028 342.814 450.468C340.977 452.592 340.977 452.592 341.097 454.181C350.015 454.442 358.42 453.673 367.22 452.288C377.937 450.697 388.16 449.893 399.008 450.394C398.924 452.717 398.924 452.717 397.749 455.443C394.766 456.834 392.151 457.792 389.015 458.678C388.117 458.944 387.22 459.209 386.295 459.483C371.384 463.714 355.949 465.655 340.554 467.14C331.801 468.048 327.237 470.091 321.112 476.429C320.015 477.56 318.918 478.69 317.788 479.856C314.428 483.462 311.222 487.171 308.036 490.93C304.854 494.393 301.303 497.35 297.669 500.323C296.732 501.226 296.732 501.226 295.776 502.148C295.776 502.981 295.776 503.814 295.776 504.672C295.07 504.978 294.364 505.284 293.637 505.599C290.16 507.517 287.593 509.859 284.682 512.562C280.83 516.109 276.965 519.605 272.958 522.975C271.764 524.017 270.569 525.058 269.339 526.131C269.339 526.548 269.339 526.964 269.339 527.393C270.079 527.418 270.819 527.443 271.582 527.469C295.979 528.333 295.979 528.333 307.185 529.997C331.485 533.519 352.465 527.255 375.322 519.882C376.861 519.388 378.4 518.894 379.986 518.385C381.376 517.933 382.765 517.481 384.197 517.016C387.677 516.033 387.677 516.033 391.454 516.033C391.869 516.866 392.285 517.699 392.713 518.557C391.65 518.891 390.587 519.225 389.492 519.568C385.775 520.867 382.247 522.35 378.675 523.998C369.605 528.172 360.403 531.657 350.933 534.809C349.804 535.185 348.675 535.562 347.512 535.949C338.911 538.758 331.403 540.205 322.307 540.139C320.895 540.137 320.895 540.137 319.455 540.134C316.466 540.127 313.478 540.111 310.49 540.095C308.456 540.089 306.423 540.083 304.389 540.078C299.42 540.064 294.451 540.042 289.482 540.016C314.113 558.982 354.495 562.5 384.53 563.053C385.39 563.08 386.251 563.107 387.137 563.135C391.058 563.161 393.633 562.928 397.08 560.982C399.297 559.113 399.297 559.113 399.008 556.426C400.254 556.009 401.5 555.593 402.784 555.164C405.088 552.581 407.214 550.014 409.315 547.274C410.237 546.079 410.237 546.079 411.178 544.86C430.527 519.393 446.272 487.137 451.208 455.35C451.882 451.656 451.882 451.656 453.104 448.648C472.837 398.342 464.469 322.126 444.55 272.984C442.981 269.703 441.277 266.623 439.293 263.576C437.455 263.433 437.455 263.433 434.808 266.574Z" stroke="black" stroke-width="6" mask="url(#path-1-outside-1_1781_1517)"/>
<mask id="path-2-outside-2_1781_1517" maskUnits="userSpaceOnUse" x="13.0801" y="47.2354" width="827" height="760" fill="black">
<rect fill="white" x="13.0801" y="47.2354" width="827" height="760"/>
<path d="M391.515 50.281C394.616 50.2956 397.717 50.3079 400.819 50.318C403.798 50.3348 406.778 50.3536 409.758 50.3746C411.799 50.3885 411.8 50.3885 413.882 50.4028C434.36 50.66 434.36 50.66 440.046 54.4544C442.756 55.1738 445.488 55.8167 448.226 56.4229C470.432 61.6833 492.841 68.9442 513.038 79.6518C514.093 80.2026 515.149 80.7534 516.236 81.3208C589.813 119.87 589.813 119.87 601.132 147.685C601.963 147.685 602.793 147.685 603.649 147.685C605.509 149.744 607.277 151.886 608.998 154.063C612.159 158.041 615.337 161.966 618.697 165.776C622.727 170.46 626.069 175.462 629.37 180.678C630.272 182.095 630.272 182.095 631.193 183.54C632.929 186.28 634.652 189.029 636.37 191.781C637.584 193.717 637.584 193.717 638.823 195.693C676.741 258.429 689.764 335.472 675.383 407.219C675.133 408.482 674.884 409.745 674.627 411.047C666.96 448.376 651.473 484.706 628.082 514.909C626.013 517.922 626.013 517.922 626.516 521.104C627.78 525.078 629.425 526.816 632.417 529.697C633.407 530.666 634.397 531.635 635.416 532.633C636.458 533.628 637.499 534.622 638.572 535.647C644.882 541.758 651.022 547.754 656.506 554.624C658.547 556.778 660.651 558.874 662.798 560.923C663.536 561.7 664.274 562.476 665.035 563.276C669.636 567.981 669.636 567.981 675.634 570.171C677.528 570.095 679.422 569.981 681.312 569.831C690.034 569.563 697.104 574.193 703.783 579.315C704.378 579.898 704.973 580.481 705.587 581.081C705.587 581.913 705.587 582.744 705.587 583.601C706.417 583.601 707.248 583.601 708.104 583.601C708.104 584.433 708.104 585.264 708.104 586.121C708.934 586.121 709.765 586.121 710.621 586.121C712.428 587.954 712.428 587.954 714.532 590.499C719.38 596.202 724.543 601.5 729.837 606.786C730.797 607.747 731.756 608.709 732.744 609.699C734.753 611.711 736.764 613.722 738.775 615.731C741.865 618.817 744.947 621.909 748.029 625.002C749.988 626.962 751.947 628.922 753.906 630.881C755.29 632.27 755.29 632.271 756.702 633.688C757.556 634.538 758.409 635.389 759.288 636.265C760.038 637.015 760.789 637.765 761.562 638.538C763.436 640.419 763.436 640.419 765.994 641.555C765.994 642.387 765.994 643.218 765.994 644.075C766.825 644.075 767.656 644.075 768.511 644.075C768.511 644.907 768.511 645.738 768.511 646.595C769.757 647.011 771.003 647.426 772.287 647.855C774.052 649.651 774.052 649.651 775.984 652.028C781.753 658.851 788.103 665.053 794.454 671.326C795.983 672.839 797.502 674.362 799.02 675.887C802.124 678.986 805.254 682.057 808.39 685.124C810.619 687.321 812.847 689.517 815.075 691.714C816.195 692.803 817.314 693.892 818.467 695.014C829.426 705.862 836.324 715.078 836.76 730.805C836.755 732.945 836.737 735.086 836.706 737.227C836.705 738.288 836.704 739.35 836.703 740.443C836.629 751.112 836.448 760.242 831.121 769.747C830.388 771.092 829.655 772.437 828.899 773.822C826.323 777.742 823.517 780.716 820.109 783.921C818.786 785.363 818.786 785.363 817.435 786.834C803.888 799.512 793.17 803.27 774.961 803.213C773.671 803.233 772.382 803.253 771.053 803.274C759.816 803.281 749.411 801.888 740.589 794.394C739.636 793.609 738.684 792.825 737.703 792.017C735.137 789.544 732.848 787.069 730.53 784.374C725.057 778.017 719.155 772.122 713.216 766.204C712.14 765.122 711.064 764.039 709.955 762.924C704.333 757.305 698.626 751.881 692.602 746.698C686.506 741.42 681.015 735.55 675.776 729.431C672.56 725.679 669.186 722.747 665.315 719.667C664.112 718.297 662.934 716.903 661.776 715.494C659.076 712.237 656.271 709.44 653.049 706.702C648.038 702.368 643.285 697.836 638.587 693.166C637.772 692.357 636.957 691.549 636.118 690.716C634.415 689.023 632.713 687.328 631.014 685.631C628.419 683.046 625.811 680.474 623.202 677.902C621.539 676.245 619.877 674.588 618.215 672.929C617.44 672.169 616.666 671.409 615.867 670.626C610.8 665.527 606.552 660.665 605.832 653.214C605.838 652.095 605.845 650.976 605.852 649.823C605.489 644.56 604.806 641.847 601.054 638.091C599.408 636.718 597.755 635.354 596.098 633.996C588.911 627.976 582.447 621.538 576.12 614.626C568.851 606.778 561.489 599.329 553.31 592.42C549.047 593.997 545.499 595.795 541.787 598.41C535.552 602.661 529.098 606.367 522.477 609.98C521.281 610.633 520.085 611.286 518.852 611.959C491.905 626.437 491.905 626.437 484.093 626.437C483.677 627.684 483.262 628.931 482.834 630.216C481.369 630.364 479.904 630.512 478.395 630.664C473.14 631.323 468.271 632.746 463.249 634.39C434.542 643.18 402.88 646.956 372.996 644.346C355.507 642.866 344.614 646.39 330.26 656.498C328.04 657.934 328.04 657.934 324.265 659.194C323.434 660.025 322.603 660.857 321.748 661.713C318.225 665.24 310.158 665.262 305.4 666.223C303.019 666.722 300.651 667.279 298.284 667.84C255.75 677.248 209.442 667.416 171.722 646.767C167.715 645.132 164.95 644.875 160.661 645.335C157.357 648.01 157.357 648.01 154.368 651.634C151.914 654.238 149.406 656.718 146.818 659.194C145.987 659.194 145.156 659.194 144.301 659.194C144.301 660.025 144.301 660.857 144.301 661.713C142.398 663.401 142.398 663.401 139.66 665.414C135.447 668.589 131.389 671.867 127.414 675.336C111.516 689.168 93.8649 700.667 76.0779 711.899C73.9785 713.268 71.9534 714.749 69.9366 716.237C63.5538 720.02 57.0933 719.404 49.9139 718.408C45.8991 716.952 43.0407 714.917 39.846 712.108C39.0089 711.376 38.1718 710.643 37.3093 709.889C28.375 701.474 17.6428 689.684 17.0801 676.753C17.6026 669.671 20.1672 664.82 25.3045 660.011C31.9565 654.665 39.4963 650.627 46.8601 646.365C54.5586 641.875 61.6928 636.866 68.7912 631.476C71.0964 629.82 73.4037 628.166 75.7129 626.516C82.8657 621.288 89.7737 615.853 96.478 610.059C97.136 609.507 97.794 608.956 98.472 608.388C100.494 606.675 102.46 604.912 104.422 603.129C106.206 601.551 106.206 601.551 108.026 599.94C110.532 595.857 110.614 595.379 109.702 590.968C109.107 588.921 108.472 586.886 107.804 584.861C107.476 583.772 107.147 582.683 106.809 581.561C106.101 579.233 105.378 576.909 104.641 574.59C102.672 568.381 100.819 562.138 98.995 555.884C98.7386 555.009 98.4823 554.134 98.2182 553.233C94.7685 540.82 94.8713 528.184 94.8262 515.411C94.8214 514.555 94.8165 513.699 94.8115 512.817C94.7869 504 95.0857 495.443 96.4681 486.729C98.1004 476.336 98.2864 466.065 98.2871 455.567C98.2897 454.569 98.2923 453.572 98.2949 452.545C98.288 437.578 96.7176 424.363 92.2349 410.034C90.8058 404.947 90.0293 399.76 89.2417 394.541C89.0968 393.612 88.9519 392.682 88.8026 391.724C86.7077 377.61 86.1504 363.597 86.1741 349.343C86.1753 348.424 86.1765 347.505 86.1777 346.558C86.331 291.237 101.697 241.28 128.957 193.34C130.305 190.808 131.374 188.322 132.389 185.644C134.482 181.169 136.602 179.555 140.525 176.662C142.093 174.671 143.585 172.618 145.008 170.52C149.177 164.62 153.603 159.068 158.301 153.591C158.919 152.867 159.536 152.144 160.172 151.399C164.333 146.584 168.601 141.96 173.246 137.606C174.076 137.606 174.907 137.606 175.763 137.606C176.076 136.867 176.389 136.128 176.712 135.367C178.499 132.175 180.434 130.412 183.235 128.078C186.942 124.967 186.942 124.967 190.398 121.587C192.123 119.968 192.123 119.968 194.64 119.968C194.64 119.136 194.64 118.305 194.64 117.448C197.22 115.392 199.797 113.494 202.506 111.621C203.711 110.777 203.711 110.777 204.94 109.916C207.373 108.218 209.816 106.533 212.259 104.849C213.521 103.967 214.783 103.086 216.084 102.177C226.189 95.2514 236.736 89.2584 247.497 83.4315C249.546 82.3036 249.546 82.3036 251.636 81.1529C270.161 71.3837 290.155 64.2526 310.421 59.1002C311.491 58.8256 312.561 58.551 313.663 58.2681C317.601 57.324 321.552 56.5092 325.523 55.7143C327.026 55.4023 327.026 55.4023 328.56 55.084C349.658 50.7913 370.035 50.0188 391.515 50.281ZM330.557 72.0926C329.204 72.376 327.851 72.6594 326.458 72.9514C302.97 78.0013 281.271 84.7239 260.029 95.9841C257.559 97.2931 255.078 98.5799 252.595 99.864C233.934 109.582 216.525 120.898 200.933 135.086C199.482 136.365 199.482 136.365 198.003 137.67C185.292 148.934 173.638 160.746 163.178 174.142C162.542 174.925 161.905 175.707 161.25 176.513C154.811 184.55 149.371 193.09 143.986 201.86C143.088 203.29 142.19 204.721 141.292 206.151C133.272 218.868 133.272 218.868 130.457 233.356C129.627 233.356 128.796 233.356 127.94 233.356C127.94 235.019 127.94 236.682 127.94 238.396C127.11 238.396 126.279 238.396 125.423 238.396C125.065 239.312 124.706 240.228 124.337 241.172C123.471 243.305 122.567 245.424 121.594 247.51C108.784 275.696 103.6 307.158 102.77 337.926C102.736 339.008 102.702 340.091 102.667 341.207C100.839 406.245 122.814 468.501 162.705 519.642C164.181 521.539 165.631 523.456 167.076 525.376C177.528 538.834 190.525 553.934 204.708 563.443C205.539 563.443 206.369 563.443 207.225 563.443C207.225 564.275 207.225 565.106 207.225 565.963C209.619 567.926 212.004 569.709 214.54 571.475C215.33 572.027 216.119 572.58 216.933 573.149C219.56 574.969 222.2 576.767 224.844 578.562C225.72 579.164 226.596 579.767 227.498 580.388C289.318 622.579 364.824 635.556 437.863 622.81C467.344 617.222 495.931 606.254 521.847 591.16C523.03 590.478 523.03 590.478 524.237 589.781C526.777 588.311 529.309 586.826 531.837 585.333C532.998 584.653 532.998 584.653 534.183 583.958C540.647 580.077 546.203 575.701 551.422 570.215C554.568 567.223 554.568 567.223 558.034 565.594C562.836 563.066 566.315 559.998 570.221 556.278C571.289 555.274 571.289 555.274 572.38 554.251C581.561 545.855 581.561 545.855 588.547 535.726C589.331 535.338 590.114 534.95 590.922 534.55C593.765 533.113 595.116 531.794 597.121 529.348C597.765 528.564 598.41 527.779 599.074 526.971C599.753 526.118 600.432 525.266 601.132 524.387C601.847 523.495 602.562 522.602 603.299 521.683C616.243 505.273 627.326 487.798 636.37 468.953C636.886 467.88 637.402 466.807 637.933 465.702C664.115 410.392 670.064 348.594 657.764 288.791C657.585 287.862 657.407 286.933 657.222 285.976C651.344 256.127 638.065 225.82 621.74 200.285C621.091 199.267 620.442 198.249 619.773 197.2C608.992 180.501 597.028 165.422 583.169 151.184C581.075 149.026 579.011 146.843 576.951 144.653C567.041 134.266 556.215 125.707 544.5 117.448C543.738 116.901 542.976 116.354 542.192 115.791C507.332 90.8648 467.065 76.2522 424.944 69.5729C423.638 69.3504 422.331 69.1279 420.986 68.8986C409.379 67.0455 397.966 66.5488 386.245 66.5807C384.81 66.5817 384.81 66.5817 383.346 66.5827C365.399 66.6413 348.146 68.3949 330.557 72.0926ZM612.459 535.726C612.147 536.506 611.836 537.285 611.515 538.088C609.682 541.207 608.207 541.964 604.908 543.285C604.908 544.117 604.908 544.948 604.908 545.805C604.077 545.805 603.246 545.805 602.391 545.805C600.619 547.555 600.619 547.555 598.851 549.821C595.595 553.747 592.198 557.354 588.547 560.923C587.704 561.796 586.86 562.668 585.991 563.566C580.09 569.625 574.098 574.991 567.153 579.822C568.583 584.116 569.367 584.554 572.974 586.987C577.752 590.432 581.364 594.208 585.131 598.715C587.218 601.157 589.399 603.403 591.694 605.649C594.83 608.726 597.734 611.909 600.582 615.255C604.238 619.51 608.065 622.959 612.459 626.437C613.705 627.684 613.705 627.684 614.976 628.957C615.889 628.035 616.803 627.114 617.744 626.165C621.16 622.722 624.581 619.283 628.003 615.846C629.478 614.362 630.953 612.878 632.426 611.392C634.554 609.247 636.685 607.105 638.818 604.965C639.467 604.308 640.117 603.652 640.785 602.976C643.932 599.826 647.121 596.833 650.557 594C653.507 591.559 655.507 589.511 657.607 586.357C658.489 585.032 659.372 583.707 660.281 582.341C659.451 581.094 658.62 579.847 657.764 578.562C656.934 578.562 656.103 578.562 655.247 578.562C655.247 577.73 655.247 576.899 655.247 576.042C653.206 573.887 651.098 571.796 648.955 569.743C646.943 567.701 644.932 565.659 642.923 563.615C640.66 561.327 638.397 559.038 636.134 556.75C634.407 554.99 634.407 554.99 632.646 553.194C631.547 552.086 630.448 550.978 629.315 549.836C628.314 548.82 627.313 547.804 626.281 546.758C624.027 544.267 624.027 544.267 621.268 544.545C620.645 542.674 620.645 542.674 620.01 540.765C619.179 540.765 618.348 540.765 617.493 540.765C616.662 539.102 615.831 537.439 614.976 535.726C614.145 535.726 613.314 535.726 612.459 535.726ZM164.436 548.325C165.267 559.134 166.098 569.944 166.953 581.081C175.667 574.558 175.667 574.558 183.314 567.223C177.787 560.583 172.06 554.179 165.695 548.325C165.28 548.325 164.864 548.325 164.436 548.325ZM115.355 477.772C112.696 493.802 110.654 509.386 111.58 525.647C111.627 526.503 111.674 527.359 111.722 528.241C112.93 547.027 118.694 564.502 125.266 582.026C127.591 588.494 129.254 593.164 127.94 599.98C126.155 602.57 124.268 604.759 122.041 606.978C120.107 608.7 120.107 608.7 120.389 611.318C118.52 611.942 118.52 611.942 116.614 612.578C116.614 613.41 116.614 614.241 116.614 615.098C115.553 615.566 115.553 615.566 114.47 616.043C111.088 617.886 108.479 620.097 105.602 622.657C104.596 623.541 103.59 624.424 102.554 625.334C99.9606 627.448 99.9606 627.448 100.253 630.216C99.5818 630.51 98.9102 630.804 98.2182 631.107C94.3286 633.22 90.9703 635.903 87.5112 638.642C81.3191 643.499 75.0174 648.075 68.452 652.422C67.7333 652.993 67.0147 653.565 66.2742 654.154C66.2742 654.986 66.2742 655.817 66.2742 656.674C65.5664 656.818 64.8586 656.961 64.1293 657.109C60.8692 658.04 58.2516 659.399 55.287 661.044C53.6165 661.967 53.6165 661.967 51.9122 662.909C50.7596 663.554 49.607 664.199 48.4194 664.863C47.2522 665.508 46.085 666.152 44.8824 666.817C39.5335 669.494 39.5335 669.494 34.812 673.052C34.6138 682.377 40.0622 687.874 46.1384 694.47C49.8862 698.205 53.3098 701.388 58.7233 702.029C67.5677 698.972 75.4967 693.191 83.1065 687.856C84.6627 686.776 84.6627 686.776 86.2503 685.674C104.621 672.864 121.802 658.821 138.662 644.095C141.471 641.643 144.309 639.236 147.186 636.865C150.677 634.044 150.677 634.044 153.739 630.61C157.501 627.126 159.362 626.029 164.436 625.177C168.735 626.527 172.583 628.65 176.549 630.768C217.811 651.515 264.888 661.742 309.684 646.993C314.211 645.33 318.595 643.502 323.006 641.555C322.591 640.308 322.175 639.061 321.748 637.776C318.16 636.357 318.16 636.357 313.7 635.325C311.999 634.881 310.298 634.435 308.597 633.99C307.701 633.76 306.804 633.531 305.881 633.295C288.494 628.808 272.277 623.428 256.306 615.098C255.161 614.508 254.017 613.918 252.837 613.31C237.282 605.23 222.591 596.613 208.7 585.895C207.59 585.06 206.481 584.225 205.337 583.365C204.39 582.62 203.442 581.874 202.466 581.106C199.694 579.486 199.694 579.486 196.592 580.535C192.969 582.573 189.899 584.888 186.696 587.538C185.029 588.907 185.029 588.907 183.328 590.304C182.493 591.002 181.658 591.701 180.797 592.42C184.698 595.024 188.721 597.109 192.91 599.192C194.187 599.832 194.187 599.832 195.489 600.485C201.246 603.353 207.04 606.129 212.859 608.868C214.969 609.865 214.969 609.865 217.123 610.883C219.931 612.208 222.743 613.524 225.56 614.829C226.861 615.444 228.163 616.059 229.504 616.693C230.668 617.235 231.831 617.778 233.03 618.338C236.346 620.238 238.639 622.362 241.204 625.177C225.687 623.769 212.695 619.132 198.524 612.967C197.737 612.625 196.95 612.283 196.14 611.93C193.991 610.985 191.852 610.018 189.714 609.05C184.335 606.957 179 606.108 173.246 605.964C172.467 605.931 171.688 605.899 170.886 605.865C162.56 607.152 156.39 613.307 150.2 618.563C148.29 620.16 146.379 621.756 144.468 623.351C143.563 624.109 142.658 624.867 141.726 625.648C118.218 645.235 118.218 645.235 107.804 649.115C104.186 648.721 104.186 648.721 101.512 647.855C100.991 644.479 100.991 644.479 101.512 640.295C104.282 637.74 106.728 635.862 109.849 633.839C111.595 632.632 113.337 631.42 115.075 630.202C115.964 629.582 116.853 628.963 117.768 628.325C124.158 623.722 130.035 618.492 135.879 613.223C137.305 611.947 138.747 610.687 140.201 609.443C148.81 602.068 154.66 596.129 155.607 584.226C155.614 582.773 155.62 581.319 155.627 579.822C155.647 578.828 155.668 577.835 155.689 576.811C155.814 567.61 155.168 558.574 154.211 549.427C154.094 548.022 153.978 546.617 153.857 545.17C152.834 535.505 150.344 529.424 144.301 521.867C142.972 520.006 142.972 520.006 141.616 518.107C140.789 516.958 139.962 515.808 139.109 514.623C133.037 506.047 127.961 496.913 122.888 487.719C122.273 486.613 121.658 485.506 121.023 484.366C120.476 483.369 119.929 482.371 119.365 481.344C118.028 478.842 118.028 478.842 115.355 477.772ZM667.203 598.562C666.288 599.502 665.373 600.443 664.43 601.412C659.643 605.692 659.643 605.692 657.764 611.318C656.986 611.63 656.207 611.942 655.405 612.263C652.289 614.098 651.533 615.574 650.213 618.878C649.383 618.878 648.552 618.878 647.696 618.878C647.696 619.709 647.696 620.541 647.696 621.397C646.995 621.683 646.295 621.969 645.573 622.264C641.846 624.381 639.38 627.16 636.37 630.216C635.168 631.332 633.966 632.448 632.727 633.597C631.503 634.754 630.279 635.91 629.055 637.067C628.423 637.636 627.791 638.206 627.14 638.792C624.215 641.601 622.62 643.724 621.568 647.663C623.901 657.33 634.713 665.272 641.594 672.125C642.579 673.112 643.565 674.099 644.58 675.115C647.808 678.346 651.041 681.573 654.274 684.8C656.532 687.058 658.79 689.316 661.047 691.575C666.368 696.897 671.691 702.216 677.016 707.534C683.057 713.568 689.095 719.606 695.133 725.644C705.459 735.97 715.788 746.294 726.119 756.615C726.973 757.468 727.827 758.321 728.706 759.199C729.496 759.985 730.286 760.771 731.1 761.58C732.479 762.965 733.846 764.362 735.196 765.775C736.609 767.247 738.081 768.663 739.566 770.062C740.397 770.062 741.227 770.062 742.083 770.062C742.083 770.894 742.083 771.725 742.083 772.582C748.719 779.423 756.169 785.908 765.988 786.624C768.848 786.655 771.708 786.675 774.568 786.677C775.552 786.692 776.536 786.708 777.549 786.724C788.611 786.751 795.552 784.222 803.651 776.652C806.734 773.339 809.044 769.944 811.211 765.983C812.558 763.763 812.558 763.763 814.481 761.873C820.483 755.753 820.463 746.488 820.503 738.408C820.509 737.566 820.516 736.723 820.523 735.855C820.225 714.771 800.482 701.073 786.528 687.098C784.632 685.195 782.735 683.292 780.839 681.389C776.891 677.429 772.94 673.472 768.987 669.516C763.912 664.435 758.846 659.346 753.782 654.255C749.882 650.336 745.975 646.423 742.068 642.512C740.195 640.636 738.325 638.758 736.457 636.878C733.861 634.267 731.257 631.663 728.65 629.062C727.877 628.281 727.104 627.499 726.307 626.694C722.88 622.734 722.88 622.734 718.172 621.397C717.848 620.662 717.524 619.927 717.19 619.17C715.522 616.115 713.701 614.115 711.225 611.678C710.353 610.813 709.482 609.948 708.583 609.057C707.672 608.166 706.761 607.275 705.823 606.358C704.926 605.472 704.03 604.586 703.107 603.673C701.367 601.954 699.625 600.237 697.88 598.523C694.977 595.667 692.099 592.787 689.226 589.901C687.731 588.156 687.731 588.156 683.524 587.942C675.939 588.04 672.053 593.302 667.203 598.562Z"/>
</mask>
<path d="M391.515 50.281C394.616 50.2956 397.717 50.3079 400.819 50.318C403.798 50.3348 406.778 50.3536 409.758 50.3746C411.799 50.3885 411.8 50.3885 413.882 50.4028C434.36 50.66 434.36 50.66 440.046 54.4544C442.756 55.1738 445.488 55.8167 448.226 56.4229C470.432 61.6833 492.841 68.9442 513.038 79.6518C514.093 80.2026 515.149 80.7534 516.236 81.3208C589.813 119.87 589.813 119.87 601.132 147.685C601.963 147.685 602.793 147.685 603.649 147.685C605.509 149.744 607.277 151.886 608.998 154.063C612.159 158.041 615.337 161.966 618.697 165.776C622.727 170.46 626.069 175.462 629.37 180.678C630.272 182.095 630.272 182.095 631.193 183.54C632.929 186.28 634.652 189.029 636.37 191.781C637.584 193.717 637.584 193.717 638.823 195.693C676.741 258.429 689.764 335.472 675.383 407.219C675.133 408.482 674.884 409.745 674.627 411.047C666.96 448.376 651.473 484.706 628.082 514.909C626.013 517.922 626.013 517.922 626.516 521.104C627.78 525.078 629.425 526.816 632.417 529.697C633.407 530.666 634.397 531.635 635.416 532.633C636.458 533.628 637.499 534.622 638.572 535.647C644.882 541.758 651.022 547.754 656.506 554.624C658.547 556.778 660.651 558.874 662.798 560.923C663.536 561.7 664.274 562.476 665.035 563.276C669.636 567.981 669.636 567.981 675.634 570.171C677.528 570.095 679.422 569.981 681.312 569.831C690.034 569.563 697.104 574.193 703.783 579.315C704.378 579.898 704.973 580.481 705.587 581.081C705.587 581.913 705.587 582.744 705.587 583.601C706.417 583.601 707.248 583.601 708.104 583.601C708.104 584.433 708.104 585.264 708.104 586.121C708.934 586.121 709.765 586.121 710.621 586.121C712.428 587.954 712.428 587.954 714.532 590.499C719.38 596.202 724.543 601.5 729.837 606.786C730.797 607.747 731.756 608.709 732.744 609.699C734.753 611.711 736.764 613.722 738.775 615.731C741.865 618.817 744.947 621.909 748.029 625.002C749.988 626.962 751.947 628.922 753.906 630.881C755.29 632.27 755.29 632.271 756.702 633.688C757.556 634.538 758.409 635.389 759.288 636.265C760.038 637.015 760.789 637.765 761.562 638.538C763.436 640.419 763.436 640.419 765.994 641.555C765.994 642.387 765.994 643.218 765.994 644.075C766.825 644.075 767.656 644.075 768.511 644.075C768.511 644.907 768.511 645.738 768.511 646.595C769.757 647.011 771.003 647.426 772.287 647.855C774.052 649.651 774.052 649.651 775.984 652.028C781.753 658.851 788.103 665.053 794.454 671.326C795.983 672.839 797.502 674.362 799.02 675.887C802.124 678.986 805.254 682.057 808.39 685.124C810.619 687.321 812.847 689.517 815.075 691.714C816.195 692.803 817.314 693.892 818.467 695.014C829.426 705.862 836.324 715.078 836.76 730.805C836.755 732.945 836.737 735.086 836.706 737.227C836.705 738.288 836.704 739.35 836.703 740.443C836.629 751.112 836.448 760.242 831.121 769.747C830.388 771.092 829.655 772.437 828.899 773.822C826.323 777.742 823.517 780.716 820.109 783.921C818.786 785.363 818.786 785.363 817.435 786.834C803.888 799.512 793.17 803.27 774.961 803.213C773.671 803.233 772.382 803.253 771.053 803.274C759.816 803.281 749.411 801.888 740.589 794.394C739.636 793.609 738.684 792.825 737.703 792.017C735.137 789.544 732.848 787.069 730.53 784.374C725.057 778.017 719.155 772.122 713.216 766.204C712.14 765.122 711.064 764.039 709.955 762.924C704.333 757.305 698.626 751.881 692.602 746.698C686.506 741.42 681.015 735.55 675.776 729.431C672.56 725.679 669.186 722.747 665.315 719.667C664.112 718.297 662.934 716.903 661.776 715.494C659.076 712.237 656.271 709.44 653.049 706.702C648.038 702.368 643.285 697.836 638.587 693.166C637.772 692.357 636.957 691.549 636.118 690.716C634.415 689.023 632.713 687.328 631.014 685.631C628.419 683.046 625.811 680.474 623.202 677.902C621.539 676.245 619.877 674.588 618.215 672.929C617.44 672.169 616.666 671.409 615.867 670.626C610.8 665.527 606.552 660.665 605.832 653.214C605.838 652.095 605.845 650.976 605.852 649.823C605.489 644.56 604.806 641.847 601.054 638.091C599.408 636.718 597.755 635.354 596.098 633.996C588.911 627.976 582.447 621.538 576.12 614.626C568.851 606.778 561.489 599.329 553.31 592.42C549.047 593.997 545.499 595.795 541.787 598.41C535.552 602.661 529.098 606.367 522.477 609.98C521.281 610.633 520.085 611.286 518.852 611.959C491.905 626.437 491.905 626.437 484.093 626.437C483.677 627.684 483.262 628.931 482.834 630.216C481.369 630.364 479.904 630.512 478.395 630.664C473.14 631.323 468.271 632.746 463.249 634.39C434.542 643.18 402.88 646.956 372.996 644.346C355.507 642.866 344.614 646.39 330.26 656.498C328.04 657.934 328.04 657.934 324.265 659.194C323.434 660.025 322.603 660.857 321.748 661.713C318.225 665.24 310.158 665.262 305.4 666.223C303.019 666.722 300.651 667.279 298.284 667.84C255.75 677.248 209.442 667.416 171.722 646.767C167.715 645.132 164.95 644.875 160.661 645.335C157.357 648.01 157.357 648.01 154.368 651.634C151.914 654.238 149.406 656.718 146.818 659.194C145.987 659.194 145.156 659.194 144.301 659.194C144.301 660.025 144.301 660.857 144.301 661.713C142.398 663.401 142.398 663.401 139.66 665.414C135.447 668.589 131.389 671.867 127.414 675.336C111.516 689.168 93.8649 700.667 76.0779 711.899C73.9785 713.268 71.9534 714.749 69.9366 716.237C63.5538 720.02 57.0933 719.404 49.9139 718.408C45.8991 716.952 43.0407 714.917 39.846 712.108C39.0089 711.376 38.1718 710.643 37.3093 709.889C28.375 701.474 17.6428 689.684 17.0801 676.753C17.6026 669.671 20.1672 664.82 25.3045 660.011C31.9565 654.665 39.4963 650.627 46.8601 646.365C54.5586 641.875 61.6928 636.866 68.7912 631.476C71.0964 629.82 73.4037 628.166 75.7129 626.516C82.8657 621.288 89.7737 615.853 96.478 610.059C97.136 609.507 97.794 608.956 98.472 608.388C100.494 606.675 102.46 604.912 104.422 603.129C106.206 601.551 106.206 601.551 108.026 599.94C110.532 595.857 110.614 595.379 109.702 590.968C109.107 588.921 108.472 586.886 107.804 584.861C107.476 583.772 107.147 582.683 106.809 581.561C106.101 579.233 105.378 576.909 104.641 574.59C102.672 568.381 100.819 562.138 98.995 555.884C98.7386 555.009 98.4823 554.134 98.2182 553.233C94.7685 540.82 94.8713 528.184 94.8262 515.411C94.8214 514.555 94.8165 513.699 94.8115 512.817C94.7869 504 95.0857 495.443 96.4681 486.729C98.1004 476.336 98.2864 466.065 98.2871 455.567C98.2897 454.569 98.2923 453.572 98.2949 452.545C98.288 437.578 96.7176 424.363 92.2349 410.034C90.8058 404.947 90.0293 399.76 89.2417 394.541C89.0968 393.612 88.9519 392.682 88.8026 391.724C86.7077 377.61 86.1504 363.597 86.1741 349.343C86.1753 348.424 86.1765 347.505 86.1777 346.558C86.331 291.237 101.697 241.28 128.957 193.34C130.305 190.808 131.374 188.322 132.389 185.644C134.482 181.169 136.602 179.555 140.525 176.662C142.093 174.671 143.585 172.618 145.008 170.52C149.177 164.62 153.603 159.068 158.301 153.591C158.919 152.867 159.536 152.144 160.172 151.399C164.333 146.584 168.601 141.96 173.246 137.606C174.076 137.606 174.907 137.606 175.763 137.606C176.076 136.867 176.389 136.128 176.712 135.367C178.499 132.175 180.434 130.412 183.235 128.078C186.942 124.967 186.942 124.967 190.398 121.587C192.123 119.968 192.123 119.968 194.64 119.968C194.64 119.136 194.64 118.305 194.64 117.448C197.22 115.392 199.797 113.494 202.506 111.621C203.711 110.777 203.711 110.777 204.94 109.916C207.373 108.218 209.816 106.533 212.259 104.849C213.521 103.967 214.783 103.086 216.084 102.177C226.189 95.2514 236.736 89.2584 247.497 83.4315C249.546 82.3036 249.546 82.3036 251.636 81.1529C270.161 71.3837 290.155 64.2526 310.421 59.1002C311.491 58.8256 312.561 58.551 313.663 58.2681C317.601 57.324 321.552 56.5092 325.523 55.7143C327.026 55.4023 327.026 55.4023 328.56 55.084C349.658 50.7913 370.035 50.0188 391.515 50.281ZM330.557 72.0926C329.204 72.376 327.851 72.6594 326.458 72.9514C302.97 78.0013 281.271 84.7239 260.029 95.9841C257.559 97.2931 255.078 98.5799 252.595 99.864C233.934 109.582 216.525 120.898 200.933 135.086C199.482 136.365 199.482 136.365 198.003 137.67C185.292 148.934 173.638 160.746 163.178 174.142C162.542 174.925 161.905 175.707 161.25 176.513C154.811 184.55 149.371 193.09 143.986 201.86C143.088 203.29 142.19 204.721 141.292 206.151C133.272 218.868 133.272 218.868 130.457 233.356C129.627 233.356 128.796 233.356 127.94 233.356C127.94 235.019 127.94 236.682 127.94 238.396C127.11 238.396 126.279 238.396 125.423 238.396C125.065 239.312 124.706 240.228 124.337 241.172C123.471 243.305 122.567 245.424 121.594 247.51C108.784 275.696 103.6 307.158 102.77 337.926C102.736 339.008 102.702 340.091 102.667 341.207C100.839 406.245 122.814 468.501 162.705 519.642C164.181 521.539 165.631 523.456 167.076 525.376C177.528 538.834 190.525 553.934 204.708 563.443C205.539 563.443 206.369 563.443 207.225 563.443C207.225 564.275 207.225 565.106 207.225 565.963C209.619 567.926 212.004 569.709 214.54 571.475C215.33 572.027 216.119 572.58 216.933 573.149C219.56 574.969 222.2 576.767 224.844 578.562C225.72 579.164 226.596 579.767 227.498 580.388C289.318 622.579 364.824 635.556 437.863 622.81C467.344 617.222 495.931 606.254 521.847 591.16C523.03 590.478 523.03 590.478 524.237 589.781C526.777 588.311 529.309 586.826 531.837 585.333C532.998 584.653 532.998 584.653 534.183 583.958C540.647 580.077 546.203 575.701 551.422 570.215C554.568 567.223 554.568 567.223 558.034 565.594C562.836 563.066 566.315 559.998 570.221 556.278C571.289 555.274 571.289 555.274 572.38 554.251C581.561 545.855 581.561 545.855 588.547 535.726C589.331 535.338 590.114 534.95 590.922 534.55C593.765 533.113 595.116 531.794 597.121 529.348C597.765 528.564 598.41 527.779 599.074 526.971C599.753 526.118 600.432 525.266 601.132 524.387C601.847 523.495 602.562 522.602 603.299 521.683C616.243 505.273 627.326 487.798 636.37 468.953C636.886 467.88 637.402 466.807 637.933 465.702C664.115 410.392 670.064 348.594 657.764 288.791C657.585 287.862 657.407 286.933 657.222 285.976C651.344 256.127 638.065 225.82 621.74 200.285C621.091 199.267 620.442 198.249 619.773 197.2C608.992 180.501 597.028 165.422 583.169 151.184C581.075 149.026 579.011 146.843 576.951 144.653C567.041 134.266 556.215 125.707 544.5 117.448C543.738 116.901 542.976 116.354 542.192 115.791C507.332 90.8648 467.065 76.2522 424.944 69.5729C423.638 69.3504 422.331 69.1279 420.986 68.8986C409.379 67.0455 397.966 66.5488 386.245 66.5807C384.81 66.5817 384.81 66.5817 383.346 66.5827C365.399 66.6413 348.146 68.3949 330.557 72.0926ZM612.459 535.726C612.147 536.506 611.836 537.285 611.515 538.088C609.682 541.207 608.207 541.964 604.908 543.285C604.908 544.117 604.908 544.948 604.908 545.805C604.077 545.805 603.246 545.805 602.391 545.805C600.619 547.555 600.619 547.555 598.851 549.821C595.595 553.747 592.198 557.354 588.547 560.923C587.704 561.796 586.86 562.668 585.991 563.566C580.09 569.625 574.098 574.991 567.153 579.822C568.583 584.116 569.367 584.554 572.974 586.987C577.752 590.432 581.364 594.208 585.131 598.715C587.218 601.157 589.399 603.403 591.694 605.649C594.83 608.726 597.734 611.909 600.582 615.255C604.238 619.51 608.065 622.959 612.459 626.437C613.705 627.684 613.705 627.684 614.976 628.957C615.889 628.035 616.803 627.114 617.744 626.165C621.16 622.722 624.581 619.283 628.003 615.846C629.478 614.362 630.953 612.878 632.426 611.392C634.554 609.247 636.685 607.105 638.818 604.965C639.467 604.308 640.117 603.652 640.785 602.976C643.932 599.826 647.121 596.833 650.557 594C653.507 591.559 655.507 589.511 657.607 586.357C658.489 585.032 659.372 583.707 660.281 582.341C659.451 581.094 658.62 579.847 657.764 578.562C656.934 578.562 656.103 578.562 655.247 578.562C655.247 577.73 655.247 576.899 655.247 576.042C653.206 573.887 651.098 571.796 648.955 569.743C646.943 567.701 644.932 565.659 642.923 563.615C640.66 561.327 638.397 559.038 636.134 556.75C634.407 554.99 634.407 554.99 632.646 553.194C631.547 552.086 630.448 550.978 629.315 549.836C628.314 548.82 627.313 547.804 626.281 546.758C624.027 544.267 624.027 544.267 621.268 544.545C620.645 542.674 620.645 542.674 620.01 540.765C619.179 540.765 618.348 540.765 617.493 540.765C616.662 539.102 615.831 537.439 614.976 535.726C614.145 535.726 613.314 535.726 612.459 535.726ZM164.436 548.325C165.267 559.134 166.098 569.944 166.953 581.081C175.667 574.558 175.667 574.558 183.314 567.223C177.787 560.583 172.06 554.179 165.695 548.325C165.28 548.325 164.864 548.325 164.436 548.325ZM115.355 477.772C112.696 493.802 110.654 509.386 111.58 525.647C111.627 526.503 111.674 527.359 111.722 528.241C112.93 547.027 118.694 564.502 125.266 582.026C127.591 588.494 129.254 593.164 127.94 599.98C126.155 602.57 124.268 604.759 122.041 606.978C120.107 608.7 120.107 608.7 120.389 611.318C118.52 611.942 118.52 611.942 116.614 612.578C116.614 613.41 116.614 614.241 116.614 615.098C115.553 615.566 115.553 615.566 114.47 616.043C111.088 617.886 108.479 620.097 105.602 622.657C104.596 623.541 103.59 624.424 102.554 625.334C99.9606 627.448 99.9606 627.448 100.253 630.216C99.5818 630.51 98.9102 630.804 98.2182 631.107C94.3286 633.22 90.9703 635.903 87.5112 638.642C81.3191 643.499 75.0174 648.075 68.452 652.422C67.7333 652.993 67.0147 653.565 66.2742 654.154C66.2742 654.986 66.2742 655.817 66.2742 656.674C65.5664 656.818 64.8586 656.961 64.1293 657.109C60.8692 658.04 58.2516 659.399 55.287 661.044C53.6165 661.967 53.6165 661.967 51.9122 662.909C50.7596 663.554 49.607 664.199 48.4194 664.863C47.2522 665.508 46.085 666.152 44.8824 666.817C39.5335 669.494 39.5335 669.494 34.812 673.052C34.6138 682.377 40.0622 687.874 46.1384 694.47C49.8862 698.205 53.3098 701.388 58.7233 702.029C67.5677 698.972 75.4967 693.191 83.1065 687.856C84.6627 686.776 84.6627 686.776 86.2503 685.674C104.621 672.864 121.802 658.821 138.662 644.095C141.471 641.643 144.309 639.236 147.186 636.865C150.677 634.044 150.677 634.044 153.739 630.61C157.501 627.126 159.362 626.029 164.436 625.177C168.735 626.527 172.583 628.65 176.549 630.768C217.811 651.515 264.888 661.742 309.684 646.993C314.211 645.33 318.595 643.502 323.006 641.555C322.591 640.308 322.175 639.061 321.748 637.776C318.16 636.357 318.16 636.357 313.7 635.325C311.999 634.881 310.298 634.435 308.597 633.99C307.701 633.76 306.804 633.531 305.881 633.295C288.494 628.808 272.277 623.428 256.306 615.098C255.161 614.508 254.017 613.918 252.837 613.31C237.282 605.23 222.591 596.613 208.7 585.895C207.59 585.06 206.481 584.225 205.337 583.365C204.39 582.62 203.442 581.874 202.466 581.106C199.694 579.486 199.694 579.486 196.592 580.535C192.969 582.573 189.899 584.888 186.696 587.538C185.029 588.907 185.029 588.907 183.328 590.304C182.493 591.002 181.658 591.701 180.797 592.42C184.698 595.024 188.721 597.109 192.91 599.192C194.187 599.832 194.187 599.832 195.489 600.485C201.246 603.353 207.04 606.129 212.859 608.868C214.969 609.865 214.969 609.865 217.123 610.883C219.931 612.208 222.743 613.524 225.56 614.829C226.861 615.444 228.163 616.059 229.504 616.693C230.668 617.235 231.831 617.778 233.03 618.338C236.346 620.238 238.639 622.362 241.204 625.177C225.687 623.769 212.695 619.132 198.524 612.967C197.737 612.625 196.95 612.283 196.14 611.93C193.991 610.985 191.852 610.018 189.714 609.05C184.335 606.957 179 606.108 173.246 605.964C172.467 605.931 171.688 605.899 170.886 605.865C162.56 607.152 156.39 613.307 150.2 618.563C148.29 620.16 146.379 621.756 144.468 623.351C143.563 624.109 142.658 624.867 141.726 625.648C118.218 645.235 118.218 645.235 107.804 649.115C104.186 648.721 104.186 648.721 101.512 647.855C100.991 644.479 100.991 644.479 101.512 640.295C104.282 637.74 106.728 635.862 109.849 633.839C111.595 632.632 113.337 631.42 115.075 630.202C115.964 629.582 116.853 628.963 117.768 628.325C124.158 623.722 130.035 618.492 135.879 613.223C137.305 611.947 138.747 610.687 140.201 609.443C148.81 602.068 154.66 596.129 155.607 584.226C155.614 582.773 155.62 581.319 155.627 579.822C155.647 578.828 155.668 577.835 155.689 576.811C155.814 567.61 155.168 558.574 154.211 549.427C154.094 548.022 153.978 546.617 153.857 545.17C152.834 535.505 150.344 529.424 144.301 521.867C142.972 520.006 142.972 520.006 141.616 518.107C140.789 516.958 139.962 515.808 139.109 514.623C133.037 506.047 127.961 496.913 122.888 487.719C122.273 486.613 121.658 485.506 121.023 484.366C120.476 483.369 119.929 482.371 119.365 481.344C118.028 478.842 118.028 478.842 115.355 477.772ZM667.203 598.562C666.288 599.502 665.373 600.443 664.43 601.412C659.643 605.692 659.643 605.692 657.764 611.318C656.986 611.63 656.207 611.942 655.405 612.263C652.289 614.098 651.533 615.574 650.213 618.878C649.383 618.878 648.552 618.878 647.696 618.878C647.696 619.709 647.696 620.541 647.696 621.397C646.995 621.683 646.295 621.969 645.573 622.264C641.846 624.381 639.38 627.16 636.37 630.216C635.168 631.332 633.966 632.448 632.727 633.597C631.503 634.754 630.279 635.91 629.055 637.067C628.423 637.636 627.791 638.206 627.14 638.792C624.215 641.601 622.62 643.724 621.568 647.663C623.901 657.33 634.713 665.272 641.594 672.125C642.579 673.112 643.565 674.099 644.58 675.115C647.808 678.346 651.041 681.573 654.274 684.8C656.532 687.058 658.79 689.316 661.047 691.575C666.368 696.897 671.691 702.216 677.016 707.534C683.057 713.568 689.095 719.606 695.133 725.644C705.459 735.97 715.788 746.294 726.119 756.615C726.973 757.468 727.827 758.321 728.706 759.199C729.496 759.985 730.286 760.771 731.1 761.58C732.479 762.965 733.846 764.362 735.196 765.775C736.609 767.247 738.081 768.663 739.566 770.062C740.397 770.062 741.227 770.062 742.083 770.062C742.083 770.894 742.083 771.725 742.083 772.582C748.719 779.423 756.169 785.908 765.988 786.624C768.848 786.655 771.708 786.675 774.568 786.677C775.552 786.692 776.536 786.708 777.549 786.724C788.611 786.751 795.552 784.222 803.651 776.652C806.734 773.339 809.044 769.944 811.211 765.983C812.558 763.763 812.558 763.763 814.481 761.873C820.483 755.753 820.463 746.488 820.503 738.408C820.509 737.566 820.516 736.723 820.523 735.855C820.225 714.771 800.482 701.073 786.528 687.098C784.632 685.195 782.735 683.292 780.839 681.389C776.891 677.429 772.94 673.472 768.987 669.516C763.912 664.435 758.846 659.346 753.782 654.255C749.882 650.336 745.975 646.423 742.068 642.512C740.195 640.636 738.325 638.758 736.457 636.878C733.861 634.267 731.257 631.663 728.65 629.062C727.877 628.281 727.104 627.499 726.307 626.694C722.88 622.734 722.88 622.734 718.172 621.397C717.848 620.662 717.524 619.927 717.19 619.17C715.522 616.115 713.701 614.115 711.225 611.678C710.353 610.813 709.482 609.948 708.583 609.057C707.672 608.166 706.761 607.275 705.823 606.358C704.926 605.472 704.03 604.586 703.107 603.673C701.367 601.954 699.625 600.237 697.88 598.523C694.977 595.667 692.099 592.787 689.226 589.901C687.731 588.156 687.731 588.156 683.524 587.942C675.939 588.04 672.053 593.302 667.203 598.562Z" fill="#040504"/>
<path d="M391.515 50.281C394.616 50.2956 397.717 50.3079 400.819 50.318C403.798 50.3348 406.778 50.3536 409.758 50.3746C411.799 50.3885 411.8 50.3885 413.882 50.4028C434.36 50.66 434.36 50.66 440.046 54.4544C442.756 55.1738 445.488 55.8167 448.226 56.4229C470.432 61.6833 492.841 68.9442 513.038 79.6518C514.093 80.2026 515.149 80.7534 516.236 81.3208C589.813 119.87 589.813 119.87 601.132 147.685C601.963 147.685 602.793 147.685 603.649 147.685C605.509 149.744 607.277 151.886 608.998 154.063C612.159 158.041 615.337 161.966 618.697 165.776C622.727 170.46 626.069 175.462 629.37 180.678C630.272 182.095 630.272 182.095 631.193 183.54C632.929 186.28 634.652 189.029 636.37 191.781C637.584 193.717 637.584 193.717 638.823 195.693C676.741 258.429 689.764 335.472 675.383 407.219C675.133 408.482 674.884 409.745 674.627 411.047C666.96 448.376 651.473 484.706 628.082 514.909C626.013 517.922 626.013 517.922 626.516 521.104C627.78 525.078 629.425 526.816 632.417 529.697C633.407 530.666 634.397 531.635 635.416 532.633C636.458 533.628 637.499 534.622 638.572 535.647C644.882 541.758 651.022 547.754 656.506 554.624C658.547 556.778 660.651 558.874 662.798 560.923C663.536 561.7 664.274 562.476 665.035 563.276C669.636 567.981 669.636 567.981 675.634 570.171C677.528 570.095 679.422 569.981 681.312 569.831C690.034 569.563 697.104 574.193 703.783 579.315C704.378 579.898 704.973 580.481 705.587 581.081C705.587 581.913 705.587 582.744 705.587 583.601C706.417 583.601 707.248 583.601 708.104 583.601C708.104 584.433 708.104 585.264 708.104 586.121C708.934 586.121 709.765 586.121 710.621 586.121C712.428 587.954 712.428 587.954 714.532 590.499C719.38 596.202 724.543 601.5 729.837 606.786C730.797 607.747 731.756 608.709 732.744 609.699C734.753 611.711 736.764 613.722 738.775 615.731C741.865 618.817 744.947 621.909 748.029 625.002C749.988 626.962 751.947 628.922 753.906 630.881C755.29 632.27 755.29 632.271 756.702 633.688C757.556 634.538 758.409 635.389 759.288 636.265C760.038 637.015 760.789 637.765 761.562 638.538C763.436 640.419 763.436 640.419 765.994 641.555C765.994 642.387 765.994 643.218 765.994 644.075C766.825 644.075 767.656 644.075 768.511 644.075C768.511 644.907 768.511 645.738 768.511 646.595C769.757 647.011 771.003 647.426 772.287 647.855C774.052 649.651 774.052 649.651 775.984 652.028C781.753 658.851 788.103 665.053 794.454 671.326C795.983 672.839 797.502 674.362 799.02 675.887C802.124 678.986 805.254 682.057 808.39 685.124C810.619 687.321 812.847 689.517 815.075 691.714C816.195 692.803 817.314 693.892 818.467 695.014C829.426 705.862 836.324 715.078 836.76 730.805C836.755 732.945 836.737 735.086 836.706 737.227C836.705 738.288 836.704 739.35 836.703 740.443C836.629 751.112 836.448 760.242 831.121 769.747C830.388 771.092 829.655 772.437 828.899 773.822C826.323 777.742 823.517 780.716 820.109 783.921C818.786 785.363 818.786 785.363 817.435 786.834C803.888 799.512 793.17 803.27 774.961 803.213C773.671 803.233 772.382 803.253 771.053 803.274C759.816 803.281 749.411 801.888 740.589 794.394C739.636 793.609 738.684 792.825 737.703 792.017C735.137 789.544 732.848 787.069 730.53 784.374C725.057 778.017 719.155 772.122 713.216 766.204C712.14 765.122 711.064 764.039 709.955 762.924C704.333 757.305 698.626 751.881 692.602 746.698C686.506 741.42 681.015 735.55 675.776 729.431C672.56 725.679 669.186 722.747 665.315 719.667C664.112 718.297 662.934 716.903 661.776 715.494C659.076 712.237 656.271 709.44 653.049 706.702C648.038 702.368 643.285 697.836 638.587 693.166C637.772 692.357 636.957 691.549 636.118 690.716C634.415 689.023 632.713 687.328 631.014 685.631C628.419 683.046 625.811 680.474 623.202 677.902C621.539 676.245 619.877 674.588 618.215 672.929C617.44 672.169 616.666 671.409 615.867 670.626C610.8 665.527 606.552 660.665 605.832 653.214C605.838 652.095 605.845 650.976 605.852 649.823C605.489 644.56 604.806 641.847 601.054 638.091C599.408 636.718 597.755 635.354 596.098 633.996C588.911 627.976 582.447 621.538 576.12 614.626C568.851 606.778 561.489 599.329 553.31 592.42C549.047 593.997 545.499 595.795 541.787 598.41C535.552 602.661 529.098 606.367 522.477 609.98C521.281 610.633 520.085 611.286 518.852 611.959C491.905 626.437 491.905 626.437 484.093 626.437C483.677 627.684 483.262 628.931 482.834 630.216C481.369 630.364 479.904 630.512 478.395 630.664C473.14 631.323 468.271 632.746 463.249 634.39C434.542 643.18 402.88 646.956 372.996 644.346C355.507 642.866 344.614 646.39 330.26 656.498C328.04 657.934 328.04 657.934 324.265 659.194C323.434 660.025 322.603 660.857 321.748 661.713C318.225 665.24 310.158 665.262 305.4 666.223C303.019 666.722 300.651 667.279 298.284 667.84C255.75 677.248 209.442 667.416 171.722 646.767C167.715 645.132 164.95 644.875 160.661 645.335C157.357 648.01 157.357 648.01 154.368 651.634C151.914 654.238 149.406 656.718 146.818 659.194C145.987 659.194 145.156 659.194 144.301 659.194C144.301 660.025 144.301 660.857 144.301 661.713C142.398 663.401 142.398 663.401 139.66 665.414C135.447 668.589 131.389 671.867 127.414 675.336C111.516 689.168 93.8649 700.667 76.0779 711.899C73.9785 713.268 71.9534 714.749 69.9366 716.237C63.5538 720.02 57.0933 719.404 49.9139 718.408C45.8991 716.952 43.0407 714.917 39.846 712.108C39.0089 711.376 38.1718 710.643 37.3093 709.889C28.375 701.474 17.6428 689.684 17.0801 676.753C17.6026 669.671 20.1672 664.82 25.3045 660.011C31.9565 654.665 39.4963 650.627 46.8601 646.365C54.5586 641.875 61.6928 636.866 68.7912 631.476C71.0964 629.82 73.4037 628.166 75.7129 626.516C82.8657 621.288 89.7737 615.853 96.478 610.059C97.136 609.507 97.794 608.956 98.472 608.388C100.494 606.675 102.46 604.912 104.422 603.129C106.206 601.551 106.206 601.551 108.026 599.94C110.532 595.857 110.614 595.379 109.702 590.968C109.107 588.921 108.472 586.886 107.804 584.861C107.476 583.772 107.147 582.683 106.809 581.561C106.101 579.233 105.378 576.909 104.641 574.59C102.672 568.381 100.819 562.138 98.995 555.884C98.7386 555.009 98.4823 554.134 98.2182 553.233C94.7685 540.82 94.8713 528.184 94.8262 515.411C94.8214 514.555 94.8165 513.699 94.8115 512.817C94.7869 504 95.0857 495.443 96.4681 486.729C98.1004 476.336 98.2864 466.065 98.2871 455.567C98.2897 454.569 98.2923 453.572 98.2949 452.545C98.288 437.578 96.7176 424.363 92.2349 410.034C90.8058 404.947 90.0293 399.76 89.2417 394.541C89.0968 393.612 88.9519 392.682 88.8026 391.724C86.7077 377.61 86.1504 363.597 86.1741 349.343C86.1753 348.424 86.1765 347.505 86.1777 346.558C86.331 291.237 101.697 241.28 128.957 193.34C130.305 190.808 131.374 188.322 132.389 185.644C134.482 181.169 136.602 179.555 140.525 176.662C142.093 174.671 143.585 172.618 145.008 170.52C149.177 164.62 153.603 159.068 158.301 153.591C158.919 152.867 159.536 152.144 160.172 151.399C164.333 146.584 168.601 141.96 173.246 137.606C174.076 137.606 174.907 137.606 175.763 137.606C176.076 136.867 176.389 136.128 176.712 135.367C178.499 132.175 180.434 130.412 183.235 128.078C186.942 124.967 186.942 124.967 190.398 121.587C192.123 119.968 192.123 119.968 194.64 119.968C194.64 119.136 194.64 118.305 194.64 117.448C197.22 115.392 199.797 113.494 202.506 111.621C203.711 110.777 203.711 110.777 204.94 109.916C207.373 108.218 209.816 106.533 212.259 104.849C213.521 103.967 214.783 103.086 216.084 102.177C226.189 95.2514 236.736 89.2584 247.497 83.4315C249.546 82.3036 249.546 82.3036 251.636 81.1529C270.161 71.3837 290.155 64.2526 310.421 59.1002C311.491 58.8256 312.561 58.551 313.663 58.2681C317.601 57.324 321.552 56.5092 325.523 55.7143C327.026 55.4023 327.026 55.4023 328.56 55.084C349.658 50.7913 370.035 50.0188 391.515 50.281ZM330.557 72.0926C329.204 72.376 327.851 72.6594 326.458 72.9514C302.97 78.0013 281.271 84.7239 260.029 95.9841C257.559 97.2931 255.078 98.5799 252.595 99.864C233.934 109.582 216.525 120.898 200.933 135.086C199.482 136.365 199.482 136.365 198.003 137.67C185.292 148.934 173.638 160.746 163.178 174.142C162.542 174.925 161.905 175.707 161.25 176.513C154.811 184.55 149.371 193.09 143.986 201.86C143.088 203.29 142.19 204.721 141.292 206.151C133.272 218.868 133.272 218.868 130.457 233.356C129.627 233.356 128.796 233.356 127.94 233.356C127.94 235.019 127.94 236.682 127.94 238.396C127.11 238.396 126.279 238.396 125.423 238.396C125.065 239.312 124.706 240.228 124.337 241.172C123.471 243.305 122.567 245.424 121.594 247.51C108.784 275.696 103.6 307.158 102.77 337.926C102.736 339.008 102.702 340.091 102.667 341.207C100.839 406.245 122.814 468.501 162.705 519.642C164.181 521.539 165.631 523.456 167.076 525.376C177.528 538.834 190.525 553.934 204.708 563.443C205.539 563.443 206.369 563.443 207.225 563.443C207.225 564.275 207.225 565.106 207.225 565.963C209.619 567.926 212.004 569.709 214.54 571.475C215.33 572.027 216.119 572.58 216.933 573.149C219.56 574.969 222.2 576.767 224.844 578.562C225.72 579.164 226.596 579.767 227.498 580.388C289.318 622.579 364.824 635.556 437.863 622.81C467.344 617.222 495.931 606.254 521.847 591.16C523.03 590.478 523.03 590.478 524.237 589.781C526.777 588.311 529.309 586.826 531.837 585.333C532.998 584.653 532.998 584.653 534.183 583.958C540.647 580.077 546.203 575.701 551.422 570.215C554.568 567.223 554.568 567.223 558.034 565.594C562.836 563.066 566.315 559.998 570.221 556.278C571.289 555.274 571.289 555.274 572.38 554.251C581.561 545.855 581.561 545.855 588.547 535.726C589.331 535.338 590.114 534.95 590.922 534.55C593.765 533.113 595.116 531.794 597.121 529.348C597.765 528.564 598.41 527.779 599.074 526.971C599.753 526.118 600.432 525.266 601.132 524.387C601.847 523.495 602.562 522.602 603.299 521.683C616.243 505.273 627.326 487.798 636.37 468.953C636.886 467.88 637.402 466.807 637.933 465.702C664.115 410.392 670.064 348.594 657.764 288.791C657.585 287.862 657.407 286.933 657.222 285.976C651.344 256.127 638.065 225.82 621.74 200.285C621.091 199.267 620.442 198.249 619.773 197.2C608.992 180.501 597.028 165.422 583.169 151.184C581.075 149.026 579.011 146.843 576.951 144.653C567.041 134.266 556.215 125.707 544.5 117.448C543.738 116.901 542.976 116.354 542.192 115.791C507.332 90.8648 467.065 76.2522 424.944 69.5729C423.638 69.3504 422.331 69.1279 420.986 68.8986C409.379 67.0455 397.966 66.5488 386.245 66.5807C384.81 66.5817 384.81 66.5817 383.346 66.5827C365.399 66.6413 348.146 68.3949 330.557 72.0926ZM612.459 535.726C612.147 536.506 611.836 537.285 611.515 538.088C609.682 541.207 608.207 541.964 604.908 543.285C604.908 544.117 604.908 544.948 604.908 545.805C604.077 545.805 603.246 545.805 602.391 545.805C600.619 547.555 600.619 547.555 598.851 549.821C595.595 553.747 592.198 557.354 588.547 560.923C587.704 561.796 586.86 562.668 585.991 563.566C580.09 569.625 574.098 574.991 567.153 579.822C568.583 584.116 569.367 584.554 572.974 586.987C577.752 590.432 581.364 594.208 585.131 598.715C587.218 601.157 589.399 603.403 591.694 605.649C594.83 608.726 597.734 611.909 600.582 615.255C604.238 619.51 608.065 622.959 612.459 626.437C613.705 627.684 613.705 627.684 614.976 628.957C615.889 628.035 616.803 627.114 617.744 626.165C621.16 622.722 624.581 619.283 628.003 615.846C629.478 614.362 630.953 612.878 632.426 611.392C634.554 609.247 636.685 607.105 638.818 604.965C639.467 604.308 640.117 603.652 640.785 602.976C643.932 599.826 647.121 596.833 650.557 594C653.507 591.559 655.507 589.511 657.607 586.357C658.489 585.032 659.372 583.707 660.281 582.341C659.451 581.094 658.62 579.847 657.764 578.562C656.934 578.562 656.103 578.562 655.247 578.562C655.247 577.73 655.247 576.899 655.247 576.042C653.206 573.887 651.098 571.796 648.955 569.743C646.943 567.701 644.932 565.659 642.923 563.615C640.66 561.327 638.397 559.038 636.134 556.75C634.407 554.99 634.407 554.99 632.646 553.194C631.547 552.086 630.448 550.978 629.315 549.836C628.314 548.82 627.313 547.804 626.281 546.758C624.027 544.267 624.027 544.267 621.268 544.545C620.645 542.674 620.645 542.674 620.01 540.765C619.179 540.765 618.348 540.765 617.493 540.765C616.662 539.102 615.831 537.439 614.976 535.726C614.145 535.726 613.314 535.726 612.459 535.726ZM164.436 548.325C165.267 559.134 166.098 569.944 166.953 581.081C175.667 574.558 175.667 574.558 183.314 567.223C177.787 560.583 172.06 554.179 165.695 548.325C165.28 548.325 164.864 548.325 164.436 548.325ZM115.355 477.772C112.696 493.802 110.654 509.386 111.58 525.647C111.627 526.503 111.674 527.359 111.722 528.241C112.93 547.027 118.694 564.502 125.266 582.026C127.591 588.494 129.254 593.164 127.94 599.98C126.155 602.57 124.268 604.759 122.041 606.978C120.107 608.7 120.107 608.7 120.389 611.318C118.52 611.942 118.52 611.942 116.614 612.578C116.614 613.41 116.614 614.241 116.614 615.098C115.553 615.566 115.553 615.566 114.47 616.043C111.088 617.886 108.479 620.097 105.602 622.657C104.596 623.541 103.59 624.424 102.554 625.334C99.9606 627.448 99.9606 627.448 100.253 630.216C99.5818 630.51 98.9102 630.804 98.2182 631.107C94.3286 633.22 90.9703 635.903 87.5112 638.642C81.3191 643.499 75.0174 648.075 68.452 652.422C67.7333 652.993 67.0147 653.565 66.2742 654.154C66.2742 654.986 66.2742 655.817 66.2742 656.674C65.5664 656.818 64.8586 656.961 64.1293 657.109C60.8692 658.04 58.2516 659.399 55.287 661.044C53.6165 661.967 53.6165 661.967 51.9122 662.909C50.7596 663.554 49.607 664.199 48.4194 664.863C47.2522 665.508 46.085 666.152 44.8824 666.817C39.5335 669.494 39.5335 669.494 34.812 673.052C34.6138 682.377 40.0622 687.874 46.1384 694.47C49.8862 698.205 53.3098 701.388 58.7233 702.029C67.5677 698.972 75.4967 693.191 83.1065 687.856C84.6627 686.776 84.6627 686.776 86.2503 685.674C104.621 672.864 121.802 658.821 138.662 644.095C141.471 641.643 144.309 639.236 147.186 636.865C150.677 634.044 150.677 634.044 153.739 630.61C157.501 627.126 159.362 626.029 164.436 625.177C168.735 626.527 172.583 628.65 176.549 630.768C217.811 651.515 264.888 661.742 309.684 646.993C314.211 645.33 318.595 643.502 323.006 641.555C322.591 640.308 322.175 639.061 321.748 637.776C318.16 636.357 318.16 636.357 313.7 635.325C311.999 634.881 310.298 634.435 308.597 633.99C307.701 633.76 306.804 633.531 305.881 633.295C288.494 628.808 272.277 623.428 256.306 615.098C255.161 614.508 254.017 613.918 252.837 613.31C237.282 605.23 222.591 596.613 208.7 585.895C207.59 585.06 206.481 584.225 205.337 583.365C204.39 582.62 203.442 581.874 202.466 581.106C199.694 579.486 199.694 579.486 196.592 580.535C192.969 582.573 189.899 584.888 186.696 587.538C185.029 588.907 185.029 588.907 183.328 590.304C182.493 591.002 181.658 591.701 180.797 592.42C184.698 595.024 188.721 597.109 192.91 599.192C194.187 599.832 194.187 599.832 195.489 600.485C201.246 603.353 207.04 606.129 212.859 608.868C214.969 609.865 214.969 609.865 217.123 610.883C219.931 612.208 222.743 613.524 225.56 614.829C226.861 615.444 228.163 616.059 229.504 616.693C230.668 617.235 231.831 617.778 233.03 618.338C236.346 620.238 238.639 622.362 241.204 625.177C225.687 623.769 212.695 619.132 198.524 612.967C197.737 612.625 196.95 612.283 196.14 611.93C193.991 610.985 191.852 610.018 189.714 609.05C184.335 606.957 179 606.108 173.246 605.964C172.467 605.931 171.688 605.899 170.886 605.865C162.56 607.152 156.39 613.307 150.2 618.563C148.29 620.16 146.379 621.756 144.468 623.351C143.563 624.109 142.658 624.867 141.726 625.648C118.218 645.235 118.218 645.235 107.804 649.115C104.186 648.721 104.186 648.721 101.512 647.855C100.991 644.479 100.991 644.479 101.512 640.295C104.282 637.74 106.728 635.862 109.849 633.839C111.595 632.632 113.337 631.42 115.075 630.202C115.964 629.582 116.853 628.963 117.768 628.325C124.158 623.722 130.035 618.492 135.879 613.223C137.305 611.947 138.747 610.687 140.201 609.443C148.81 602.068 154.66 596.129 155.607 584.226C155.614 582.773 155.62 581.319 155.627 579.822C155.647 578.828 155.668 577.835 155.689 576.811C155.814 567.61 155.168 558.574 154.211 549.427C154.094 548.022 153.978 546.617 153.857 545.17C152.834 535.505 150.344 529.424 144.301 521.867C142.972 520.006 142.972 520.006 141.616 518.107C140.789 516.958 139.962 515.808 139.109 514.623C133.037 506.047 127.961 496.913 122.888 487.719C122.273 486.613 121.658 485.506 121.023 484.366C120.476 483.369 119.929 482.371 119.365 481.344C118.028 478.842 118.028 478.842 115.355 477.772ZM667.203 598.562C666.288 599.502 665.373 600.443 664.43 601.412C659.643 605.692 659.643 605.692 657.764 611.318C656.986 611.63 656.207 611.942 655.405 612.263C652.289 614.098 651.533 615.574 650.213 618.878C649.383 618.878 648.552 618.878 647.696 618.878C647.696 619.709 647.696 620.541 647.696 621.397C646.995 621.683 646.295 621.969 645.573 622.264C641.846 624.381 639.38 627.16 636.37 630.216C635.168 631.332 633.966 632.448 632.727 633.597C631.503 634.754 630.279 635.91 629.055 637.067C628.423 637.636 627.791 638.206 627.14 638.792C624.215 641.601 622.62 643.724 621.568 647.663C623.901 657.33 634.713 665.272 641.594 672.125C642.579 673.112 643.565 674.099 644.58 675.115C647.808 678.346 651.041 681.573 654.274 684.8C656.532 687.058 658.79 689.316 661.047 691.575C666.368 696.897 671.691 702.216 677.016 707.534C683.057 713.568 689.095 719.606 695.133 725.644C705.459 735.97 715.788 746.294 726.119 756.615C726.973 757.468 727.827 758.321 728.706 759.199C729.496 759.985 730.286 760.771 731.1 761.58C732.479 762.965 733.846 764.362 735.196 765.775C736.609 767.247 738.081 768.663 739.566 770.062C740.397 770.062 741.227 770.062 742.083 770.062C742.083 770.894 742.083 771.725 742.083 772.582C748.719 779.423 756.169 785.908 765.988 786.624C768.848 786.655 771.708 786.675 774.568 786.677C775.552 786.692 776.536 786.708 777.549 786.724C788.611 786.751 795.552 784.222 803.651 776.652C806.734 773.339 809.044 769.944 811.211 765.983C812.558 763.763 812.558 763.763 814.481 761.873C820.483 755.753 820.463 746.488 820.503 738.408C820.509 737.566 820.516 736.723 820.523 735.855C820.225 714.771 800.482 701.073 786.528 687.098C784.632 685.195 782.735 683.292 780.839 681.389C776.891 677.429 772.94 673.472 768.987 669.516C763.912 664.435 758.846 659.346 753.782 654.255C749.882 650.336 745.975 646.423 742.068 642.512C740.195 640.636 738.325 638.758 736.457 636.878C733.861 634.267 731.257 631.663 728.65 629.062C727.877 628.281 727.104 627.499 726.307 626.694C722.88 622.734 722.88 622.734 718.172 621.397C717.848 620.662 717.524 619.927 717.19 619.17C715.522 616.115 713.701 614.115 711.225 611.678C710.353 610.813 709.482 609.948 708.583 609.057C707.672 608.166 706.761 607.275 705.823 606.358C704.926 605.472 704.03 604.586 703.107 603.673C701.367 601.954 699.625 600.237 697.88 598.523C694.977 595.667 692.099 592.787 689.226 589.901C687.731 588.156 687.731 588.156 683.524 587.942C675.939 588.04 672.053 593.302 667.203 598.562Z" stroke="black" stroke-width="6" mask="url(#path-2-outside-2_1781_1517)"/>
</svg>
