<svg xmlns="http://www.w3.org/2000/svg" viewBox="0 0 331.917 363.228"><g id="Layer_2" data-name="Layer 2"><g id="Layer_1-2" data-name="Layer 1"><g opacity="0.04"><path d="M188.953,42.283a15.673,15.673,0,0,1-13.878-8.365,3.284,3.284,0,1,1,5.8-3.075A9.123,9.123,0,0,0,197.6,29.494a3.287,3.287,0,0,1,6.23,2.1A15.686,15.686,0,0,1,188.953,42.283Z" fill="#377639"/><path d="M188.953,54.7a28.068,28.068,0,0,1-25.929-17.229,3.285,3.285,0,0,1,6.056-2.547,21.533,21.533,0,0,0,40-.723,3.285,3.285,0,1,1,6.143,2.33A28.249,28.249,0,0,1,188.953,54.7Z" fill="#377639"/><path d="M188.953,67.117a40.528,40.528,0,0,1-39.8-32.978,3.284,3.284,0,0,1,6.454-1.216,33.951,33.951,0,0,0,66.567.724,3.284,3.284,0,0,1,6.425,1.36A40.7,40.7,0,0,1,188.953,67.117Z" fill="#377639"/><path d="M188.953,79.534a52.91,52.91,0,0,1-52.88-50.189,3.286,3.286,0,0,1,6.563-.34,46.378,46.378,0,0,0,90.905,10.33,3.284,3.284,0,1,1,6.317,1.8A53.151,53.151,0,0,1,188.953,79.534Z" fill="#377639"/><path d="M188.953,104.364a77.772,77.772,0,0,1-73.878-102.1,3.283,3.283,0,1,1,6.237,2.055,71.2,71.2,0,0,0,125.6,63.615,3.286,3.286,0,1,1,5.348,3.82A77.992,77.992,0,0,1,188.953,104.364Z" fill="#377639"/><path d="M188.953,91.947A65.371,65.371,0,0,1,128.291,2.229a3.287,3.287,0,1,1,6.1,2.453A58.8,58.8,0,0,0,240.842,54.237a3.286,3.286,0,1,1,5.8,3.1A65.3,65.3,0,0,1,188.953,91.947Z" fill="#377639"/><path d="M230.04,113.237a95.494,95.494,0,0,1-41,9.155,95.894,95.894,0,0,1-74.286-35.239c-.4,2.794-.917,5.55-1.529,8.272a102.375,102.375,0,0,0,75.815,33.537,102.645,102.645,0,0,0,34.377-5.886c-.016-.027-.03-.055-.046-.082A96.163,96.163,0,0,1,230.04,113.237Z" fill="#377639"/><path d="M130.7,192.913a15.817,15.817,0,0,1-3.676-.449,3.285,3.285,0,0,1,1.534-6.389,9.035,9.035,0,0,0,2.142.268,9.132,9.132,0,1,0-5.673-16.281,3.284,3.284,0,1,1-4.081-5.145,15.546,15.546,0,0,1,9.754-3.408,15.7,15.7,0,0,1,0,31.4Z" fill="#8cbf3f"/><path d="M131.312,205.3a3.286,3.286,0,0,1-.083-6.57,21.535,21.535,0,1,0-19.3-32.084,3.285,3.285,0,0,1-5.723-3.227A28.106,28.106,0,1,1,131.392,205.3Z" fill="#8cbf3f"/><path d="M138.089,217.005a3.285,3.285,0,0,1-.644-6.5A33.96,33.96,0,1,0,103.2,157.331a3.285,3.285,0,0,1-5.318-3.857A40.517,40.517,0,1,1,138.74,216.94,3.342,3.342,0,0,1,138.089,217.005Z" fill="#8cbf3f"/><path d="M143.342,228.528a3.285,3.285,0,0,1-.832-6.461,46.383,46.383,0,1,0-56.176-58.416,3.284,3.284,0,1,1-6.281-1.917,52.953,52.953,0,1,1,64.128,66.686A3.2,3.2,0,0,1,143.342,228.528Z" fill="#8cbf3f"/><path d="M167.8,131.655a58.761,58.761,0,0,1-22.114,102.416,3.285,3.285,0,0,0,.832,6.462,3.381,3.381,0,0,0,.84-.109,65.334,65.334,0,0,0,31.7-107.137A106.946,106.946,0,0,1,167.8,131.655Z" fill="#8cbf3f"/><path d="M188.952,133.761c-.649,0-1.288-.038-1.934-.049a71.136,71.136,0,0,1-44.042,113.63,3.286,3.286,0,0,0,.561,6.523,3.436,3.436,0,0,0,.568-.047,77.729,77.729,0,0,0,50.944-120.242C193.03,133.69,191,133.761,188.952,133.761Z" fill="#8cbf3f"/><path d="M201.624,132.986A83.161,83.161,0,0,1,187.852,238a106.2,106.2,0,0,1,12.037-3.226,89.583,89.583,0,0,0,8.755-102.854Q205.172,132.564,201.624,132.986Z" fill="#8cbf3f"/><path d="M214.837,130.582a96.28,96.28,0,0,1-6.177,102.8q4.164-.494,8.418-.667a102.909,102.909,0,0,0,4.243-103.966Q218.121,129.77,214.837,130.582Z" fill="#8cbf3f"/><path d="M67.282,161.578c-.269,1.1-.561,2.186-.775,3.307a3.286,3.286,0,0,0,6.455,1.23,58.4,58.4,0,0,1,3.338-11.13A107.977,107.977,0,0,1,67.282,161.578Z" fill="#8cbf3f"/><path d="M124.5,112.154a65.063,65.063,0,0,0-18.527,4.617,107.1,107.1,0,0,1-5.2,9.868,58.582,58.582,0,0,1,29.919-8.223c1.132,0,2.237.106,3.354.17A107.466,107.466,0,0,1,124.5,112.154Z" fill="#8cbf3f"/><path d="M112.536,101.635c-.333.08-.655.19-.987.274-.74,2.535-1.558,5.036-2.477,7.489a70.937,70.937,0,0,1,9.241-2.312Q115.328,104.463,112.536,101.635Z" fill="#8cbf3f"/><path d="M105.353,25.676A83.929,83.929,0,0,1,107.89,5.981a3.285,3.285,0,0,0-6.368-1.614A89.851,89.851,0,0,0,99.492,15.1,106.908,106.908,0,0,1,105.353,25.676Z" fill="#377639"/><path d="M257.452,80.152a3.269,3.269,0,0,0-4.627.387,83.582,83.582,0,0,1-137.1-13.616c.076,1.654.127,3.316.127,4.989,0,2.373-.106,4.72-.258,7.055A90.1,90.1,0,0,0,257.839,84.78,3.281,3.281,0,0,0,257.452,80.152Z" fill="#377639"/><path d="M200.108,355.906a3.284,3.284,0,0,1-2.812-1.581,28.1,28.1,0,0,1,39.668-37.909,3.286,3.286,0,0,1-3.654,5.463,21.523,21.523,0,0,0-30.4,29.037,3.283,3.283,0,0,1-1.1,4.512A3.246,3.246,0,0,1,200.108,355.906Z" fill="#ffcc27"/><path d="M188.559,360.772a3.277,3.277,0,0,1-2.891-1.722,40.506,40.506,0,0,1,55.865-54.371,3.286,3.286,0,1,1-3.278,5.7,33.952,33.952,0,0,0-46.812,45.55,3.281,3.281,0,0,1-1.325,4.45A3.237,3.237,0,0,1,188.559,360.772Z" fill="#ffcc27"/><path d="M175.951,363.228a3.291,3.291,0,0,1-3.007-1.95,52.941,52.941,0,0,1,77.4-65.774,3.284,3.284,0,1,1-3.6,5.492,46.371,46.371,0,0,0-67.793,57.612,3.284,3.284,0,0,1-3,4.62Z" fill="#ffcc27"/><path d="M160.741,329.6a3.478,3.478,0,0,1-.713-.076,3.291,3.291,0,0,1-2.5-3.919,65.362,65.362,0,0,1,94.226-43.668,3.284,3.284,0,1,1-3.061,5.81,58.8,58.8,0,0,0-84.747,39.277A3.288,3.288,0,0,1,160.741,329.6Z" fill="#ffcc27"/><path d="M155.194,308.8a3.285,3.285,0,0,1-2.912-4.8,77.766,77.766,0,0,1,103.976-33.705,3.284,3.284,0,0,1-2.952,5.868,71.2,71.2,0,0,0-95.192,30.861A3.285,3.285,0,0,1,155.194,308.8Z" fill="#ffcc27"/><path d="M210.831,349.668a3.283,3.283,0,0,1-2.786-1.537,15.692,15.692,0,0,1,23.362-20.38,3.285,3.285,0,0,1-4.219,5.036,9.119,9.119,0,0,0-13.578,11.849,3.285,3.285,0,0,1-2.779,5.032Z" fill="#ffcc27"/><path d="M229.778,250.03c-2.8-.26-5.608-.438-8.444-.438A90.181,90.181,0,0,0,146.67,289.18a3.285,3.285,0,1,0,5.435,3.69,83.576,83.576,0,0,1,87.046-34.78A108.048,108.048,0,0,1,229.778,250.03Z" fill="#ffcc27"/><path d="M218.319,237.032A101.863,101.863,0,0,0,139.9,277.255a3.285,3.285,0,0,0,5.217,3.994,95.407,95.407,0,0,1,76.3-37.735c.742,0,1.474.067,2.214.083C221.772,241.484,220.01,239.288,218.319,237.032Z" fill="#ffcc27"/><path d="M273.411,263.366a95.872,95.872,0,0,1-47.885-36.137q-1.7,3.19-3.593,6.251a102.42,102.42,0,0,0,49.358,36.108,3.287,3.287,0,0,0,2.12-6.222Z" fill="#059899"/><path d="M295.386,184.614a3.262,3.262,0,0,1-2.355-1,15.691,15.691,0,0,1,22.182-22.193,3.285,3.285,0,0,1-4.573,4.718,9.123,9.123,0,0,0-12.9,12.9,3.286,3.286,0,0,1-2.356,5.572Z" fill="#059899"/><path d="M286.32,193.08a3.276,3.276,0,0,1-2.381-1.021,28.092,28.092,0,0,1,39.5-39.92,3.284,3.284,0,1,1-4.479,4.8A21.522,21.522,0,0,0,288.7,187.53a3.285,3.285,0,0,1-2.38,5.55Z" fill="#059899"/><path d="M277.286,201.578a3.284,3.284,0,0,1-2.384-1.024,40.465,40.465,0,0,1,18.433-66.86,3.284,3.284,0,1,1,1.773,6.325,33.9,33.9,0,0,0-15.438,56.013,3.285,3.285,0,0,1-2.384,5.546Z" fill="#059899"/><path d="M271.074,212.888a3.287,3.287,0,0,1-2.2-.843,52.943,52.943,0,0,1,20.431-90.138,3.286,3.286,0,0,1,1.859,6.3,46.368,46.368,0,0,0-17.89,78.951,3.286,3.286,0,0,1-2.2,5.727Z" fill="#059899"/><path d="M274.869,230.652a3.278,3.278,0,0,1-1.556-.394,65.377,65.377,0,0,1,7.775-118.68,3.286,3.286,0,1,1,2.338,6.143,58.805,58.805,0,0,0-6.994,106.755,3.285,3.285,0,0,1-1.563,6.176Z" fill="#059899"/><path d="M235.593,153.959a71.147,71.147,0,0,1,35.322-44.176,3.286,3.286,0,0,0-3.083-5.8,77.74,77.74,0,0,0-35.322,38.778A106.645,106.645,0,0,1,235.593,153.959Z" fill="#059899"/><path d="M278.842,239.2a71.649,71.649,0,0,1-42.262-44.68,106.772,106.772,0,0,1-2.524,11.332,78.1,78.1,0,0,0,42.434,39.484,3.286,3.286,0,0,0,2.352-6.136Z" fill="#059899"/><path d="M229.507,135.315a83.781,83.781,0,0,1,34.255-35.774,3.286,3.286,0,1,0-3.191-5.745A90.309,90.309,0,0,0,226,128C227.259,130.388,228.434,132.823,229.507,135.315Z" fill="#059899"/><path d="M279.457,252.57A83.221,83.221,0,0,1,231.371,213.7q-1.445,3.851-3.182,7.549a89.852,89.852,0,0,0,49.321,37.593,3.284,3.284,0,0,0,1.947-6.273Z" fill="#059899"/><path d="M328.632,147.819a3.279,3.279,0,0,1-2.149-.8,33.675,33.675,0,0,0-19.07-8.133,3.28,3.28,0,0,1-2.974-3.567,3.243,3.243,0,0,1,3.567-2.974,40.192,40.192,0,0,1,22.775,9.7,3.286,3.286,0,0,1-2.149,5.771Z" fill="#059899"/><path d="M8.666,87.614,8.232,87.6A3.359,3.359,0,0,1,5.078,84.16a3.222,3.222,0,0,1,3.2-3.139c.069,0,.3.014.377.014h0a9.124,9.124,0,0,0,6.593-15.45,3.288,3.288,0,1,1,4.751-4.548A15.637,15.637,0,0,1,24.381,71.9,15.733,15.733,0,0,1,8.666,87.614Z" fill="#f2971f"/><path d="M8.666,100.041l-.395-.018a3.288,3.288,0,1,1,.511-6.554A21.571,21.571,0,0,0,30.232,71.9,21.441,21.441,0,0,0,24.16,56.923a3.288,3.288,0,0,1,4.729-4.569A28,28,0,0,1,36.808,71.9,28.176,28.176,0,0,1,8.666,100.041Z" fill="#f2971f"/><path d="M8.666,112.468a40.817,40.817,0,0,1-5.218-.369,3.289,3.289,0,0,1,.84-6.525,33.825,33.825,0,0,0,4.378.319A34.029,34.029,0,0,0,42.656,71.9a33.641,33.641,0,0,0-10.8-24.8,3.286,3.286,0,1,1,4.489-4.8A40.149,40.149,0,0,1,49.231,71.9,40.612,40.612,0,0,1,8.666,112.468Z" fill="#f2971f"/><path d="M8.666,124.892a53.378,53.378,0,0,1-5.732-.312,3.287,3.287,0,0,1-2.915-3.624,3.341,3.341,0,0,1,3.625-2.915,45.884,45.884,0,0,0,5.022.275A46.471,46.471,0,0,0,55.083,71.9,46.308,46.308,0,0,0,38.177,36.071,3.287,3.287,0,0,1,42.362,31a52.846,52.846,0,0,1,19.3,40.9A53.051,53.051,0,0,1,8.666,124.892Z" fill="#f2971f"/><path d="M18.845,149.036a3.289,3.289,0,0,1-.442-6.547A71.478,71.478,0,0,0,79.937,71.9a71.11,71.11,0,0,0-25.7-54.785,3.289,3.289,0,1,1,4.208-5.055A77.67,77.67,0,0,1,86.512,71.9a78.081,78.081,0,0,1-67.218,77.107A3.828,3.828,0,0,1,18.845,149.036Z" fill="#f2971f"/><path d="M34.661,158.219a3.289,3.289,0,0,1-.982-6.428A83.688,83.688,0,0,0,69.429,14.374,3.286,3.286,0,1,1,74.2,9.855,90.262,90.262,0,0,1,35.642,158.07,3.3,3.3,0,0,1,34.661,158.219Z" fill="#f2971f"/><path d="M50.734,165.066A3.288,3.288,0,0,1,49.34,158.8a96.512,96.512,0,0,0,55.53-87.13A96.341,96.341,0,0,0,83.391,11.122,3.287,3.287,0,0,1,88.5,6.98a102.908,102.908,0,0,1,22.95,64.688,103.116,103.116,0,0,1-59.325,93.09A3.272,3.272,0,0,1,50.734,165.066Z" fill="#f2971f"/><path d="M74.085,71.9A64.937,64.937,0,0,0,48.054,19.671a3.289,3.289,0,0,0-3.961,5.251A58.408,58.408,0,0,1,67.51,71.9a58.921,58.921,0,0,1-54.178,58.612c-.343.026-.684.057-1.028.078-.453.029-.909.045-1.365.065-.917.037-1.834.071-2.758.07a3.288,3.288,0,0,0-.451,6.546,3.661,3.661,0,0,0,.448.032c.54,0,1.075-.025,1.612-.036,0,.007,2.174-.067,2.549-.086.658-.035,2.787-.217,2.787-.217A65.484,65.484,0,0,0,74.085,71.9Z" fill="#f2971f"/></g></g></g></svg>