<svg width="40" height="40" viewBox="0 0 40 40" fill="none" xmlns="http://www.w3.org/2000/svg">
<path d="M22.0113 7.80875C21.7615 7.80895 21.5164 7.74093 21.3024 7.61201C21.0885 7.48309 20.9138 7.29818 20.7973 7.07725C20.7796 7.04391 20.7687 7.00742 20.7651 6.96986C20.7616 6.93229 20.7655 6.8944 20.7765 6.85834C20.7876 6.82227 20.8057 6.78874 20.8297 6.75967C20.8538 6.73059 20.8833 6.70654 20.9167 6.68887C20.95 6.67121 20.9865 6.66029 21.024 6.65673C21.0616 6.65317 21.0995 6.65704 21.1356 6.66812C21.1716 6.67921 21.2052 6.69729 21.2342 6.72133C21.2633 6.74537 21.2874 6.77491 21.305 6.80825C21.3779 6.94647 21.4897 7.06028 21.6266 7.13555C21.7635 7.21082 21.9195 7.24424 22.0752 7.23168C22.2309 7.21911 22.3796 7.16111 22.5026 7.06486C22.6257 6.96862 22.7178 6.83836 22.7675 6.69025C22.7789 6.65361 22.7974 6.61962 22.8221 6.59027C22.8468 6.56091 22.8771 6.5368 22.9112 6.51933C22.9454 6.50187 22.9827 6.49141 23.0209 6.48858C23.0592 6.48575 23.0976 6.49059 23.1339 6.50284C23.1703 6.51508 23.2038 6.53447 23.2326 6.55986C23.2613 6.58526 23.2847 6.61615 23.3013 6.65071C23.3179 6.68527 23.3274 6.72281 23.3293 6.76112C23.3312 6.79942 23.3254 6.83772 23.3123 6.87375C23.2207 7.14627 23.0459 7.38314 22.8125 7.55092C22.579 7.71869 22.2988 7.80888 22.0113 7.80875Z" fill="#35752D"/>
<path d="M22.0112 8.89509C21.5267 8.89577 21.0527 8.75303 20.6491 8.48486C20.2455 8.21668 19.9303 7.83507 19.7432 7.38809C19.7137 7.31784 19.7133 7.23874 19.7421 7.16818C19.7708 7.09762 19.8265 7.04138 19.8967 7.01184C19.967 6.9823 20.0461 6.98188 20.1166 7.01067C20.1872 7.03946 20.2434 7.09509 20.273 7.16534C20.4186 7.51321 20.6653 7.80935 20.9812 8.01542C21.297 8.22148 21.6675 8.32799 22.0445 8.32115C22.4216 8.31431 22.7879 8.19443 23.0961 7.97704C23.4042 7.75966 23.6401 7.45476 23.773 7.10184C23.7864 7.06657 23.8066 7.03427 23.8325 7.00681C23.8583 6.97934 23.8894 6.95724 23.9238 6.94177C23.9582 6.9263 23.9953 6.91776 24.033 6.91663C24.0708 6.91551 24.1083 6.92182 24.1436 6.93522C24.1789 6.94861 24.2112 6.96882 24.2386 6.9947C24.2661 7.02057 24.2882 7.0516 24.3037 7.08602C24.3191 7.12044 24.3277 7.15756 24.3288 7.19528C24.3299 7.233 24.3236 7.27057 24.3102 7.30584C24.1322 7.77185 23.8173 8.17306 23.407 8.45673C22.9967 8.74039 22.5101 8.89321 22.0112 8.89509Z" fill="#35752D"/>
<path d="M22.0112 9.98103C21.1858 9.98076 20.3864 9.69248 19.7508 9.1659C19.1152 8.63933 18.6833 7.90747 18.5295 7.09653C18.5218 7.05917 18.5216 7.02066 18.5289 6.98322C18.5363 6.94579 18.551 6.91019 18.5722 6.87851C18.5935 6.84683 18.6208 6.81969 18.6526 6.79869C18.6845 6.77768 18.7202 6.76323 18.7577 6.75618C18.7952 6.74912 18.8337 6.7496 18.871 6.75759C18.9083 6.76558 18.9436 6.78092 18.9749 6.80271C19.0062 6.82451 19.0329 6.85232 19.0533 6.88452C19.0738 6.91672 19.0876 6.95268 19.094 6.99028C19.2218 7.66433 19.5791 8.27333 20.1051 8.71379C20.6311 9.15424 21.2934 9.39899 21.9795 9.40644C22.6655 9.4139 23.3329 9.18359 23.8684 8.75466C24.4038 8.32574 24.7743 7.72465 24.9167 7.05353C24.9325 6.97897 24.9773 6.91374 25.0411 6.87217C25.105 6.83061 25.1828 6.81613 25.2574 6.83191C25.3319 6.84769 25.3972 6.89244 25.4387 6.95632C25.4803 7.0202 25.4948 7.09797 25.479 7.17253C25.3077 7.96582 24.8704 8.67676 24.2398 9.18755C23.6091 9.69833 22.8228 9.97829 22.0112 9.98103Z" fill="#35752D"/>
<path d="M22.0112 11.0673C20.8245 11.068 19.6828 10.6129 18.8221 9.79586C17.9614 8.97886 17.4473 7.86244 17.3862 6.67727C17.3823 6.60102 17.4088 6.52633 17.4599 6.46962C17.5111 6.41292 17.5826 6.37884 17.6589 6.3749C17.7351 6.37095 17.8098 6.39746 17.8665 6.44859C17.9232 6.49971 17.9573 6.57127 17.9613 6.64752C18.0115 7.60627 18.4001 8.51614 19.058 9.21533C19.7159 9.91452 20.6005 10.3577 21.5544 10.4661C22.5084 10.5745 23.4698 10.3411 24.2678 9.8073C25.0659 9.27355 25.6487 8.47406 25.9128 7.55102C25.9336 7.47776 25.9828 7.41579 26.0494 7.37875C26.1159 7.34171 26.1945 7.33264 26.2677 7.35352C26.341 7.37441 26.403 7.42354 26.44 7.49012C26.4771 7.55669 26.4861 7.63526 26.4653 7.70852C26.186 8.67476 25.6009 9.52439 24.7979 10.13C23.9948 10.7356 23.017 11.0644 22.0112 11.0673Z" fill="#35752D"/>
<path d="M22.0112 13.2394C20.9353 13.2395 19.8746 12.9844 18.9164 12.495C17.9582 12.0057 17.1297 11.296 16.499 10.4243C15.8682 9.55259 15.4533 8.54371 15.2881 7.4805C15.123 6.4173 15.2124 5.33008 15.549 4.30813C15.5741 4.2374 15.6259 4.1793 15.6933 4.14626C15.7607 4.11323 15.8383 4.10788 15.9096 4.13137C15.9809 4.15486 16.0401 4.20532 16.0747 4.27195C16.1093 4.33857 16.1164 4.41608 16.0945 4.48788C15.6285 5.90292 15.6852 7.43812 16.2543 8.81495C16.8233 10.1918 17.8671 11.319 19.1961 11.9922C20.5251 12.6653 22.0515 12.8398 23.4981 12.4839C24.9448 12.128 26.2159 11.2653 27.081 10.0524C27.1253 9.99038 27.1925 9.94854 27.2676 9.93604C27.3428 9.92355 27.4199 9.94143 27.4819 9.98575C27.5439 10.0301 27.5857 10.0972 27.5982 10.1724C27.6107 10.2476 27.5928 10.3246 27.5485 10.3866C26.9183 11.2676 26.0874 11.9858 25.1245 12.4819C24.1616 12.978 23.0944 13.2376 22.0112 13.2394Z" fill="#35752D"/>
<path d="M22.0113 12.1531C21.0763 12.1529 20.1557 11.9235 19.33 11.485C18.5043 11.0465 17.7988 10.4122 17.2751 9.6377C16.7514 8.86321 16.4256 7.97213 16.3262 7.0425C16.2268 6.11288 16.3569 5.17307 16.705 4.30537C16.7335 4.23459 16.7889 4.17801 16.859 4.14807C16.9292 4.11814 17.0084 4.1173 17.0791 4.14574C17.1499 4.17419 17.2065 4.22959 17.2364 4.29975C17.2664 4.36991 17.2672 4.44909 17.2388 4.51987C16.7485 5.74114 16.7451 7.10387 17.2291 8.3276C17.7132 9.55133 18.648 10.5429 19.841 11.0983C21.0341 11.6537 22.3947 11.7307 23.6427 11.3133C24.8908 10.8959 25.9313 10.016 26.5503 8.85462C26.5874 8.78965 26.6484 8.74171 26.7203 8.72099C26.7922 8.70027 26.8693 8.7084 26.9353 8.74364C27.0013 8.77889 27.051 8.83848 27.0738 8.90976C27.0965 8.98104 27.0906 9.05838 27.0573 9.12537C26.5701 10.0404 25.8431 10.8057 24.9542 11.3391C24.0652 11.8724 23.0479 12.1538 22.0113 12.1531Z" fill="#35752D"/>
<path d="M25.6053 14.0157C24.4839 14.5452 23.2587 14.8185 22.0185 14.8157C20.7747 14.8158 19.5464 14.5392 18.4225 14.0061C17.2987 13.473 16.3075 12.6966 15.5208 11.7332C15.4858 11.9777 15.4405 12.2187 15.387 12.4567C16.2267 13.381 17.2505 14.1195 18.3925 14.6248C19.5346 15.13 20.7697 15.3907 22.0185 15.3902C23.043 15.3914 24.0601 15.2173 25.0258 14.8754L25.0218 14.8682C25.1986 14.5723 25.3934 14.2876 25.6053 14.0157Z" fill="#35752D"/>
<path d="M16.9163 20.9853C16.8079 20.9849 16.7 20.9717 16.5948 20.946C16.5207 20.9282 16.4567 20.8817 16.4169 20.8168C16.3771 20.7518 16.3647 20.6736 16.3825 20.5995C16.4003 20.5255 16.4468 20.4615 16.5118 20.4217C16.5768 20.3819 16.6549 20.3695 16.729 20.3873C16.8607 20.4193 16.9984 20.4172 17.129 20.3813C17.2597 20.3454 17.3791 20.2768 17.4759 20.182C17.5727 20.0872 17.6438 19.9693 17.6825 19.8394C17.7212 19.7095 17.7261 19.5719 17.6969 19.4396C17.6677 19.3072 17.6053 19.1845 17.5156 19.083C17.4258 18.9814 17.3117 18.9044 17.1839 18.8592C17.0562 18.8139 16.919 18.8019 16.7854 18.8244C16.6517 18.8468 16.526 18.9028 16.42 18.9873C16.3602 19.0331 16.2848 19.0535 16.2101 19.0442C16.1353 19.035 16.0672 18.9967 16.0204 18.9377C15.9736 18.8787 15.9518 18.8037 15.9598 18.7288C15.9678 18.6539 16.0048 18.5851 16.063 18.5373C16.3049 18.343 16.606 18.2373 16.9163 18.2378C17.2805 18.2378 17.6299 18.3825 17.8875 18.6401C18.145 18.8977 18.2898 19.247 18.2898 19.6113C18.2898 19.9756 18.145 20.3249 17.8875 20.5825C17.6299 20.8401 17.2805 20.9848 16.9163 20.9848V20.9853Z" fill="#8CBE2F"/>
<path d="M16.9693 22.0681C16.9315 22.0686 16.894 22.0616 16.859 22.0476C16.8239 22.0336 16.7919 22.0128 16.7649 21.9865C16.7379 21.9601 16.7163 21.9287 16.7014 21.894C16.6865 21.8593 16.6786 21.822 16.6781 21.7843C16.6777 21.7465 16.6846 21.709 16.6986 21.674C16.7126 21.6389 16.7334 21.6069 16.7598 21.5799C16.7861 21.5529 16.8176 21.5313 16.8523 21.5164C16.887 21.5015 16.9242 21.4936 16.962 21.4931C17.2916 21.4851 17.6132 21.3908 17.8949 21.2196C18.1766 21.0483 18.4084 20.8061 18.5672 20.5173C18.726 20.2284 18.8062 19.9029 18.7997 19.5733C18.7933 19.2437 18.7005 18.9216 18.5306 18.6391C18.3607 18.3566 18.1197 18.1236 17.8315 17.9634C17.5434 17.8033 17.2183 17.7215 16.8887 17.7264C16.5591 17.7312 16.2365 17.8225 15.9532 17.991C15.6699 18.1596 15.4358 18.3995 15.2743 18.6869C15.2357 18.751 15.1736 18.7976 15.1013 18.8166C15.0289 18.8357 14.9519 18.8257 14.8868 18.7889C14.8216 18.7521 14.7734 18.6913 14.7524 18.6195C14.7314 18.5477 14.7392 18.4705 14.7743 18.4044C14.9852 18.0295 15.2909 17.7165 15.6606 17.4968C16.0304 17.277 16.4514 17.158 16.8815 17.1519C17.3116 17.1457 17.7358 17.2525 18.1117 17.4616C18.4877 17.6706 18.8022 17.9747 19.0238 18.3434C19.2455 18.712 19.3665 19.1324 19.3748 19.5625C19.3832 19.9926 19.2785 20.4173 19.0713 20.7943C18.8641 21.1713 18.5616 21.4873 18.1941 21.7108C17.8265 21.9342 17.4068 22.0574 16.9768 22.0679L16.9693 22.0681Z" fill="#8CBE2F"/>
<path d="M17.562 23.0924C17.4907 23.0925 17.4219 23.066 17.369 23.0181C17.3161 22.9702 17.2829 22.9044 17.2759 22.8334C17.2688 22.7624 17.2885 22.6913 17.331 22.634C17.3735 22.5767 17.4358 22.5373 17.5058 22.5234C17.98 22.428 18.4237 22.2182 18.7984 21.9123C19.1731 21.6064 19.4675 21.2136 19.6559 20.7681C19.8442 20.3225 19.921 19.8377 19.8794 19.3558C19.8378 18.8739 19.6791 18.4094 19.4172 18.0027C19.1553 17.5961 18.798 17.2595 18.3764 17.0223C17.9548 16.7852 17.4817 16.6545 16.9982 16.6418C16.5146 16.629 16.0353 16.7346 15.6018 16.9492C15.1683 17.1638 14.7938 17.4811 14.5108 17.8734C14.4886 17.9039 14.4607 17.9298 14.4285 17.9496C14.3964 17.9693 14.3607 17.9825 14.3234 17.9885C14.2862 17.9944 14.2481 17.993 14.2114 17.9842C14.1747 17.9754 14.1401 17.9595 14.1095 17.9374C14.079 17.9152 14.0531 17.8873 14.0333 17.8551C14.0136 17.823 14.0004 17.7873 13.9944 17.75C13.9885 17.7128 13.9899 17.6747 13.9987 17.638C14.0075 17.6013 14.0234 17.5667 14.0455 17.5361C14.3836 17.0688 14.8307 16.691 15.3479 16.4356C15.8651 16.1803 16.4368 16.055 17.0134 16.0706C17.59 16.0863 18.1541 16.2425 18.6567 16.5256C19.1592 16.8087 19.5851 17.2102 19.8973 17.6952C20.2095 18.1803 20.3986 18.7341 20.4482 19.3088C20.4978 19.8835 20.4064 20.4616 20.1819 20.993C19.9574 21.5243 19.6066 21.9928 19.16 22.3579C18.7134 22.7229 18.1844 22.9734 17.619 23.0876C17.6002 23.0911 17.5811 23.0927 17.562 23.0924Z" fill="#8CBE2F"/>
<path d="M18.0215 24.1C17.9517 24.0998 17.8844 24.0743 17.8321 24.0282C17.7798 23.9821 17.746 23.9186 17.7371 23.8494C17.7282 23.7802 17.7448 23.7102 17.7837 23.6523C17.8226 23.5945 17.8813 23.5528 17.9487 23.535C18.6323 23.3548 19.2569 22.9992 19.7608 22.5034C20.2646 22.0076 20.6301 21.3887 20.8212 20.7081C21.0122 20.0275 21.0221 19.3088 20.8499 18.6232C20.6777 17.9376 20.3293 17.3089 19.8393 16.7994C19.3494 16.2898 18.7347 15.9172 18.0564 15.7183C17.3781 15.5194 16.6595 15.5012 15.972 15.6655C15.2844 15.8298 14.6517 16.1708 14.1366 16.6549C13.6214 17.139 13.2417 17.7492 13.035 18.4252C13.0127 18.4981 12.9624 18.5593 12.8951 18.5951C12.8278 18.6309 12.749 18.6386 12.6761 18.6163C12.6032 18.5941 12.5421 18.5438 12.5062 18.4765C12.4704 18.4092 12.4627 18.3304 12.485 18.2575C12.7209 17.4856 13.1544 16.7889 13.7425 16.2361C14.3306 15.6834 15.053 15.294 15.8379 15.1064C16.6229 14.9188 17.4433 14.9395 18.2178 15.1666C18.9922 15.3936 19.694 15.8191 20.2534 16.4008C20.8128 16.9826 21.2105 17.7004 21.4071 18.4831C21.6037 19.2659 21.5924 20.0865 21.3742 20.8635C21.1561 21.6405 20.7387 22.3471 20.1634 22.9132C19.5881 23.4792 18.8749 23.8851 18.0945 24.0907C18.0706 24.0969 18.0461 24.1 18.0215 24.1Z" fill="#8CBE2F"/>
<path d="M20.161 15.6265C20.8974 16.2251 21.4537 17.0159 21.7682 17.9113C22.0827 18.8067 22.1432 19.7717 21.9429 20.6994C21.7426 21.627 21.2894 22.4811 20.6335 23.167C19.9776 23.8528 19.1446 24.3437 18.2268 24.5852C18.1591 24.6028 18.1002 24.6445 18.0611 24.7024C18.0219 24.7603 18.0053 24.8305 18.0142 24.8999C18.0231 24.9692 18.057 25.0329 18.1095 25.0791C18.1621 25.1252 18.2296 25.1506 18.2995 25.1505C18.3243 25.1503 18.349 25.1472 18.373 25.141C19.323 24.8909 20.1925 24.4001 20.8975 23.7161C21.6026 23.032 22.1194 22.1778 22.3981 21.2358C22.6768 20.2938 22.708 19.2959 22.4887 18.3384C22.2694 17.3808 21.807 16.496 21.146 15.7692C20.8154 15.7392 20.4866 15.6915 20.161 15.6265Z" fill="#8CBE2F"/>
<path d="M22.0113 15.8104C21.9545 15.8104 21.8985 15.8072 21.842 15.8062C22.4987 16.6543 22.9249 17.6578 23.0794 18.7193C23.2339 19.7808 23.1114 20.8641 22.7237 21.8643C22.3361 22.8644 21.6965 23.7474 20.867 24.4274C20.0375 25.1075 19.0463 25.5616 17.9895 25.7457C17.9189 25.7583 17.8555 25.797 17.8119 25.854C17.7682 25.911 17.7475 25.9823 17.7538 26.0538C17.7601 26.1253 17.7928 26.1919 17.8457 26.2404C17.8986 26.289 17.9677 26.316 18.0395 26.3162C18.0563 26.3162 18.073 26.3149 18.0895 26.3122C19.2085 26.1167 20.2608 25.6441 21.1501 24.9373C22.0395 24.2306 22.7376 23.3123 23.1808 22.2664C23.6239 21.2204 23.798 20.0801 23.6871 18.9496C23.5762 17.819 23.1838 16.7343 22.5458 15.7944C22.368 15.8047 22.1913 15.8104 22.0113 15.8104Z" fill="#8CBE2F"/>
<path d="M23.1198 15.7429C24.0177 17.1753 24.3887 18.8757 24.1691 20.552C23.9494 22.2282 23.1529 23.7757 21.9163 24.9284C22.2614 24.8138 22.613 24.7196 22.9693 24.6462C24.0093 23.4087 24.6412 21.8798 24.7783 20.2692C24.9154 18.6585 24.551 17.0449 23.735 15.6494C23.5317 15.6872 23.3266 15.7184 23.1198 15.7429Z" fill="#8CBE2F"/>
<path d="M24.2755 15.5326C25.046 16.9289 25.4042 18.5152 25.3086 20.1071C25.2129 21.6991 24.6672 23.2311 23.735 24.5251C23.978 24.4962 24.2235 24.4768 24.4715 24.4668C25.3358 23.1206 25.8258 21.5685 25.891 19.97C25.9562 18.3716 25.5943 16.7847 24.8425 15.3726C24.656 15.4311 24.467 15.4844 24.2755 15.5326Z" fill="#8CBE2F"/>
<path d="M11.3685 18.2437C11.345 18.3397 11.3185 18.435 11.3007 18.533C11.2937 18.5701 11.294 18.6081 11.3016 18.6451C11.3093 18.6821 11.3241 18.7171 11.3453 18.7483C11.3665 18.7796 11.3937 18.8063 11.4252 18.827C11.4567 18.8477 11.4921 18.862 11.5291 18.8691C11.5662 18.8762 11.6043 18.8759 11.6412 18.8682C11.6782 18.8606 11.7133 18.8457 11.7445 18.8245C11.7757 18.8033 11.8024 18.7762 11.8231 18.7446C11.8439 18.7131 11.8582 18.6778 11.8652 18.6407C11.93 18.3073 12.0278 17.9812 12.1572 17.6672C11.9044 17.8729 11.6412 18.0653 11.3685 18.2437Z" fill="#8CBE2F"/>
<path d="M16.3738 13.9207C15.8166 13.9749 15.2705 14.111 14.753 14.3247C14.6167 14.6201 14.465 14.9081 14.2985 15.1877C15.0906 14.717 15.9949 14.4685 16.9163 14.4684C17.0163 14.4684 17.112 14.4779 17.2098 14.4834C16.9212 14.311 16.6421 14.1231 16.3738 13.9207Z" fill="#8CBE2F"/>
<path d="M15.327 13.0005C15.2977 13.0075 15.2697 13.017 15.2405 13.0255C15.1757 13.2472 15.1042 13.466 15.024 13.6805C15.2886 13.595 15.5586 13.5275 15.8322 13.4782C15.6582 13.3242 15.4892 13.1657 15.327 13.0005Z" fill="#8CBE2F"/>
<path d="M14.6985 6.35633C14.7042 5.77532 14.7787 5.19704 14.9205 4.63358C14.9298 4.597 14.9317 4.55896 14.9263 4.52162C14.9209 4.48428 14.9082 4.44838 14.8888 4.41596C14.8695 4.38354 14.844 4.35524 14.8138 4.33268C14.7836 4.31011 14.7492 4.29372 14.7126 4.28445C14.676 4.27518 14.638 4.2732 14.6006 4.27862C14.5633 4.28405 14.5274 4.29678 14.495 4.31608C14.4626 4.33538 14.4343 4.36088 14.4117 4.39112C14.3891 4.42136 14.3728 4.45575 14.3635 4.49233C14.2854 4.80137 14.2261 5.11486 14.186 5.43108C14.3741 5.7296 14.5452 6.03851 14.6985 6.35633Z" fill="#35752D"/>
<path d="M28.003 11.1214C27.9742 11.0969 27.9409 11.0783 27.905 11.0667C27.869 11.0552 27.8312 11.0509 27.7935 11.054C27.7559 11.0572 27.7193 11.0678 27.6857 11.0852C27.6522 11.1026 27.6225 11.1264 27.5982 11.1554C26.8331 12.0619 25.8589 12.7686 24.7596 13.2145C23.6604 13.6604 22.4691 13.8321 21.2887 13.7149C20.1083 13.5976 18.9741 13.1949 17.984 12.5414C16.994 11.888 16.1778 11.0034 15.606 9.96411C15.6127 10.1089 15.617 10.2544 15.617 10.4006C15.617 10.6081 15.6077 10.8136 15.5945 11.0179C16.2918 11.9964 17.2037 12.8026 18.2604 13.3747C19.3171 13.9468 20.4906 14.2698 21.6913 14.3188C22.8919 14.3679 24.0879 14.1417 25.1877 13.6577C26.2875 13.1737 27.2621 12.4446 28.037 11.5261C28.0614 11.4973 28.0798 11.464 28.0913 11.4281C28.1028 11.3921 28.1071 11.3543 28.1039 11.3167C28.1007 11.2791 28.0902 11.2425 28.0729 11.209C28.0556 11.1755 28.0318 11.1457 28.003 11.1214Z" fill="#35752D"/>
<path d="M22.987 35.2421C22.9376 35.2421 22.889 35.2294 22.8459 35.2052C22.8028 35.181 22.7666 35.1461 22.741 35.1038C22.4516 34.6252 22.3341 34.0623 22.4078 33.5079C22.4815 32.9535 22.742 32.4408 23.1463 32.0544C23.5507 31.668 24.0747 31.431 24.6318 31.3825C25.189 31.3341 25.746 31.477 26.211 31.7878C26.2744 31.8302 26.3183 31.8961 26.3332 31.9709C26.348 32.0457 26.3325 32.1233 26.2901 32.1867C26.2691 32.2181 26.2422 32.245 26.2108 32.266C26.1793 32.2869 26.1441 32.3015 26.1071 32.3089C26.0323 32.3237 25.9546 32.3082 25.8913 32.2658C25.5352 32.0267 25.1081 31.9164 24.6807 31.953C24.2534 31.9897 23.8514 32.1712 23.5412 32.4675C23.2311 32.7637 23.0314 33.157 22.9752 33.5823C22.919 34.0075 23.0097 34.4392 23.2323 34.8058C23.2518 34.838 23.2649 34.8738 23.2706 34.9111C23.2764 34.9484 23.2747 34.9864 23.2658 35.0231C23.2568 35.0597 23.2407 35.0942 23.2184 35.1246C23.1961 35.155 23.168 35.1808 23.1358 35.2003C23.091 35.2277 23.0395 35.2422 22.987 35.2421Z" fill="#FFCB25"/>
<path d="M21.9768 35.6678C21.925 35.668 21.8742 35.6541 21.8297 35.6277C21.7852 35.6013 21.7487 35.5633 21.724 35.5178C21.3559 34.8393 21.2194 34.059 21.3354 33.2958C21.4514 32.5326 21.8135 31.8281 22.3666 31.2896C22.9198 30.7511 23.6337 30.4079 24.3997 30.3124C25.1658 30.2169 25.9421 30.3741 26.6105 30.7603C26.6432 30.7791 26.6719 30.8042 26.6949 30.8341C26.7179 30.864 26.7348 30.8981 26.7446 30.9346C26.7545 30.971 26.757 31.009 26.7521 31.0464C26.7473 31.0838 26.7351 31.1199 26.7163 31.1526C26.6975 31.1853 26.6724 31.214 26.6425 31.237C26.6126 31.26 26.5785 31.2769 26.5421 31.2867C26.5056 31.2965 26.4676 31.2991 26.4302 31.2942C26.3928 31.2893 26.3567 31.2771 26.324 31.2583C25.764 30.9361 25.1142 30.8053 24.4732 30.8858C23.8321 30.9662 23.2348 31.2535 22.7717 31.704C22.3087 32.1546 22.0052 32.7438 21.9072 33.3825C21.8093 34.0211 21.9223 34.6742 22.229 35.2428C22.247 35.276 22.2583 35.3124 22.2622 35.3499C22.2661 35.3874 22.2626 35.4253 22.2518 35.4614C22.2411 35.4976 22.2233 35.5313 22.1995 35.5606C22.1758 35.5898 22.1465 35.6141 22.1133 35.6321C22.0715 35.6553 22.0246 35.6676 21.9768 35.6678Z" fill="#FFCB25"/>
<path d="M20.874 35.8829C20.8184 35.8829 20.7639 35.8667 20.7173 35.8364C20.6706 35.8061 20.6337 35.763 20.611 35.7121C20.2049 34.7982 20.1056 33.7774 20.3279 32.8024C20.5502 31.8274 21.0821 30.9505 21.8442 30.3029C22.6063 29.6553 23.5575 29.2719 24.5556 29.2098C25.5538 29.1478 26.5452 29.4106 27.3815 29.9589C27.4445 30.001 27.4882 30.0663 27.5032 30.1405C27.5183 30.2147 27.5034 30.2919 27.4618 30.3552C27.4203 30.4185 27.3554 30.4628 27.2813 30.4786C27.2073 30.4943 27.13 30.4801 27.0663 30.4391C26.3337 29.9591 25.4654 29.7291 24.5912 29.7835C23.717 29.838 22.8839 30.1739 22.2165 30.7411C21.5491 31.3083 21.0832 32.0763 20.8885 32.9302C20.6938 33.7841 20.7807 34.6782 21.1363 35.4786C21.1558 35.5224 21.164 35.5703 21.1603 35.618C21.1566 35.6657 21.141 35.7118 21.1149 35.752C21.0889 35.7921 21.0532 35.8251 21.0111 35.848C20.969 35.8709 20.9219 35.8829 20.874 35.8829Z" fill="#FFCB25"/>
<path d="M19.5435 32.9412C19.5226 32.9411 19.5017 32.9389 19.4813 32.9347C19.4068 32.9182 19.342 32.8728 19.301 32.8086C19.26 32.7443 19.2461 32.6664 19.2625 32.5919C19.4532 31.7342 19.839 30.9319 20.39 30.2473C20.941 29.5628 21.6424 29.0145 22.4396 28.645C23.2369 28.2755 24.1086 28.0948 24.987 28.1168C25.8655 28.1388 26.727 28.363 27.5048 28.7719C27.5386 28.7893 27.5686 28.8131 27.5932 28.8422C27.6177 28.8712 27.6362 28.9048 27.6477 28.941C27.6591 28.9772 27.6633 29.0154 27.6599 29.0532C27.6565 29.0911 27.6456 29.1278 27.6279 29.1615C27.6102 29.1951 27.586 29.2248 27.5567 29.249C27.5274 29.2732 27.4936 29.2914 27.4573 29.3024C27.4209 29.3135 27.3827 29.3172 27.3449 29.3134C27.3071 29.3096 27.2704 29.2983 27.237 29.2802C26.5375 28.9125 25.7626 28.711 24.9726 28.6913C24.1826 28.6716 23.3986 28.8342 22.6816 29.1665C21.9646 29.4988 21.3339 29.9919 20.8383 30.6075C20.3427 31.223 19.9956 31.9445 19.824 32.7159C19.8099 32.7798 19.7744 32.8369 19.7234 32.8779C19.6724 32.9188 19.6089 32.9412 19.5435 32.9412Z" fill="#FFCB25"/>
<path d="M19.0583 31.1213C19.0124 31.1214 18.9672 31.1103 18.9265 31.0891C18.893 31.0718 18.8632 31.048 18.8389 31.0192C18.8145 30.9903 18.7961 30.9569 18.7847 30.921C18.7733 30.885 18.7691 30.8471 18.7723 30.8095C18.7755 30.7719 18.7861 30.7353 18.8035 30.7018C19.6269 29.1128 21.0433 27.9122 22.7458 27.3603C24.4483 26.8084 26.2997 26.9497 27.8988 27.7536C27.9668 27.7878 28.0185 27.8477 28.0424 27.9201C28.0663 27.9924 28.0605 28.0713 28.0263 28.1393C27.992 28.2074 27.9322 28.2591 27.8598 28.283C27.7875 28.3069 27.7086 28.3011 27.6405 28.2668C26.1765 27.5311 24.4815 27.4019 22.9228 27.9073C21.3642 28.4127 20.0675 29.512 19.3138 30.9668C19.2894 31.0135 19.2527 31.0526 19.2077 31.0799C19.1626 31.1071 19.1109 31.1215 19.0583 31.1213Z" fill="#FFCB25"/>
<path d="M23.925 34.6966C23.8763 34.6967 23.8284 34.6844 23.7858 34.6608C23.7431 34.6373 23.7072 34.6033 23.6813 34.5621C23.5074 34.2852 23.4381 33.9554 23.4858 33.6319C23.5335 33.3085 23.6951 33.0127 23.9414 32.7978C24.1878 32.5829 24.5028 32.4629 24.8297 32.4595C25.1566 32.4562 25.474 32.5696 25.7248 32.7794C25.7832 32.8283 25.8198 32.8984 25.8265 32.9743C25.8332 33.0502 25.8094 33.1257 25.7605 33.1841C25.7116 33.2425 25.6414 33.2791 25.5655 33.2858C25.4896 33.2925 25.4142 33.2688 25.3558 33.2199C25.2101 33.0975 25.0254 33.0313 24.8352 33.0331C24.6449 33.0349 24.4616 33.1047 24.3182 33.2297C24.1749 33.3548 24.081 33.527 24.0534 33.7153C24.0259 33.9035 24.0665 34.0954 24.168 34.2564C24.1954 34.2998 24.2106 34.3498 24.212 34.4011C24.2135 34.4525 24.2012 34.5032 24.1764 34.5482C24.1516 34.5931 24.1152 34.6306 24.071 34.6567C24.0267 34.6828 23.9763 34.6966 23.925 34.6966Z" fill="#FFCB25"/>
<path d="M25.5825 25.9811C25.3377 25.9584 25.0917 25.9426 24.8437 25.9426C23.5551 25.9425 22.286 26.258 21.1475 26.8617C20.009 27.4654 19.0357 28.3388 18.3127 29.4056C18.2903 29.4368 18.2743 29.4721 18.2657 29.5095C18.2572 29.547 18.2562 29.5857 18.2629 29.6235C18.2695 29.6614 18.2837 29.6974 18.3046 29.7297C18.3254 29.7619 18.3525 29.7897 18.3843 29.8112C18.4161 29.8328 18.4518 29.8478 18.4895 29.8553C18.5271 29.8628 18.5659 29.8627 18.6035 29.855C18.6411 29.8473 18.6768 29.8321 18.7085 29.8104C18.7401 29.7886 18.7671 29.7607 18.7877 29.7284C19.6072 28.518 20.7708 27.5811 22.1281 27.0386C23.4855 26.4962 24.9743 26.3732 26.4022 26.6854C26.1158 26.4665 25.8421 26.2313 25.5825 25.9811Z" fill="#FFCB25"/>
<path d="M24.58 24.844C23.2462 24.8794 21.9373 25.214 20.7501 25.8229C19.5628 26.4318 18.5275 27.2996 17.7205 28.3622C17.6975 28.3922 17.6807 28.4264 17.6709 28.4629C17.6611 28.4994 17.6587 28.5375 17.6636 28.5749C17.6686 28.6123 17.6808 28.6484 17.6997 28.6812C17.7186 28.7139 17.7438 28.7425 17.7738 28.7655C17.8037 28.7885 17.8379 28.8053 17.8744 28.8151C17.9109 28.8249 17.949 28.8273 17.9864 28.8224C18.0239 28.8174 18.06 28.8052 18.0927 28.7863C18.1254 28.7674 18.154 28.7422 18.177 28.7122C18.9582 27.683 19.9677 26.8492 21.1261 26.2765C22.2844 25.7039 23.5599 25.408 24.852 25.4122C24.917 25.4122 24.981 25.418 25.0457 25.4195C24.882 25.2335 24.728 25.0412 24.58 24.844Z" fill="#FFCB25"/>
<path d="M29.399 27.1476C27.7006 26.5691 26.2326 25.4612 25.2105 23.9866C25.1115 24.1726 25.0067 24.3548 24.8962 24.5333C25.98 26.0013 27.4863 27.1033 29.2135 27.6918C29.2493 27.7042 29.2871 27.7094 29.3249 27.7071C29.3627 27.7048 29.3997 27.695 29.4337 27.6784C29.4677 27.6618 29.4981 27.6386 29.5232 27.6102C29.5482 27.5818 29.5674 27.5487 29.5796 27.5129C29.5918 27.477 29.5968 27.4391 29.5944 27.4013C29.5919 27.3636 29.582 27.3266 29.5652 27.2927C29.5484 27.2588 29.5251 27.2285 29.4966 27.2036C29.468 27.1787 29.4349 27.1596 29.399 27.1476Z" fill="#069899"/>
<path d="M31.3212 20.2588C31.2828 20.2589 31.2447 20.2512 31.2093 20.2362C31.1739 20.2212 31.1419 20.1992 31.1152 20.1715C30.8647 19.9128 30.7259 19.566 30.7287 19.2059C30.7316 18.8458 30.8759 18.5012 31.1304 18.2465C31.385 17.9918 31.7295 17.8473 32.0897 17.8443C32.4498 17.8413 32.7967 17.9799 33.0555 18.2303C33.1078 18.2839 33.1371 18.3557 33.1372 18.4306C33.1373 18.5054 33.1082 18.5774 33.0561 18.6311C33.004 18.6849 32.933 18.7162 32.8582 18.7184C32.7834 18.7206 32.7107 18.6936 32.6555 18.643C32.505 18.4977 32.3034 18.4172 32.0941 18.419C31.8849 18.4209 31.6847 18.5048 31.5368 18.6528C31.3888 18.8008 31.3049 19.001 31.3031 19.2102C31.3013 19.4195 31.3818 19.6211 31.5272 19.7715C31.5665 19.812 31.593 19.8632 31.6034 19.9187C31.6138 19.9741 31.6076 20.0314 31.5856 20.0834C31.5637 20.1354 31.5269 20.1797 31.4799 20.2109C31.4328 20.2421 31.3777 20.2588 31.3212 20.2588Z" fill="#069899"/>
<path d="M30.5282 20.9994C30.4893 20.9995 30.4507 20.9916 30.4149 20.9763C30.3791 20.961 30.3468 20.9384 30.32 20.9102C29.8792 20.4474 29.6361 19.8311 29.6423 19.192C29.6484 18.553 29.9032 17.9414 30.3528 17.4872C30.8023 17.0329 31.4111 16.7716 32.0501 16.7588C32.689 16.746 33.3078 16.9826 33.7752 17.4184C33.8028 17.4441 33.8251 17.475 33.8407 17.5094C33.8564 17.5437 33.8651 17.5808 33.8664 17.6185C33.8678 17.6562 33.8617 17.6938 33.8484 17.7291C33.8352 17.7644 33.8152 17.7968 33.7895 17.8244C33.7638 17.852 33.7329 17.8743 33.6985 17.8899C33.6642 17.9056 33.6271 17.9143 33.5894 17.9156C33.5517 17.917 33.5141 17.9108 33.4788 17.8976C33.4435 17.8844 33.4111 17.8644 33.3835 17.8387C33.0253 17.5051 32.5514 17.3242 32.0621 17.3341C31.5728 17.3441 31.1066 17.5443 30.7624 17.8921C30.4181 18.24 30.2229 18.7083 30.2181 19.1977C30.2133 19.687 30.3992 20.1591 30.7365 20.5137C30.7752 20.5544 30.8012 20.6056 30.8111 20.6609C30.821 20.7163 30.8145 20.7733 30.7923 20.825C30.7702 20.8766 30.7333 20.9206 30.6864 20.9516C30.6394 20.9825 30.5845 20.9989 30.5282 20.9989V20.9994Z" fill="#069899"/>
<path d="M29.738 21.7429C29.699 21.7429 29.6603 21.735 29.6245 21.7196C29.5886 21.7042 29.5563 21.6817 29.5295 21.6534C29.1087 21.2109 28.8095 20.6672 28.661 20.0749C28.5124 19.4827 28.5196 18.8621 28.6818 18.2734C28.8441 17.6848 29.1558 17.1481 29.5867 16.7156C30.0177 16.283 30.5532 15.9693 31.1412 15.8049C31.2146 15.7843 31.2931 15.7937 31.3596 15.831C31.426 15.8683 31.4749 15.9305 31.4955 16.0039C31.5161 16.0772 31.5067 16.1558 31.4693 16.2222C31.432 16.2886 31.3698 16.3375 31.2965 16.3581C30.8037 16.4958 30.3549 16.7585 29.9938 17.121C29.6327 17.4834 29.3715 17.933 29.2356 18.4263C29.0997 18.9195 29.0937 19.4396 29.2183 19.9358C29.3429 20.432 29.5937 20.8876 29.9465 21.2581C29.9852 21.2989 30.0112 21.3501 30.0211 21.4054C30.031 21.4608 30.0245 21.5179 30.0023 21.5695C29.9801 21.6212 29.9432 21.6652 29.8962 21.6961C29.8492 21.727 29.7942 21.7435 29.738 21.7434V21.7429Z" fill="#069899"/>
<path d="M29.1945 22.7321C29.1233 22.7319 29.0548 22.7052 29.0023 22.6571C28.3899 22.1062 27.9355 21.4018 27.6861 20.6167C27.4366 19.8316 27.4011 18.9942 27.5832 18.1907C27.7653 17.3873 28.1584 16.647 28.7219 16.0462C29.2855 15.4454 29.9992 15.0057 30.7893 14.7726C30.8262 14.7588 30.8656 14.7527 30.905 14.7548C30.9445 14.7568 30.983 14.767 31.0183 14.7846C31.0536 14.8022 31.0849 14.8269 31.1103 14.8571C31.1357 14.8874 31.1545 14.9225 31.1657 14.9603C31.1769 14.9982 31.1802 15.0379 31.1754 15.0771C31.1706 15.1162 31.1577 15.154 31.1377 15.188C31.1176 15.2219 31.0908 15.2514 31.0589 15.2746C31.0269 15.2978 30.9906 15.3141 30.952 15.3226C30.2599 15.5268 29.6348 15.9118 29.1411 16.4381C28.6475 16.9644 28.3032 17.6128 28.1437 18.3166C27.9842 19.0203 28.0154 19.7538 28.2339 20.4415C28.4525 21.1292 28.8505 21.7461 29.387 22.2286C29.4298 22.2676 29.4598 22.3186 29.4732 22.375C29.4865 22.4313 29.4825 22.4904 29.4617 22.5444C29.4409 22.5985 29.4042 22.645 29.3566 22.6778C29.3089 22.7107 29.2524 22.7284 29.1945 22.7286V22.7321Z" fill="#069899"/>
<path d="M29.5265 24.2853C29.479 24.2852 29.4323 24.2734 29.3905 24.2508C28.4253 23.7311 27.6298 22.945 27.0987 21.986C26.5676 21.027 26.3234 19.9356 26.395 18.8417C26.4667 17.7478 26.8512 16.6976 27.5029 15.8161C28.1545 14.9345 29.0458 14.2589 30.0705 13.8696C30.106 13.8551 30.144 13.8479 30.1823 13.8484C30.2206 13.8489 30.2584 13.857 30.2935 13.8723C30.3287 13.8875 30.3604 13.9097 30.3868 13.9374C30.4133 13.9651 30.4339 13.9978 30.4475 14.0336C30.4611 14.0694 30.4675 14.1076 30.4661 14.1458C30.4648 14.1841 30.4559 14.2217 30.4398 14.2565C30.4237 14.2913 30.4009 14.3225 30.3726 14.3483C30.3443 14.3741 30.3111 14.394 30.275 14.4068C29.3532 14.757 28.5514 15.3647 27.9651 16.1577C27.3789 16.9506 27.033 17.8954 26.9685 18.8794C26.9041 19.8634 27.1238 20.8452 27.6015 21.7078C28.0793 22.5705 28.795 23.2776 29.6633 23.7451C29.7197 23.7754 29.7643 23.8237 29.7901 23.8823C29.816 23.9409 29.8214 24.0065 29.8057 24.0686C29.79 24.1306 29.754 24.1857 29.7034 24.225C29.6528 24.2642 29.5906 24.2855 29.5265 24.2853Z" fill="#069899"/>
<path d="M26.0912 17.5773C26.3148 16.7563 26.7043 15.9898 27.2357 15.3252C27.7672 14.6606 28.4292 14.112 29.181 13.7133C29.2473 13.677 29.2967 13.616 29.3184 13.5435C29.3401 13.4711 29.3324 13.393 29.2969 13.3262C29.2614 13.2594 29.201 13.2093 29.1288 13.1867C29.0566 13.1641 28.9785 13.1709 28.9112 13.2056C27.5193 13.9441 26.4271 15.1432 25.8212 16.5978C25.929 16.9191 26.0192 17.2461 26.0912 17.5773Z" fill="#069899"/>
<path d="M29.874 25.0335C29.0063 24.6973 28.2244 24.1721 27.585 23.4961C26.9456 22.8201 26.4647 22.0102 26.1772 21.1252C26.1217 21.4594 26.048 21.7903 25.9565 22.1165C26.7051 23.7011 28.0339 24.9376 29.6682 25.5702C29.7012 25.5826 29.7361 25.589 29.7712 25.589C29.8384 25.589 29.9034 25.5655 29.955 25.5226C30.0066 25.4796 30.0415 25.42 30.0537 25.354C30.0659 25.288 30.0546 25.2198 30.0218 25.1612C29.989 25.1027 29.9367 25.0575 29.874 25.0335Z" fill="#069899"/>
<path d="M25.5588 15.9465C26.2194 14.6253 27.2638 13.5346 28.555 12.8172C28.5888 12.7993 28.6187 12.7749 28.643 12.7453C28.6672 12.7157 28.6853 12.6816 28.6962 12.6449C28.707 12.6082 28.7105 12.5698 28.7063 12.5317C28.7021 12.4937 28.6904 12.4569 28.6718 12.4235C28.6532 12.39 28.6282 12.3607 28.5981 12.337C28.568 12.3134 28.5335 12.296 28.4966 12.2859C28.4598 12.2758 28.4212 12.2731 28.3833 12.2781C28.3454 12.283 28.3088 12.2955 28.2758 12.3147C27.0132 13.0168 25.9674 14.0517 25.252 15.3067C25.3615 15.5156 25.4638 15.7288 25.5588 15.9465Z" fill="#069899"/>
<path d="M29.9277 26.203C28.1412 25.6518 26.6351 24.4344 25.7217 22.803C25.6374 23.0275 25.5446 23.2476 25.4435 23.4632C26.4456 25.0366 27.9747 26.2022 29.7575 26.7515C29.7851 26.7602 29.8138 26.7646 29.8427 26.7645C29.9115 26.7646 29.9781 26.74 30.0303 26.6951C30.0825 26.6503 30.1168 26.5882 30.1271 26.5202C30.1374 26.4522 30.1229 26.3827 30.0864 26.3245C30.0498 26.2662 29.9935 26.2232 29.9277 26.203Z" fill="#069899"/>
<path d="M34.2293 17.0403C34.1602 17.0404 34.0934 17.0155 34.0413 16.9703C33.5739 16.5637 32.9902 16.3148 32.3733 16.259C32.3357 16.2557 32.2991 16.2449 32.2657 16.2274C32.2322 16.2099 32.2026 16.186 32.1784 16.157C32.1543 16.128 32.136 16.0946 32.1248 16.0586C32.1136 16.0225 32.1096 15.9846 32.113 15.947C32.1159 15.9093 32.1264 15.8725 32.1438 15.8389C32.1611 15.8052 32.1851 15.7754 32.2142 15.7512C32.2432 15.7269 32.2769 15.7087 32.3131 15.6977C32.3493 15.6866 32.3873 15.6829 32.425 15.6868C33.162 15.7533 33.8592 16.0508 34.4173 16.5368C34.4617 16.5751 34.4933 16.6261 34.5079 16.6829C34.5224 16.7397 34.5193 16.7996 34.4988 16.8546C34.4783 16.9095 34.4415 16.9569 34.3934 16.9903C34.3452 17.0237 34.2879 17.0416 34.2293 17.0415V17.0403Z" fill="#069899"/>
<path d="M6.24124 11.7741L6.20324 11.7726C6.12756 11.7677 6.05669 11.7337 6.00545 11.6778C5.9542 11.6219 5.92653 11.5484 5.92824 11.4726C5.93012 11.3993 5.96045 11.3296 6.0128 11.2783C6.06515 11.2269 6.13542 11.198 6.20874 11.1976L6.24149 11.1988C6.3982 11.1992 6.55155 11.1534 6.68241 11.0672C6.81327 10.981 6.91585 10.8582 6.97736 10.714C7.03887 10.5699 7.05658 10.4108 7.02828 10.2567C6.99998 10.1026 6.92694 9.96019 6.81824 9.84731C6.7655 9.79221 6.7368 9.71842 6.73846 9.64216C6.74013 9.5659 6.77202 9.49343 6.82712 9.44069C6.88221 9.38794 6.95601 9.35924 7.03226 9.36091C7.10852 9.36257 7.18099 9.39446 7.23374 9.44956C7.42027 9.64391 7.54555 9.88881 7.59398 10.1538C7.64242 10.4188 7.61188 10.6922 7.50617 10.9399C7.40046 11.1877 7.22423 11.3989 6.99942 11.5473C6.7746 11.6957 6.51112 11.7747 6.24174 11.7746L6.24124 11.7741Z" fill="#F39619"/>
<path d="M6.24123 12.8603H6.20673C6.16883 12.8577 6.13183 12.8477 6.09785 12.8307C6.06387 12.8137 6.03358 12.7902 6.00874 12.7614C5.98391 12.7327 5.96502 12.6993 5.95316 12.6632C5.9413 12.6272 5.9367 12.5891 5.93964 12.5512C5.94258 12.5134 5.953 12.4764 5.97028 12.4426C5.98757 12.4088 6.01139 12.3787 6.04036 12.3542C6.06933 12.3296 6.10288 12.311 6.13908 12.2995C6.17527 12.288 6.21339 12.2838 6.25123 12.2871C6.6208 12.2854 6.98173 12.1751 7.28914 11.97C7.59655 11.7648 7.83686 11.4739 7.98021 11.1332C8.12356 10.7926 8.16361 10.4173 8.09538 10.0541C8.02716 9.69087 7.85366 9.35571 7.59647 9.09031C7.54395 9.03534 7.51532 8.96182 7.51682 8.88581C7.51833 8.8098 7.54985 8.73747 7.60451 8.68463C7.65917 8.63179 7.73252 8.60272 7.80854 8.60379C7.88456 8.60485 7.95706 8.63596 8.01022 8.69031C8.34589 9.03762 8.57191 9.47606 8.66008 9.95096C8.74825 10.4259 8.69468 10.9162 8.50604 11.3609C8.31741 11.8055 8.00206 12.1848 7.59931 12.4515C7.19656 12.7181 6.72424 12.8603 6.24123 12.8603Z" fill="#F39619"/>
<path d="M6.24126 13.9482C6.08855 13.9473 5.93607 13.9365 5.78476 13.9159C5.70974 13.9054 5.6419 13.8657 5.59596 13.8055C5.55001 13.7453 5.52967 13.6693 5.53935 13.5942C5.54902 13.5191 5.58793 13.4508 5.64764 13.4042C5.70734 13.3575 5.78302 13.3363 5.85825 13.3452C6.48204 13.4273 7.11579 13.3091 7.66803 13.0076C8.22027 12.7061 8.66244 12.237 8.93073 11.6679C9.19902 11.0988 9.27956 10.4592 9.16071 9.84132C9.04187 9.22348 8.72978 8.65938 8.26951 8.23042C8.21381 8.17834 8.18108 8.10627 8.17853 8.03006C8.17597 7.95385 8.2038 7.87974 8.25588 7.82405C8.30796 7.76835 8.38004 7.73563 8.45625 7.73307C8.53246 7.73052 8.60656 7.75834 8.66225 7.81042C9.01912 8.14049 9.30358 8.54105 9.49762 8.98675C9.69166 9.43244 9.79105 9.91357 9.78951 10.3997C9.78851 11.3404 9.41437 12.2424 8.74917 12.9077C8.08396 13.5729 7.18203 13.9471 6.24126 13.9482Z" fill="#F39619"/>
<path d="M6.24126 15.0354C6.07373 15.0353 5.90632 15.0262 5.73976 15.0082C5.66392 14.9999 5.59445 14.9619 5.54664 14.9024C5.49882 14.843 5.47656 14.767 5.48476 14.6912C5.49418 14.6158 5.53255 14.547 5.59176 14.4994C5.65097 14.4518 5.72637 14.4291 5.80201 14.4362C5.94786 14.4525 6.0945 14.4609 6.24126 14.4612C7.07759 14.4611 7.89349 14.2027 8.57744 13.7214C9.2614 13.2401 9.78004 12.5593 10.0625 11.7721C10.3449 10.985 10.3774 10.1298 10.1555 9.32341C9.93353 8.51707 9.468 7.79893 8.82252 7.26715C8.79339 7.2431 8.76929 7.21356 8.75159 7.18019C8.73389 7.14683 8.72294 7.11031 8.71935 7.07271C8.71576 7.03512 8.71961 6.99718 8.73069 6.96108C8.74176 6.92497 8.75984 6.8914 8.78389 6.86228C8.80794 6.83316 8.83749 6.80906 8.87085 6.79136C8.90421 6.77366 8.94073 6.7627 8.97832 6.75911C9.01592 6.75553 9.05386 6.75938 9.08996 6.77045C9.12607 6.78153 9.15964 6.7996 9.18876 6.82365C9.92531 7.43088 10.4564 8.2507 10.7095 9.17112C10.9626 10.0915 10.9254 11.0676 10.6029 11.9661C10.2804 12.8646 9.6884 13.6415 8.90774 14.1909C8.12708 14.7402 7.19584 15.0352 6.24126 15.0354Z" fill="#F39619"/>
<path d="M7.13149 17.1469C7.05872 17.1467 6.98876 17.1188 6.93571 17.069C6.88265 17.0192 6.85044 16.9511 6.84556 16.8785C6.84068 16.8059 6.86349 16.7341 6.9094 16.6777C6.95531 16.6212 7.02092 16.5842 7.09299 16.5742C8.29049 16.4093 9.41421 15.8998 10.3273 15.1077C11.2403 14.3155 11.9033 13.275 12.2355 12.1127C12.5677 10.9505 12.5548 9.71669 12.1982 8.56167C11.8417 7.40665 11.157 6.38024 10.2275 5.60745C10.1689 5.55865 10.1321 5.48856 10.1251 5.41261C10.1182 5.33666 10.1417 5.26106 10.1905 5.20245C10.2393 5.14384 10.3094 5.10701 10.3853 5.10007C10.4613 5.09313 10.5369 5.11665 10.5955 5.16545C11.6107 6.0097 12.3585 7.13095 12.7478 8.39264C13.1372 9.65432 13.1512 11.002 12.7882 12.2715C12.4252 13.541 11.7009 14.6776 10.7035 15.5428C9.70606 16.408 8.47856 16.9645 7.17049 17.1444C7.15755 17.146 7.14453 17.1468 7.13149 17.1469Z" fill="#F39619"/>
<path d="M8.51626 17.9501C8.44756 17.9499 8.38117 17.9252 8.3291 17.8804C8.27703 17.8356 8.24271 17.7736 8.23235 17.7057C8.222 17.6378 8.23628 17.5684 8.27262 17.5101C8.30896 17.4518 8.36497 17.4084 8.43051 17.3878C9.616 17.0164 10.6875 16.3494 11.544 15.4496C12.4006 14.5498 13.0141 13.4468 13.3267 12.2445C13.6394 11.0422 13.6409 9.78004 13.3312 8.57696C13.0215 7.37388 12.4106 6.26942 11.5563 5.36755C11.5054 5.31192 11.4784 5.23852 11.4811 5.16317C11.4838 5.08782 11.516 5.01654 11.5707 4.96471C11.6255 4.91287 11.6984 4.88462 11.7738 4.88604C11.8492 4.88746 11.921 4.91844 11.9738 4.9723C12.8953 5.94512 13.5541 7.13648 13.8881 8.43421C14.2221 9.73193 14.2203 11.0933 13.8829 12.3902C13.5455 13.687 12.8836 14.8766 11.9595 15.847C11.0354 16.8174 9.87956 17.5367 8.60076 17.937C8.57338 17.9455 8.54491 17.9499 8.51626 17.9501Z" fill="#F39619"/>
<path d="M9.92103 18.549C9.85547 18.5492 9.79182 18.527 9.74062 18.4861C9.68941 18.4452 9.65373 18.388 9.6395 18.324C9.62526 18.26 9.63331 18.193 9.66232 18.1343C9.69134 18.0755 9.73957 18.0284 9.79903 18.0008C10.9577 17.4612 11.9781 16.6646 12.7826 15.6714C13.5871 14.6782 14.1545 13.5146 14.4417 12.2691C14.7289 11.0237 14.7282 9.72911 14.4399 8.48392C14.1515 7.23873 13.583 6.0757 12.7775 5.08327C12.7317 5.02381 12.7109 4.9488 12.7196 4.87424C12.7284 4.79968 12.7659 4.73148 12.8241 4.68418C12.8824 4.63688 12.9569 4.61423 13.0317 4.62107C13.1064 4.62791 13.1755 4.66368 13.2243 4.72077C14.0847 5.78119 14.6919 7.02384 14.9999 8.35422C15.3079 9.68461 15.3085 11.0677 15.0016 12.3983C14.6947 13.729 14.0884 14.9721 13.2289 16.0332C12.3694 17.0944 11.2792 17.9455 10.0413 18.522C10.0036 18.5396 9.96259 18.5488 9.92103 18.549Z" fill="#F39619"/>
<path d="M11.9635 10.3997C11.9667 9.5133 11.7625 8.63849 11.3671 7.8452C10.9717 7.05191 10.3962 6.36217 9.68648 5.83116C9.62533 5.79046 9.55093 5.77469 9.47853 5.78708C9.40612 5.79947 9.3412 5.83909 9.29706 5.8978C9.25292 5.95651 9.2329 6.02989 9.24112 6.10288C9.24933 6.17588 9.28514 6.24297 9.34123 6.29041C10.1751 6.91872 10.7979 7.78589 11.1271 8.77669C11.4563 9.76749 11.4762 10.835 11.1842 11.8374C10.8922 12.8398 10.3021 13.7296 9.49227 14.3885C8.68246 15.0475 7.69129 15.4445 6.65048 15.5267C6.62048 15.5289 6.59073 15.5317 6.56073 15.5334C6.52098 15.5359 6.48123 15.5374 6.44123 15.5392C6.36098 15.5424 6.28073 15.5452 6.19998 15.5452C6.12712 15.5452 6.05699 15.5729 6.00375 15.6226C5.95051 15.6723 5.91811 15.7404 5.9131 15.8131C5.90808 15.8858 5.93083 15.9577 5.97674 16.0142C6.02265 16.0708 6.08832 16.1079 6.16048 16.1179C6.1735 16.1196 6.18661 16.1205 6.19973 16.1207C6.24698 16.1207 6.29373 16.1184 6.34073 16.1174C6.34073 16.1174 6.53098 16.1117 6.56373 16.1099C6.62123 16.1069 6.80748 16.0909 6.80748 16.0909C8.21912 15.9492 9.52795 15.2887 10.4805 14.2373C11.433 13.1859 11.9615 11.8184 11.9635 10.3997Z" fill="#F39619"/>
</svg>
