<svg width="40" height="40" viewBox="0 0 40 40" fill="none" xmlns="http://www.w3.org/2000/svg">
<path fill-rule="evenodd" clip-rule="evenodd" d="M7.26385 30.2081C6.79544 30.7151 6.16014 31 5.49771 31C4.83527 31 4.19997 30.7151 3.73156 30.2081C3.26315 29.701 3 29.0133 3 28.2961C3 27.579 3.26315 26.8913 3.73156 26.3842L12.0518 17.38L12.0693 17.3611C12.7491 16.6403 13.6627 16.2366 14.6143 16.2366C15.5658 16.2366 16.4795 16.6403 17.1593 17.3611L17.1767 17.38L21.423 21.9767L27.2818 15.2695L24.6857 12.459C24.4242 12.1756 24.2461 11.8146 24.174 11.4217C24.1019 11.0288 24.139 10.6215 24.2805 10.2514C24.4221 9.88127 24.6618 9.56487 24.9694 9.34214C25.277 9.11941 25.6387 9.00035 26.0087 9H35.1278C35.6243 9 36.1005 9.21353 36.4516 9.59363C36.8027 9.97372 37 10.4892 37 11.0268V20.8958C36.9997 21.2963 36.8897 21.6879 36.6839 22.0208C36.4782 22.3538 36.1859 22.6133 35.844 22.7666C35.5021 22.9198 35.1259 22.9599 34.763 22.8819C34.4 22.8038 34.0665 22.6111 33.8047 22.328L30.8141 19.0906L24.0641 26.822L23.9967 26.895C23.3169 27.6157 22.4032 28.0194 21.4517 28.0194C20.5001 28.0194 19.5865 27.6157 18.9067 26.895L18.8892 26.8761L14.613 22.2496L7.26385 30.2081Z" fill="#0277A2"/>
</svg>
