<svg width="40" height="40" viewBox="0 0 40 40" fill="none" xmlns="http://www.w3.org/2000/svg">
<path d="M33.1667 6.81665C32.7627 6.54821 32.2981 6.38476 31.815 6.34111C31.3319 6.29746 30.8456 6.37498 30.4 6.56665L24.45 9.11664L16.5333 5.78331C16.2223 5.65129 15.8879 5.58325 15.55 5.58325C15.2121 5.58325 14.8777 5.65129 14.5667 5.78331L7.30002 8.84998C6.73355 9.09635 6.25254 9.50467 5.91745 10.0236C5.58236 10.5426 5.40814 11.149 5.41668 11.7666V30.5166C5.41362 31.0437 5.54145 31.5632 5.78871 32.0286C6.03597 32.4941 6.39492 32.8908 6.83335 33.1833C7.23735 33.4518 7.70192 33.6152 8.18501 33.6588C8.66809 33.7025 9.15444 33.625 9.60002 33.4333L15.55 30.8833L23.4667 34.2166C23.7769 34.3514 24.1119 34.4195 24.45 34.4166C24.7878 34.4162 25.1222 34.3482 25.4333 34.2166L32.7 31.1C33.2665 30.8536 33.7475 30.4453 34.0826 29.9263C34.4177 29.4074 34.5919 28.801 34.5833 28.1833V9.48331C34.5864 8.95629 34.4586 8.43675 34.2113 7.97132C33.9641 7.50588 33.6051 7.10913 33.1667 6.81665V6.81665ZM16.8 8.48331L23.2 11.2166V31.4333L16.8 28.7V8.48331ZM8.61668 31.1333C8.55334 31.1699 8.48149 31.1891 8.40835 31.1891C8.33521 31.1891 8.26336 31.1699 8.20002 31.1333C8.10704 31.0682 8.03222 30.9805 7.98264 30.8784C7.93306 30.7763 7.91035 30.6633 7.91668 30.55V11.7666C7.91464 11.6336 7.95351 11.5031 8.02802 11.3928C8.10254 11.2825 8.20911 11.1977 8.33335 11.15L14.3 8.56664V28.7L8.61668 31.1333ZM32.0833 28.2333C32.0895 28.3607 32.058 28.4872 31.9928 28.5968C31.9276 28.7065 31.8316 28.7945 31.7167 28.85L25.7 31.4333V11.3L31.3833 8.86665C31.4467 8.83008 31.5185 8.81082 31.5917 8.81082C31.6648 8.81082 31.7367 8.83008 31.8 8.86665C31.893 8.93172 31.9678 9.01946 32.0174 9.12154C32.067 9.22362 32.0897 9.33667 32.0833 9.44998V28.2333Z" fill="#0277A2"/>
</svg>
