<svg width="40" height="40" viewBox="0 0 40 40" fill="none" xmlns="http://www.w3.org/2000/svg">
<path d="M11.6666 3.3335V6.66683H13.3333V30.0002C13.3333 31.7683 14.0357 33.464 15.2859 34.7142C16.5362 35.9644 18.2318 36.6668 20 36.6668C21.7681 36.6668 23.4638 35.9644 24.714 34.7142C25.9642 33.464 26.6666 31.7683 26.6666 30.0002V6.66683H28.3333V3.3335H11.6666ZM18.3333 26.6668C17.3333 26.6668 16.6666 26.0002 16.6666 25.0002C16.6666 24.0002 17.3333 23.3335 18.3333 23.3335C19.3333 23.3335 20 24.0002 20 25.0002C20 26.0002 19.3333 26.6668 18.3333 26.6668ZM21.6666 20.0002C20.6666 20.0002 20 19.3335 20 18.3335C20 17.3335 20.6666 16.6668 21.6666 16.6668C22.6666 16.6668 23.3333 17.3335 23.3333 18.3335C23.3333 19.3335 22.6666 20.0002 21.6666 20.0002ZM23.3333 11.6668H16.6666V6.66683H23.3333V11.6668Z" fill="#0277A2"/>
</svg>
