<svg width="40" height="40" viewBox="0 0 40 40" fill="none" xmlns="http://www.w3.org/2000/svg">
<path d="M9.28591 23.1251C8.1135 21.2051 7.49536 18.9981 7.49996 16.7485C7.49996 9.91408 13.0969 4.375 20 4.375C26.9032 4.375 32.5001 9.91408 32.5001 16.7485C32.5047 18.9981 31.8865 21.2051 30.7141 23.1251M24.6875 30.9376L24.4844 31.9485C24.2656 33.0532 24.1547 33.6048 23.9063 34.0423C23.5234 34.7166 22.9036 35.2245 22.1672 35.4673C21.6906 35.6251 21.125 35.6251 20 35.6251C18.875 35.6251 18.3094 35.6251 17.8328 35.4689C17.0961 35.2257 16.4763 34.7172 16.0937 34.0423C15.8453 33.6048 15.7344 33.0532 15.5156 31.9485L15.3125 30.9376M12.7859 27.9657C12.6422 27.5345 12.5703 27.3173 12.5781 27.1423C12.5869 26.9613 12.648 26.7868 12.7539 26.6398C12.8599 26.4929 13.0061 26.3797 13.175 26.3141C13.3375 26.2501 13.5656 26.2501 14.0187 26.2501H25.9813C26.436 26.2501 26.6625 26.2501 26.825 26.3126C26.9941 26.3783 27.1405 26.4917 27.2465 26.6389C27.3524 26.7862 27.4134 26.961 27.4219 27.1423C27.4297 27.3173 27.3578 27.5329 27.2141 27.9657C26.9485 28.7641 26.8157 29.1641 26.611 29.4876C26.1828 30.1635 25.5117 30.6495 24.736 30.8454C24.3641 30.9376 23.9453 30.9376 23.1063 30.9376H16.8937C16.0547 30.9376 15.6344 30.9376 15.2641 30.8438C14.4885 30.6483 13.8175 30.1629 13.389 29.4876C13.1844 29.1641 13.0515 28.7641 12.7859 27.9657Z" stroke="#0277A2" stroke-width="2.27273" stroke-linecap="round" stroke-linejoin="round"/>
<path d="M14.1406 16.4844L17.6562 20V26.25M25.8594 16.4844L22.3437 20V26.25M14.1406 17.6563C14.4514 17.6563 14.7494 17.5328 14.9692 17.313C15.189 17.0933 15.3124 16.7952 15.3124 16.4844C15.3124 16.1736 15.189 15.8755 14.9692 15.6557C14.7494 15.436 14.4514 15.3125 14.1406 15.3125C13.8298 15.3125 13.5317 15.436 13.3119 15.6557C13.0922 15.8755 12.9687 16.1736 12.9687 16.4844C12.9687 16.7952 13.0922 17.0933 13.3119 17.313C13.5317 17.5328 13.8298 17.6563 14.1406 17.6563ZM25.8594 17.6563C25.5486 17.6563 25.2505 17.5328 25.0307 17.313C24.8109 17.0933 24.6875 16.7952 24.6875 16.4844C24.6875 16.1736 24.8109 15.8755 25.0307 15.6557C25.2505 15.436 25.5486 15.3125 25.8594 15.3125C26.1702 15.3125 26.4682 15.436 26.688 15.6557C26.9078 15.8755 27.0312 16.1736 27.0312 16.4844C27.0312 16.7952 26.9078 17.0933 26.688 17.313C26.4682 17.5328 26.1702 17.6563 25.8594 17.6563Z" stroke="#0277A2" stroke-width="2.27273" stroke-linecap="round" stroke-linejoin="round"/>
</svg>
