<?xml version="1.0" encoding="UTF-8" standalone="no"?>
<!DOCTYPE svg PUBLIC "-//W3C//DTD SVG 1.1//EN" "http://www.w3.org/Graphics/SVG/1.1/DTD/svg11.dtd">
<svg width="100%" height="100%" viewBox="0 0 814 847" version="1.1" xmlns="http://www.w3.org/2000/svg" xmlns:xlink="http://www.w3.org/1999/xlink" xml:space="preserve" xmlns:serif="http://www.serif.com/" style="fill-rule:evenodd;clip-rule:evenodd;stroke-linejoin:round;stroke-miterlimit:2;">
    <g transform="matrix(1,0,0,1,-221.991784,-203.620829)">
        <g id="Background" transform="matrix(1.224609,0,0,1.224609,0,0)">
            <path d="M305.496,671.879C283.757,670.026 278.769,650.181 285.96,636.742C286.194,636.303 285.615,635.806 331.45,589.451C356.291,564.329 355.974,561.889 367.49,561.896C367.984,561.897 368.837,562.919 378.96,551.94C384.227,546.226 389.415,546.475 384.685,540.361C330.622,470.474 356.979,396.724 384.351,363.382C453.619,279.01 564.266,304.712 608.172,371.721C687.316,492.51 564.617,630.717 444.585,584.278C422.863,575.874 408.162,563.446 407.601,563.263C405.861,562.694 405.236,562.704 390.609,578.59C388.452,580.933 392.475,583.762 391.722,589.535C390.871,596.054 390.118,596.176 346.871,639.879C319.055,667.988 319.82,671.059 305.496,671.879Z" style="fill:rgb(38,127,41);"/>
            <path d="M379.143,433.441C392.808,355.11 467.844,323.353 521.521,338.431C624.791,367.441 635.161,497.868 556.782,548.929C465.716,608.253 362.664,523.552 379.143,433.441Z" style="fill:rgb(253,253,253);"/>
            <path d="M802.631,410.94C759.11,451.918 711.869,451.686 664.138,526.252C647.434,552.346 646.204,565.736 644.743,555.45C635.735,492.036 649.582,458.998 673.966,427.883C697.211,398.222 743.668,386.198 750.483,384.434C766.281,380.346 825.29,369.431 842.482,351.481C844.102,349.79 845.404,349.216 845.411,351.512C845.563,399.751 846.62,499.309 761.785,554.938C718.699,583.191 698.263,579.55 649.498,606.496C647.689,607.496 647.243,605.941 647.356,605.497C649.324,597.795 665.018,548.545 695.345,512.371C732.367,468.212 768.93,452.379 801.036,415.17C802.704,413.236 803.75,413.309 802.631,410.94Z" style="fill:rgb(110,174,36);"/>
            <path d="M421.49,218.184C380.034,220.369 380.477,223.496 321.495,232.468C296.673,236.244 303.642,247.43 258.325,290.312C225.587,321.29 222.177,321.003 217.026,355.421C211.046,395.381 193.769,399.66 219.055,430.873C253.295,473.139 249.862,484.175 282.501,482.512C299.765,481.632 331.575,476.154 342.055,489.878C342.534,490.505 349.895,506.901 348.598,510.538C344.846,521.058 328.604,506.194 319.511,505.405C287.849,502.657 256.636,522.379 228.152,483.772C213.306,463.65 213.599,463.519 198.12,443.793C166.06,402.939 188.64,391.58 193.999,344.559C199.633,295.129 228.338,292.993 268.979,242.882C298.783,206.133 303.401,210.847 332.44,206.08C338.079,205.154 401.611,191.508 439.482,192.947C449.188,193.315 462.876,200.119 461.07,219.471C459.828,232.777 457.12,238.45 470.499,238.578C490.367,238.77 491.886,236.087 513.258,248.891C524.263,255.485 524.599,254.754 535.606,261.338C539.968,263.947 534.736,268.709 531.155,274.277C522.097,288.361 513.485,275.98 494.325,265.825C478.189,257.273 441.476,273.617 435.899,238.454C435.378,235.17 437.416,222.944 436.575,220.472C435.296,216.714 429.101,217.862 421.49,218.184Z" style="fill:rgb(24,115,40);"/>
            <path d="M476.285,730.278C477.947,728.721 482.145,724.554 492.525,715.528C581.971,637.749 688.978,615.254 691.448,615.701C692.537,615.898 692.527,616.367 691.708,629.53C691.562,631.866 690.482,631.266 670.613,640.735C546.578,699.848 486.074,831.224 484.443,833.446C483.175,835.174 482.025,832.721 475.203,817.63C451.446,765.079 448.455,766.4 447.71,761.452C447.263,758.477 465.545,740.896 476.285,730.278Z" style="fill:rgb(253,155,5);"/>
            <path d="M458.634,716.638C434.855,739.978 435.114,743.528 433.757,741.262C429.482,734.13 432.747,732.297 416.03,709.845C399.858,688.123 410.921,681.548 436.278,665.142C521.365,610.09 600.004,596.8 629.458,591.103C634.123,590.201 630.911,593.569 626.728,607.568C626.529,608.231 624.476,615.101 623.586,615.626C613.538,621.552 539.473,639.623 458.634,716.638Z" style="fill:rgb(95,164,37);"/>
            <path d="M507.727,832.643C526.088,799.886 547.24,772.148 551.049,767.153C585.158,722.423 610.99,701.405 618.559,694.566C643.38,672.136 687.671,645.567 689.424,646.653C690.448,647.288 688.854,654.853 688.707,655.552C681.597,689.296 645.759,697.48 626.599,718.586C612.058,734.602 629.657,743.221 609.616,765.603C589.76,787.78 574.97,812.191 557.924,832.838C536.978,858.208 510.196,859.194 502.611,856.235C494.645,853.127 499.155,847.645 507.727,832.643Z" style="fill:rgb(2,118,176);"/>
            <path d="M708.196,364.436C701.952,388.455 699.216,387.372 693.67,390.777C677.121,400.939 673.344,409.858 668.731,404.324C663.967,398.609 675.939,396.138 686.29,372.408C714.289,308.216 644.144,238.736 580.653,274.762C564.256,284.067 556.374,297.274 554.903,299.738C552.308,304.086 552.38,306.076 547.592,304.23C538.462,300.709 534.151,300.064 539.022,291.226C574.114,227.547 672.143,230.184 704.222,306.614C715.085,332.498 709.174,359.903 708.196,364.436Z" style="fill:rgb(253,174,8);"/>
            <path d="M506.499,401.191C558.702,401.269 558.913,400.865 561.591,402.352C566.835,405.264 565.875,413.833 561.269,416.089C560.632,416.402 560.672,417.171 493.5,417.071C475.606,417.044 464.006,418.796 464.771,408.524C465.42,399.803 470.758,401.207 506.499,401.191Z" style="fill:rgb(84,160,38);"/>
            <path d="M490.501,512.099C475.947,512.078 466.205,513.698 464.867,505.45C464.18,501.22 467.479,496.743 471.475,496.34C478.084,495.674 478.078,496.17 554.501,496.221C569.849,496.231 565.014,508.089 562.325,510.275C559.682,512.426 559.259,512.065 490.501,512.099Z" style="fill:rgb(3,119,176);"/>
            <path d="M479.502,448.774C484.51,448.765 554.442,448.756 556.499,448.78C567.425,448.905 567.45,461.869 559.428,464.226C556.263,465.157 480.374,464.59 473.5,464.538C472.505,464.531 463.379,464.463 464.892,455.56C466.39,446.742 478.381,448.778 479.502,448.774Z" style="fill:rgb(253,150,5);"/>
            <path d="M610.433,169.449C610.806,169.05 613.236,166.45 616.491,166.292C627.144,165.778 625.127,176.062 625.184,203.501C625.207,214.803 627.676,231.559 615.462,229.756C606.911,228.494 608.751,216.892 608.753,216.5C608.906,174.264 607.951,173.926 610.433,169.449Z" style="fill:rgb(253,181,9);"/>
            <path d="M703.459,273.518C701.176,265.871 704.969,264.235 715.748,256.868C734.137,244.3 741.771,237.059 747.101,244.8C753.437,254.003 740.746,259.816 737.75,261.864C712.631,279.033 709.097,282.699 703.459,273.518Z" style="fill:rgb(253,180,9);"/>
            <path d="M422.806,400.695C423.889,399.289 432.737,387.806 444.412,395.635C462.326,407.646 443.655,432.633 428.728,423.118C414.808,414.246 422.758,400.795 422.806,400.695Z" style="fill:rgb(73,153,40);"/>
            <path d="M436.517,519.94C409.509,518.267 421.189,481.042 441.569,489.335C455.688,495.08 456.212,517.782 436.517,519.94Z" style="fill:rgb(4,117,174);"/>
            <path d="M432.393,471.921C410.958,463.584 422.167,440.868 435.513,440.795C457.711,440.673 456.69,476.036 432.393,471.921Z" style="fill:rgb(253,149,6);"/>
            <path d="M543.226,213.659C536.147,201.611 548.154,198.677 551.383,199.815C554.15,200.791 556.033,201.454 571.304,230.606C574.893,237.457 569.719,245.105 561.473,242.572C558.858,241.769 558.384,241.623 543.226,213.659Z" style="fill:rgb(253,170,8);"/>
            <path d="M681.157,229.319C678.935,233.73 673.731,248.611 663.742,241.21C657.07,236.267 663.338,228.126 671.342,212.418C672.877,209.405 677.753,195.141 687.281,200.841C695.722,205.89 687.923,215.49 681.157,229.319Z" style="fill:rgb(253,179,9);"/>
            <path d="M725.254,321.436C726.357,319.118 726.071,318.988 727.503,317.503C729.286,315.654 730.956,313.921 759.52,315.121C765.774,315.384 768.684,321.849 767.428,325.48C764.999,332.506 759.083,331.484 755.5,331.504C731.488,331.632 724.252,333.049 725.254,321.436Z" style="fill:rgb(253,179,9);"/>
        </g>
    </g>
</svg>
